<?xml version="1.0" encoding="UTF-8"?>
<svg id="Layer_1" data-name="Layer 1" xmlns="http://www.w3.org/2000/svg" viewBox="0 0 205.09 199.75">
  <defs>
    <style>
      .cls-1 {
        font-size: 30.5px;
      }

      .cls-1, .cls-2, .cls-3, .cls-4 {
        isolation: isolate;
      }

      .cls-1, .cls-2, .cls-5, .cls-4 {
        fill: #231f20;
      }

      .cls-1, .cls-2, .cls-4 {
        font-family: Roboto-Regular, Roboto;
      }

      .cls-2 {
        letter-spacing: -.04em;
      }

      .cls-2, .cls-4 {
        font-size: 16.87px;
      }

      .cls-3 {
        fill: none;
      }
    </style>
  </defs>
  <path class="cls-5" d="m204.54,92l-.71-4.74-.73-4.73c-.58-2.81-1.61-6.52-2.56-10.25-1.26-3.62-2.59-7.23-3.62-9.91l-2.07-4.32-2.09-4.31c-1.46-2.46-3.42-5.77-5.5-8.99-2.31-3.05-4.5-6.21-6.4-8.37l-3.22-3.55-.89-.98c-.76-.87-1.56-1.71-2.4-2.5-2.16-1.89-4.88-4.63-7.9-6.96l-4.5-3.37-2.08-1.54-1.98-1.22-4.11-2.47-1.13-.68c-.98-.62-2-1.16-3.06-1.63l-4.43-2.13-2.52-1.21c-.87-.37-1.78-.67-2.67-1.02-3.61-1.3-7.17-2.74-10-3.33l-4.65-1.19c-1.54-.44-3.11-.75-4.7-.94l-4.88-.74-2.74-.41-2.85-.16c-3.82-.16-7.65-.53-10.51-.24l-4.78.24-1.32.07c-1.16.04-2.31.16-3.45.37l-4.88.74c-1.86.23-3.71.59-5.52,1.07-3.7,1.01-7.48,1.75-10.14,2.87l-4.47,1.68-1.24.46c-1.09.39-2.15.85-3.18,1.39l-4.43,2.13-2.49,1.22-2.44,1.46c-3.28,1.99-6.59,3.9-8.82,5.74l-3.83,2.87-1.05.8c-.66.52-1.52,1.35-2.6,2.3-2.11,1.95-5.06,4.39-7.54,7.32l-3.78,4.17c-1.13,1.39-2.1,2.76-2.98,3.9l-2.88,3.81c-.27.36-.51.73-.72,1.12l-1.81,2.96-2.55,4.22c-.9,1.56-1.66,3.32-2.51,5.04s-1.71,3.42-2.38,5.11l-1.7,4.61-1.19,3.27c-.3.79-.42,1.25-.42,1.25l-1.21,4.64-1.21,4.76-.88,5.56c-.26,1.9-.64,3.78-.76,5.57s-.19,3.47-.26,4.88l-.22,4.78.22,4.78c.08,1.43.17,3.1.26,4.88s.49,3.68.76,5.57l.88,5.56,1.21,4.76,1.21,4.64s.13.46.42,1.25l1.19,3.27,1.69,4.63c.67,1.66,1.57,3.37,2.38,5.11s1.62,3.48,2.51,5.04l2.54,4.2,1.84,2.96c.22.38.46.75.73,1.1l2.86,3.84c.87,1.14,1.84,2.51,2.98,3.9l2.66,2.93c-.25-.69-.45-1.4-.61-2.12h-.04l-.63-.69s-.04-.07,0-.1h0l.43-.36c-.19-1.14-.29-2.29-.29-3.45,0-.6.03-1.18.08-1.76l-.2.16c-.4.28-.95.19-1.23-.21h0s-3.06-4.12-3.06-4.12c-.17-.2-.32-.42-.45-.65l-.92-1.5-1.33-2.19c-.27-.41-.17-.96.24-1.23h0l13.73-8.19c.38-.25.88-.15,1.14.22,0,0,1.17,1.99,1.81,3,.43-.21.86-.4,1.3-.56l.93-.63s.07-.03.1,0l.17.22c.33-.09.65-.18.98-.25l-.16-.21c-.21-.26-.39-.54-.55-.83l-1.36-2.25-1.95-3.18c-.69-1.18-1.23-2.53-1.88-3.82s-1.31-2.59-1.82-3.86l-1.27-3.5-.91-2.46c-.23-.59-.33-.94-.33-.94l-.88-3.51-.98-3.6c-.2-1.35-.42-2.78-.64-4.22s-.52-2.86-.6-4.23-.13-2.64-.18-3.72c-.12-2.18-.2-3.64-.2-3.64,0,0,.08-1.46.2-3.64.05-1.09.11-2.36.18-3.72s.41-2.79.6-4.23.43-2.87.64-4.22l.98-3.6.89-3.52s.1-.35.33-.94l.91-2.46,1.27-3.5c.49-1.26,1.21-2.54,1.82-3.86s1.2-2.65,1.88-3.82l1.95-3.18,1.36-2.25c.16-.29.34-.57.55-.83l2.19-2.93c.66-.86,1.39-1.91,2.25-2.97l2.88-3.15c1.85-2.25,4.13-4.08,5.72-5.58.82-.73,1.46-1.37,1.95-1.76l.81-.6,2.93-2.17c1.67-1.42,4.22-2.84,6.69-4.35l1.85-1.13,1.9-.9,3.35-1.62c.77-.42,1.58-.77,2.41-1.05l.94-.34,3.42-1.24c2-.9,4.88-1.38,7.67-2.18,1.37-.38,2.77-.65,4.18-.81l3.68-.57c1.19-.21,2.4-.32,3.62-.33l3.64-.19c2.18-.26,5.09.09,7.99.19l2.17.1,2.07.33,3.68.56c1.2.12,2.39.36,3.55.71l3.51.91c2.15.41,4.83,1.55,7.56,2.51.68.25,1.37.49,2.03.75l1.88.92,3.3,1.64c.81.34,1.59.76,2.32,1.23l.85.52,3.1,1.88,1.51.91,1.57,1.18,3.42,2.56c2.31,1.76,4.33,3.88,6,5.29.64.6,1.25,1.24,1.82,1.91l.67.74,2.44,2.68c1.46,1.63,3.06,4.06,4.88,6.34,1.56,2.44,3.03,4.96,4.17,6.83l1.56,3.27,1.59,3.27,2.74,7.5c.67,2.82,1.49,5.61,1.95,7.75.32,2.15.54,3.59.54,3.59,0,0,.22,1.43.56,3.59l.41,8-.41,8c-.34,2.15-.56,3.59-.56,3.59,0,0-.21,1.43-.54,3.59-.44,2.13-1.26,4.92-1.95,7.75l-2.72,7.45-1.59,3.27-1.56,3.27c-1.14,1.85-2.62,4.36-4.17,6.83l-.24.32h1.85l-.41-.27s-.04-.06-.02-.1l.37-.62s.07-.03.1,0h0l1.19.78s.05.07.03.1l-.08.13h.65l.19.6c.85-1.35,1.52-2.5,1.52-2.5.26-.37.76-.47,1.14-.22l13.73,8.19c.41.27.53.83.25,1.24h0s-1.29,2.22-2.71,4.35l-3.06,4.05c-.27.4-.82.51-1.23.23h0l-6.34-4.94,1.32,4.23,3.45,2.84c.18.15.29.37.3.6h1.18v.79l1.05.87s.03.08,0,.12l-.62.69s-.08.03-.12,0l-.32-.27v2.18l.95-1.05c1.89-2.16,4.09-5.31,6.4-8.37,2.08-3.22,4.03-6.53,5.5-8.99l2.09-4.31,2.07-4.32c1.03-2.68,2.37-6.29,3.62-9.91.95-3.71,1.98-7.42,2.56-10.25l.73-4.73.71-4.74c.15-2.86.34-6.69.54-10.51-.2-3.81-.4-7.63-.52-10.49l-.03-.02ZM100,1.04l.94-.04s.08.02.08.06h0v1.44s-.04.08-.08.08l-.92.04s-.08-.03-.09-.07l-.03-1.43s.03-.08.08-.09h.02,0Zm-2.75.14l.93-.04s.08.02.09.07h0l.06,1.43s-.04.08-.08.08l-.92.04s-.08-.03-.09-.07l-.07-1.43s.04-.08.08-.08Zm-2.76.15l.49-.02h.49s.09.02.09.07l.1,1.42s-.04.08-.08.08l-.46.02h-.46s-.08-.03-.09-.07l-.11-1.42s0-.06.03-.08Zm-2.75.19l.93-.09s.09.02.09.07l.13,1.42s-.03.08-.08.08h0s-.92.07-.91.09c-.04,0-.08-.02-.09-.06h0l-.15-1.42s.04-.08.08-.08h0Zm-5.47.82l.93-.14s.09.02.1.06l.21,1.41s-.03.08-.07.09l-.91.14s-.08-.02-.09-.06l-.23-1.41s.02-.08.07-.09h0Zm-2.73.42l.93-.15s.08.02.09.06l.25,1.4s-.02.08-.07.09h0l-.91.14s-.09-.02-.1-.06l-.24-1.4s.01-.07.04-.08h.01Zm-2.71.54l.91-.23s.08,0,.09.04h0s.29,1.41.29,1.41c0,0-.03.08-.07.09l-.89.22s-.08-.01-.1-.05h0l-.31-1.39s.03-.09.07-.09h0Zm-2.68.68l.91-.23s.09,0,.1.04h0l.33,1.4s-.03.08-.07.09l-.89.23s-.09,0-.1-.04h0l-.34-1.38s0-.09.04-.1h.03-.01Zm-2.68.69l.91-.23s.09,0,.1.05l.37,1.38s-.02.08-.06.09l-.89.23s-.09,0-.1-.05l-.38-1.38s.02-.08.06-.09h-.01Zm-2.67.7l.91-.24s.09,0,.1.05l.4,1.37s-.02.08-.06.09l-.89.23s-.09,0-.1-.05l-.4-1.36s0-.08.04-.09Zm-2.61.9l.88-.32s.08,0,.1.03h0s.44,1.37.44,1.37c0,0-.01.08-.05.1l-.87.32s-.09,0-.11-.04l-.45-1.35s.02-.09.06-.1h0Zm-2.6.95l.88-.32s.09,0,.11.03h0l.49,1.34s-.01.09-.05.1l-.86.32s-.09,0-.11-.04l-.49-1.34s0-.09.04-.11h0v.02Zm-2.6.98l.44-.16.44-.16s.09,0,.11.04h0l.51,1.33s-.01.09-.05.1l-.43.16-.43.16s-.09,0-.11-.04l-.52-1.36s0-.08.05-.1v.02h-.01Zm-2.57,1.01s.85-.4.85-.38c.04-.02.09,0,.11.04h0l.55,1.31s0,.08-.05.1l-.84.37s-.09,0-.11-.03h0l-.57-1.31s-.02-.09.02-.12c0,0,0,0,.02-.01v.02h.02Zm-2.49,1.19l.84-.4s.09,0,.11.03l.59,1.3s0,.09-.05.11l-.83.4s-.09,0-.11-.03l-.6-1.29s-.03-.09,0-.12c0-.01.03-.02.04-.02v.02h0Zm6,18.69c.22.38.08.87-.3,1.09h-.01c-.12-.22-7.29,4.2-7.29,4.19-.4.21-.9.07-1.14-.32l-8.85-13.34c-.25-.41-.11-.94.3-1.19,0,0,.02-.01.04-.02l4.39-2.66c1.44-.92,2.94-1.73,4.5-2.44.44-.23.98-.08,1.23.36l7.15,14.31-.02.02Zm-8.49-17.49l.84-.41s.09,0,.11.03l.62,1.28s0,.09-.04.11l-.83.4s-.09,0-.11-.03h0l-.63-1.28s-.03-.07,0-.1c0-.01.02-.02.04-.02,0,0,0,.02,0,.02Zm-2.48,1.21l.84-.41s.09,0,.11.03h0l.66,1.26s0,.08-.04.1l-.83.4s-.09,0-.11-.03l-.67-1.25s-.03-.08,0-.11c0,0,.02-.02.03-.02v.02h.01Zm-2.41,1.35l.8-.49s.08-.03.11,0h0l.69,1.25s0,.08-.03.11l-.79.49s-.08.03-.11,0l-.7-1.24s-.04-.08,0-.12c0-.01.02-.02.03-.02v.02h.01Zm-2.36,1.43l.8-.49s.08-.03.11,0l.72,1.23s0,.09-.06.1h0l-.79.49s-.08.03-.11,0l-.74-1.22s-.04-.08,0-.11c.02-.02.04-.03.06-.03v.02h.01Zm-2.36,1.44l.8-.49s.08-.03.12,0l.76,1.21s0,.09-.03.11h0l-.79.49s-.08.03-.11,0l-.77-1.2s-.04-.07-.02-.11c0-.01.02-.02.04-.03,0,0,0,.02,0,.02Zm-2.34,1.46l.78-.49s.08-.03.11,0l.79,1.19s0,.09-.03.11h0s-.79.49-.77.49c-.03.03-.07.03-.1,0h0l-.8-1.18s-.04-.08-.02-.12c0-.01.02-.02.03-.03v.02h0Zm-2.22,1.64l.75-.56s.07-.03.1,0h0l.8,1.15s.03.08,0,.11l-.74.55s-.08.03-.11,0l-.83-1.16s-.02-.09,0-.12h0v.02h.02Zm-2.21,1.65l.75-.56s.08-.03.12,0l.85,1.14s.03.08,0,.11l-.78.54s-.08.03-.12,0l-.86-1.14s0-.09.02-.11v.02h.02Zm-2.21,1.66l.38-.28.38-.28s.08-.03.12,0l.88,1.12s.03.08,0,.11l-.37.28-.37.28s-.08.03-.11,0l-.89-1.11s-.06-.06-.05-.1c0-.02,0-.03.03-.04,0,0,0,.02,0,.02Zm-2.11,1.77l.69-.62s.08-.03.11,0h0l.91,1.09s.03.08,0,.11l-.68.61s-.08.03-.11,0h0l-.93-1.08s-.05-.08-.02-.11c0,0,0-.01,0-.02v.02h.02Zm-2.06,1.83l.69-.62s.08-.03.12,0l.94,1.07s.03.08,0,.12l-.68.61s-.08.03-.12,0l-.95-1.05s-.04-.08,0-.12h0Zm-2.04,1.86l.69-.63s.08-.03.12,0l.98,1.04s.03.08,0,.11l-.68.62s-.08.03-.11,0h0l-.98-1.03s-.05-.07-.02-.11h0Zm.95,2.66c.36-.35.93-.35,1.28,0l11.04,11.56c.31.3.32.8.02,1.12l-.02.02-.98.89-1.95,2.15-2.84,3.11c-.32.31-.83.33-1.17.04l-12.32-10.14c-.36-.3-.4-.84-.1-1.2.02-.02.03-.04.05-.06l3.42-3.8,2.37-2.6,1.19-1.09h.01Zm-10.98,66.16l1.43.08s.07.03.07.07l-.03.73s-.04.06-.08.06l-1.43-.07s-.07-.03-.07-.07l.04-.74s.04-.06.07-.06Zm0-1.38l.03-.74s.04-.06.08-.06h0l1.42.12s.07.03.07.07l-.04.74s-.04.06-.08.06h0l-1.42-.11s-.07-.03-.07-.07v-.02h.01Zm-.13,3.55l1.43.04s.07.03.07.07l-.03.73s-.04.07-.08.07l-1.43-.03s-.07-.03-.07-.07l.04-.74s.03-.07.07-.07Zm-.12,2.18h1.43s.07.03.07.06h0v.72s-.03.07-.07.07h-1.43s-.07-.03-.08-.07v-.74s.06-.05.09-.04h-.01Zm.07,2.18l1.43-.03s.08.02.08.06l.04.72s-.03.07-.07.07l-1.43.04s-.08-.03-.08-.07h0l-.04-.74s.04-.06.08-.06h-.01Zm.11,2.18l1.43-.07s.08.03.08.07h0l.03.72s-.03.07-.07.07l-1.43.08s-.08-.03-.08-.07h0l-.03-.74s.03-.07.07-.07h.01-.01Zm.11,2.18l1.42-.11s.07.02.08.06h0l.03.73s-.03.07-.07.07l-1.42.12s-.07-.02-.08-.06h0l-.02-.76s.04-.06.07-.06h-.01Zm.11,2.18l1.42-.15s.08.02.08.06l.11.72s-.03.07-.06.07h0l-1.42.16s-.08-.02-.09-.06l-.12-.73s.02-.07.06-.08h.03-.01Zm1.5-16.48s-.05.06-.09.06l-1.42-.15s-.07-.03-.07-.07h0l.12-.73s.05-.06.09-.06l1.42.16s.07.03.06.07h0l-.11.71h0Zm-2.03-3.9c-.16,1.04-.32,2.08-.44,2.86-.08.43-.14.87-.16,1.3-.04.43-.42.74-.85.7h-.04l-15.93-1.4c-.5-.07-.85-.52-.81-1.02.04-.53.1-1.06.2-1.59.15-.95.34-2.22.52-3.48l.79-5.07c.09-.49.56-.82,1.05-.74l15.62,3.33c.43.07.73.48.66.91h0s-.27,2.09-.59,4.17h-.01v.03Zm-17.57,6.11l15.95.98c.45,0,.82.37.82.82l-.22,4.21.22,4.21c0,.45-.37.82-.82.82l-15.95.98c-.49,0-.89-.38-.9-.87h0s-.25-5.12-.25-5.12l.25-5.11c0-.49.38-.9.87-.91h.06-.03Zm.14,14.64l15.93-1.4c.43-.06.82.24.88.66v.04c.02.44.08.87.16,1.3l.44,2.86.62,4.16c.08.44-.21.85-.65.93h0l-15.62,3.33c-.49.08-.96-.24-1.05-.74l-.79-5.07c-.19-1.27-.38-2.53-.53-3.48-.09-.52-.16-1.05-.2-1.59-.05-.5.32-.95.82-1.02h-.03l.02.02Zm2.41,14.46l15.56-3.77c.43-.12.89.12,1.02.55l1.04,4.08c.05.21.12.42.2.62l.49,1.36.73,1.95c.13.43-.11.89-.54,1.03l-14.96,5.66c-.47.14-.97-.13-1.11-.6h0l-.88-2.41-.6-1.65c-.1-.25-.18-.5-.25-.76l-1.29-4.94c-.15-.46.11-.96.57-1.11h.03-.02.01Zm15.94-11.86l-.11-.73s.03-.08.07-.08h0l1.41-.19s.07.02.08.06l.11.73s-.02.07-.06.08l-1.41.2s-.08-.02-.09-.06v-.02h0Zm1.46-21.55s-.05.06-.08.05l-1.43-.18s-.07-.04-.07-.08h0l.11-.73s.05-.06.09-.05l1.41.2s.07.04.06.08l-.1.71h.01Zm-1.84-9.03l-15.55-3.78c-.47-.13-.74-.62-.61-1.09v-.02l1.29-4.96c.07-.26.15-.51.25-.76l.6-1.65.88-2.41c.15-.47.64-.73,1.11-.58h.01l14.96,5.64c.43.14.67.59.54,1.02l-.73,1.95-.49,1.36c-.08.2-.15.41-.2.62l-1.04,4.07c-.12.45-.58.71-1.02.59h-.01.01Zm-11.08-17.73c-.46-.21-.68-.74-.49-1.21,0,0,.24-.59.67-1.46l1.52-3.18,1.53-3.17c.41-.87.73-1.42.73-1.42.24-.44.78-.61,1.23-.39l13.94,7.81c.39.19.55.66.36,1.04,0,0-.01.02-.02.03-.22.38-.41.77-.59,1.17l-1.25,2.61-1.26,2.6c-.34.73-.54,1.22-.54,1.22-.17.4-.63.58-1.02.41-.01,0-.02,0-.03-.01l-14.79-6.06h.01Zm6.58-13.08c-.41-.27-.53-.83-.25-1.24h0l1.33-2.19.92-1.5c.13-.23.28-.45.45-.66l3.06-4.11c.27-.4.82-.51,1.22-.24,0,0,.01,0,.02,0l12.63,9.81c.37.26.46.77.21,1.15l-2.53,3.37c-.07-.05-2.21,3.58-2.21,3.58-.26.37-.76.47-1.14.22l-13.72-8.19h0Zm12.31-21.58l.68-.64s.08-.03.11,0h0l.98,1.02s.03.07,0,.1h0s-.69.61-.67.63c-.03.03-.08.03-.11,0h0l-1.01-1.01s0-.08.02-.11h0Zm-1.86,2.04l.63-.69s.08-.03.11,0h0l1.02.98s.03.08,0,.12l-.62.68s-.08.03-.11,0h0l-1.03-.98s-.02-.08,0-.11Zm-1.87,2.04l.63-.69s.08-.03.12,0l1.05.98s.03.08,0,.11l-.62.68s-.08.03-.11,0l-1.06-.95s-.04-.07-.02-.11c0,0,.01,0,.02-.02h0Zm-1.85,2.05l.63-.69s.08-.03.11,0l1.11.91s.03.08,0,.11h0l-.63.67s-.08.03-.11,0l-1.09-.92s-.03-.06,0-.09h-.02Zm-1.19,1.38s.07-.03.1,0h0l1.1.9s.03.08,0,.12l-.56.74s-.08.03-.11,0l-1.11-.89s-.03-.08,0-.11h0l.57-.75h.01Zm-1.66,2.2s.08-.03.11,0l1.14.84s.03.08,0,.11l-.56.74s-.08.03-.11,0l-1.14-.86s-.03-.08,0-.11l.56-.72Zm-1.64,2.22s.08-.03.11,0l1.15.84s.03.08,0,.11l-.55.74s-.08.03-.11,0l-1.16-.83s-.03-.08,0-.11l.55-.75h.01Zm-1.93,2.59l.28-.38s.08-.05.12-.03l1.17.81s.03.08,0,.11l-.27.37-.27.37s-.07.04-.11.02l-1.18-.8s-.03-.08,0-.11h0l.27-.38v.02Zm-1.24,1.95s.07-.05.1-.04h0l1.2.78s.03.08,0,.11l-.49.79s-.07.05-.11.03l-1.17-.76s-.03-.08,0-.11h0l.46-.8h.01Zm-1.44,2.36s.07-.06.11-.04h0l1.22.75s.03.08,0,.12l-.49.79s-.07.06-.11.04h0l-1.22-.73s-.04-.08,0-.11h0l.49-.8v-.02Zm-1.43,2.36s.07-.06.11-.04h0l1.23.71s.03.08,0,.11h0l-.49.79s-.07.05-.11.03l-1.24-.7s-.03-.08,0-.11l.49-.81v.02Zm-1.41,2.38s.06-.06.09-.04h0l1.25.68s.05.07.03.11l-.41.83s-.06.06-.1.04l-1.25-.69s-.05-.07-.03-.11l.4-.82h.02Zm-1.21,2.49s.06-.06.1-.04h0l1.28.64s.05.07.03.11l-.4.83s-.06.06-.1.04l-1.28-.63s-.05-.07-.03-.11l.4-.84Zm-1.2,2.49s.07-.06.11-.04l1.3.59s.05.07.03.11l-.4.83s-.06.06-.1.04h0l-1.29-.6s-.05-.07-.03-.11h0l.39-.82h-.01Zm-1.2,2.49s.06-.06.11-.05h0l1.32.54s.05.07.04.1h0l-.4.83s-.07.06-.11.04l-1.31-.56s-.05-.07-.04-.1h0l.39-.82v.02Zm-1.07,2.54s.06-.06.1-.05l1.32.54s.06.07.04.11l-.32.87s-.06.06-.1.05l-1.33-.52s-.06-.06-.04-.1h0l.33-.88v-.02Zm-.98,2.59s.06-.06.1-.05l1.33.49s.05.06.04.1l-.32.87s-.06.06-.1.05l-1.34-.49s-.06-.07-.04-.11l.33-.87h0Zm-.95,2.6s.06-.07.1-.06h0l1.35.49s.06.07.04.11l-.32.86s-.06.07-.1.06l-1.35-.45s-.06-.06-.04-.1h0l.32-.9h0Zm-1.04,3.01s.13-.45.14-.45c.01-.04.06-.07.1-.06l1.36.43s.06.06.04.1h0l-.13.44-.12.44s-.05.07-.09.06l-1.36-.41s-.07-.06-.05-.1l.12-.45h0Zm-.58,2.22s.05-.07.09-.06h0l1.37.39s.06.06.05.1l-.23.89s-.05.07-.09.06l-1.38-.38s-.06-.06-.05-.11h0l.23-.9h.01Zm-.69,2.67s.05-.08.1-.07h0l1.38.35s.06.06.05.1l-.23.89s-.05.07-.1.07l-1.39-.34s-.07-.06-.05-.1h0l.23-.9h0Zm-.68,2.68s.05-.08.1-.07h0l1.39.31s.06.06.05.1l-.22.89s-.05.07-.09.06l-1.39-.3s-.07-.05-.05-.1h0l.22-.9h-.01Zm-.61,2.69s.04-.07.08-.06h0l1.4.27s.07.05.06.09l-.14.91s-.04.07-.09.07h0l-1.4-.26s-.07-.05-.06-.09h0l.14-.92h0Zm-.43,2.73s.04-.08.09-.07l1.4.25s.07.05.06.1l-.14.91s-.04.08-.09.07l-1.41-.22s-.07-.05-.06-.1c0,0,.15-.94.15-.94Zm-.41,2.73s.04-.08.09-.08h0l1.41.2s.07.05.06.1l-.15.93s-.04.08-.09.07l-1.38-.18s-.07-.05-.07-.09h0l.12-.94h.01Zm-.41,2.73s.04-.08.09-.08h0l1.42.16s.07.05.06.09h0l-.14.91s-.04.07-.09.07l-1.42-.15s-.07-.04-.06-.08h0l.14-.93h0Zm-.25,2.74s.03-.08.08-.08h0l1.42.12s.07.05.07.09l-.05.92s-.03.08-.08.08h0l-1.42-.11s-.07-.04-.07-.09h0l.05-.94h0Zm-.15,2.75s.03-.08.08-.08h0l1.42.08s.08.04.07.09l-.05.92s-.03.08-.08.08l-1.43-.07s-.07-.05-.07-.09l.05-.94h.01Zm-.14,2.76s.03-.08.08-.08l1.43.04s.07.05.07.09l-.04.92s-.04.08-.08.08l-1.43-.03s-.08-.04-.07-.08h0l.05-.93h0Zm-.13,3.69v-.98s.03-.09.08-.09h1.43s.07.04.07.09h0v.92s-.02.08-.06.08h-1.43s-.06.01-.08,0v-.02h0Zm.13,2.75l-.04-.93s.02-.08.06-.09h.02l1.43-.03s.08.04.08.08l.04.92s-.02.08-.07.09h0l-1.43.04s-.06-.02-.07-.04v-.03h-.02Zm.14,2.75l-.05-.93s.02-.08.06-.09h0l1.43-.07s.08.04.08.08l.05.91s-.03.09-.07.09l-1.42.08s-.06-.02-.07-.05v-.02h0Zm.15,2.76l-.05-.94s.02-.09.07-.09l1.42-.11s.08.04.08.08l.07.95s-.03.08-.07.09l-1.42.12s-.08-.02-.09-.06v-.04h0Zm.25,2.74l-.13-.9s.02-.08.06-.09h0l1.42-.15s.08.03.09.07l.14.91s-.02.08-.06.09h0l-1.42.16s-.08-.02-.09-.07v-.04.02Zm.49,2.81s-.09-.03-.09-.08h0l-.14-.92s.02-.09.06-.1l1.41-.19s.08.03.09.07l.14.91s-.02.08-.06.09l-1.41.21h0Zm.33,2.66l-.14-.92s.02-.09.06-.1l1.41-.22s.08.03.09.07l.14.91s-.02.09-.06.1l-1.41.24s-.04-.02-.05-.04l-.03-.03h0Zm.43,2.73l-.15-.93s0-.09.06-.1h0l1.4-.26s.08.02.09.07h0l.14.91s-.02.09-.06.1l-1.4.27s-.06-.01-.07-.04v-.02h0Zm.61,2.69l-.23-.91s0-.08.05-.1h0l1.4-.3s.08.03.09.07l.23.89s-.01.08-.05.1h0l-1.39.31s-.07-.01-.09-.04v-.02h0Zm.78,2.74s-.09-.02-.09-.07l-.22-.88s0-.08.05-.1h0l1.39-.34s.08.02.09.06l.23.9s-.01.09-.05.1l-1.39.33h0Zm.69,2.67s-.08-.02-.09-.06l-.23-.9s0-.09.04-.1h0l1.38-.38s.08.02.09.06l.23.89s0,.08-.05.1l-1.37.39Zm.73,2.66s-.09,0-.1-.06h0l-.14-.45-.12-.45s0-.09.05-.11l1.37-.41s.08.02.09.06l.12.45s.12.44.13.44c.02.04,0,.09-.04.1h0l-1.35.42h-.01Zm.85,2.58l-.32-.88s0-.09.03-.11h0l1.36-.48s.09,0,.1.06h0l.31.86s0,.09-.04.1h0l-1.35.49s-.09,0-.1-.05h0Zm1.05,2.65s-.09,0-.1-.06h0l-.32-.87s0-.09.04-.11h0l1.34-.49s.09,0,.1.06h0l.32.86s0,.09-.04.11l-1.34.5Zm.85,2.54l-.33-.88s0-.09.04-.11l1.33-.52s.09,0,.1.05l.32.86s0,.09-.04.11l-1.32.54s-.08-.02-.09-.06h-.01Zm1.17,2.59s-.09,0-.11-.04l-.4-.85s0-.08.03-.1h0l1.31-.56s.09,0,.11.04l.4.83s0,.09-.03.11h0l-1.3.57h-.01Zm1.09,2.44l-.4-.85s0-.09.03-.11l1.29-.6s.09,0,.11.04l.4.83s0,.08-.03.11l-1.31.61s-.06,0-.08-.03h0Zm1.2,2.49l-.41-.84s0-.09.03-.11l1.28-.63s.09,0,.11.04l.4.83s0,.09-.03.11l-1.27.64s-.09,0-.1-.04v-.02.02h0Zm1.21,2.49l-.41-.84s0-.09.03-.11l1.26-.66s.09,0,.11.03h0l.41.83s0,.09-.03.11l-1.24.67s-.08,0-.1-.02c0,0,0-.02-.01-.02h-.02Zm1.51,2.41s-.09,0-.11-.03h0l-.49-.81s-.03-.08,0-.11h0l1.24-.7s.08,0,.11.03l.49.79s.03.08,0,.11l-1.24.72Zm1.32,2.33l-.49-.8s-.03-.08,0-.11l1.22-.73s.09,0,.11.03h0l.49.79s.03.08,0,.11l-1.22.75s-.09,0-.1-.04h0s-.01,0-.01,0Zm8.47,9.54s.08-.03.11,0l.56.74s.03.08,0,.11l-1.12.91s-.07.03-.1,0h0l-.57-.75s-.03-.08,0-.12l1.13-.89h0Zm-1.52-2.15l.55.73s.03.08,0,.12l-1.13.87s-.08.03-.11,0h0l-.56-.75s-.03-.08,0-.12l1.14-.86s.08-.03.11,0h0Zm-1.74-2.21s.09,0,.11.02l.55.72s.03.08,0,.11h0l-1.16.86s-.09,0-.11-.02l-.56-.75s-.03-.08,0-.11h0l1.17-.83Zm-1.62-2.19s.09,0,.11.03l.27.37.27.37s.03.08,0,.11h0l-1.17.81s-.08.03-.11,0l-.28-.38-.28-.38s-.03-.08,0-.12l1.18-.82h.01Zm-1.43-2.33s.09,0,.11.03l.49.79s.03.08,0,.11l-1.2.78s-.09,0-.11-.03h0l-.49-.8s-.03-.08,0-.12l1.2-.76Zm12.77-13.54l-13.94,7.81c-.45.22-.99.05-1.23-.39,0,0-.32-.55-.73-1.43l-1.53-3.17-1.53-3.18c-.42-.86-.66-1.46-.66-1.46-.19-.47.03-1,.49-1.21l14.8-6.05c.39-.19.85-.03,1.04.36,0,0,.01.03.02.04,0,0,.2.49.56,1.19l1.26,2.6,1.25,2.61c.18.4.38.79.6,1.17.21.38.08.86-.3,1.07-.02,0-.04.02-.06.03h-.04Zm5.33,2.1l.38.62s0,.08-.03.1l-1.2.78s-.07.03-.1,0l-.38-.63s0-.08.03-.1l1.2-.77s.08-.03.1,0h0s0,0,0,0Zm-1.2-1.85s.07-.02.1,0l.38.62s0,.08-.03.1l-1.22.75s-.07.03-.1,0l-.39-.63s0-.07.03-.09l1.23-.74h0Zm-1.02-1.81l.38.62s0,.07-.03.09h0l-1.23.71s-.07.03-.1,0l-.39-.63s0-.08.03-.09l1.24-.7s.07-.02.1,0h0Zm-1.13-1.89s.07,0,.09.02l.31.65s0,.08-.04.1l-1.25.68s-.07.02-.1,0l-.32-.67s0-.08.04-.1l1.26-.69h0Zm-.82-1.9l.31.65s0,.08-.04.09l-1.27.64s-.08,0-.1-.02l-.32-.66s0-.08.04-.1l1.28-.63s.08,0,.1.03h0Zm-1.02-1.95s.08,0,.1.03l.32.65s0,.08-.04.09l-1.29.61s-.08,0-.1-.03l-.32-.66s0-.08.04-.09l1.3-.6h-.01Zm-.84-1.89l.32.65s0,.07-.04.09l-1.3.57s-.08,0-.1-.03l-.33-.66s0-.07.04-.09h0l1.31-.56s.07,0,.09.02h.01Zm-.75-2l.24.68s-.01.08-.05.09l-1.32.54s-.07,0-.09-.03h0l-.25-.7s.01-.08.05-.09l1.33-.52s.07,0,.09.03h0Zm-.82-2.04s.08,0,.09.04l.25.68s0,.08-.04.09l-1.33.49s-.08,0-.1-.04h0l-.25-.69s.01-.08.05-.09l1.34-.47h0Zm-.64-1.95l.25.68s-.01.08-.05.09l-1.35.46s-.08,0-.1-.04l-.25-.69s0-.07.04-.09h0l1.35-.45s.08,0,.1.02h0v.02Zm-.68-2.02l.09.35c.03.12.06.23.1.35.01.03,0,.07-.04.08h0l-1.36.43s-.08,0-.1-.04c-.04-.12-.08-.24-.11-.36l-.09-.36s.02-.08.06-.09l1.36-.41s.07,0,.08.03v.02h.01Zm-.61-2.12s.07,0,.09.04l.18.7s-.02.08-.05.09l-1.37.39s-.07,0-.09-.04l-.18-.71s.02-.08.06-.09h0l1.37-.38h-.01Zm-.44-2.03l.18.7s-.02.08-.06.08l-1.4.32s-.08,0-.09-.05h0l-.19-.72s.02-.07.06-.08h0l1.38-.34s.08-.01.1.02c0,0,0,.02.01.03v.04Zm-.54-2.06l.19.7s-.02.07-.06.08h0l-1.39.31s-.08,0-.09-.05h0l-.19-.72s.02-.07.06-.08h0l1.39-.3s.07,0,.09.03v.02h0Zm-.49-2.15s.07.01.08.05h0l.11.72s-.03.07-.06.08l-1.4.27s-.08-.01-.09-.05l-.11-.73s.03-.08.07-.08c0,0,1.4-.26,1.4-.26Zm-.32-2.12s.07.02.08.05l.11.71s-.02.07-.06.08l-1.41.24s-.07-.01-.08-.05h0l-.11-.73s.03-.07.07-.08l1.41-.22h-.01Zm.07-24.81s-.05.06-.08.05l-1.38-.22s-.07-.04-.07-.08l.11-.73s.05-.06.08-.05l1.41.24s.07.04.06.08c0,0-.13.71-.13.71Zm.32-2.11s-.05.06-.08.05l-1.4-.26s-.07-.04-.07-.08h0l.11-.73s.05-.06.08-.05l1.4.27s.07.04.06.08c0,0-.1.72-.1.72Zm.4-2.1s-.05.06-.09.05l-1.4-.3s-.06-.04-.06-.08h0l.19-.71s.05-.06.09-.05l1.39.32s.06.04.06.08h0l-.19.69h.01Zm.54-2.07s-.05.06-.09.05l-1.38-.34s-.07-.05-.06-.08h0l.19-.71s.05-.06.09-.05l1.38.35s.07.05.06.08h0l-.19.7Zm.53-2.07s-.05.06-.09.04h0l-1.38-.38s-.06-.05-.06-.09l.18-.72s.06-.06.09-.04l1.37.39s.06.05.05.08l-.18.71h.02Zm.61-2.44l-.09.35s-.05.05-.09.04l-1.36-.41s-.06-.05-.06-.09l.09-.36c.03-.12.06-.24.11-.36.02-.04.06-.06.1-.04l1.36.43s.06.05.05.08h0c-.03.12-.05.24-.07.37l-.04-.02h0Zm.6-1.67s-.06.05-.09.04l-1.35-.45s-.06-.05-.05-.09l.26-.69s.06-.05.1-.04l1.35.49s.06.05.05.08h0l-.26.65h-.01Zm.74-2s-.06.05-.09.04l-1.34-.49s-.06-.05-.05-.09h0l.25-.7s.06-.05.09-.03l1.33.49s.06.05.05.09l-.25.7h.01Zm.73-2.01s-.06.05-.09.04h0l-1.32-.52s-.06-.05-.05-.09h0l.25-.69s.06-.05.09-.03l1.32.54s.06.05.05.09l-.24.68v-.02Zm.75-2s-.06.05-.1.03l-1.29-.56s-.06-.05-.04-.09h0l.32-.66s.07-.05.1-.03l1.3.57s.05.05.04.09l-.33.65Zm.94-1.92s-.06.05-.1.03l-1.28-.59s-.06-.06-.04-.09l.32-.66s.06-.05.1-.03l1.29.61s.05.06.04.09l-.33.64Zm.93-1.92s-.06.05-.1.03l-1.26-.61s-.05-.06-.04-.1l.32-.67s.06-.05.1-.03l1.27.64s.05.06.04.09l-.33.64h0Zm.92-1.95s-.06.04-.09.02l-1.24-.61s-.05-.06-.04-.1l.32-.67s.07-.03.1,0h0l1.25.68s.05.06.04.09l-.33.58h0Zm1.03-1.87s-.07.03-.1,0l-1.24-.7s-.05-.06-.03-.1l.39-.63s.07-.03.1,0l1.23.71s.05.06.03.09h0l-.38.62h0Zm1.12-1.83s-.07.03-.1,0l-1.23-.73s-.05-.06-.03-.1h0l.38-.63s.07-.03.1,0l1.22.75s.05.06.03.1l-.37.62h0Zm1.11-1.83s-.07.02-.1,0l-1.2-.77s-.05-.07-.03-.1l.38-.63s.07-.03.1,0l1.2.78s.05.06.03.1c0,0-.38.62-.38.62Zm1.32-2.12l-.22.29s-.07.03-.1,0l-1.18-.8s-.05-.06-.03-.09h0l.22-.3.22-.3s.08-.03.11,0l1.17.81s.02.07,0,.1l-.2.3h0Zm1.07-1.42s-.07.03-.1,0l-1.16-.83s-.03-.07,0-.1l.44-.59s.08-.03.11,0l1.15.84s.03.07,0,.1h0l-.43.58h-.01Zm1.28-1.71s-.07.03-.1,0l-1.14-.86s-.03-.07,0-.1l.45-.56s.07-.03.1,0h0l1.13.87s.02.07,0,.1l-.44.56h0Zm1.28-1.72s-.07.03-.1,0h0l-1.11-.89s-.03-.07,0-.1l.44-.6s.07-.03.1,0h0l1.1.9s.03.07,0,.1l-.43.58h0Zm1.36-1.65s-.07.03-.1,0l-1.09-.92s-.03-.07,0-.1l.49-.55s.08-.03.11,0l1.07.97s.03.07,0,.1h0s-.48.5-.48.5Zm1.46-1.58s-.07.03-.1,0h0l-1.06-.95s-.03-.07,0-.1h0l.49-.55s.07-.03.1,0l1.05.98s.03.07,0,.1l-.48.52Zm1.45-1.56s-.07.03-.1,0h0l-1.04-.98s-.03-.07,0-.1l.49-.55s.07-.03.1,0l1.02.98s.03.07,0,.1l-.48.55h0Zm1.43-1.59s-.07.03-.1,0h0l-1.01-1.01s-.03-.07,0-.1l.55-.49s.07-.03.1,0l.98,1.02s.03.07,0,.1h0s-.55.47-.54.48h.02Zm1.58-1.44s-.07.03-.1,0l-.98-1.03s-.03-.07,0-.1h0l.55-.49s.08-.03.11,0l.98,1.04s.03.07,0,.1h0l-.55.48h-.01Zm2.12-1.92l-.54.49s-.07.03-.1,0l-.98-1.06s-.03-.07,0-.1l.55-.49s.07-.03.1,0l.94,1.07s.03.06,0,.09h.03Zm1.58-1.46l-.53.49s-.07.03-.1,0h0l-.92-1.08s-.03-.08,0-.11l.55-.49s.07-.03.1,0h0l.91,1.09s.02.08,0,.1c0,0,0,0-.02,0l.02-.02h-.01Zm1.69-1.32l-.29.21-.29.21s-.07.03-.1,0l-.89-1.11s-.02-.07,0-.1l.3-.22.3-.22s.08-.03.11,0l.88,1.12s.03.07,0,.1c0,0-.02,0-.03.02l.02-.02h-.01Zm1.72-1.28l-.58.43s-.07.03-.1,0l-.86-1.13s-.03-.07,0-.1l.59-.44s.07-.03.1,0l.85,1.14s.02.08,0,.11h0l.02-.02h-.02Zm-.26-3.06l-3.37,2.52-.53.4c-.4.27-.77.58-1.11.92l-1.55,1.42c-.35.28-.86.23-1.15-.12h0l-10.74-11.86c-.32-.38-.26-.95.12-1.27l1.9-1.72c.42-.41.87-.78,1.35-1.13l.64-.49,4.1-3.07c.37-.31.92-.25,1.22.11,0,0,0,.02.02.03l9.19,13.08c.29.36.24.89-.12,1.19l.02-.02h0Zm1.95,1.78l-.58.43s-.07.02-.1,0l-.83-1.16s-.03-.07,0-.1l.6-.45s.07-.02.1,0l.82,1.17s.05.06.03.1c0,0,0,.02-.03.03v-.02h0Zm1.73-1.24s-.62.38-.61.4c-.02.03-.06.03-.09,0h0l-.8-1.18s-.03-.07,0-.1l.62-.4s.08,0,.1.03l.79,1.19s.02.06,0,.08h0v-.02Zm1.83-1.1l-.62.38s-.08,0-.1-.03l-.77-1.2s-.03-.07,0-.1l.63-.38s.08,0,.1.03l.76,1.21s.04.06.02.09c0,0,0,0-.02.02h0v-.02Zm1.83-1.11l-.62.38s-.07,0-.09-.02h0l-.74-1.22s-.03-.07,0-.1l.63-.39s.08,0,.1.03l.72,1.23s.04.07.02.1c0,0,0,0,0,.02h0v-.03Zm1.83-1.12l-.61.38s-.07,0-.09-.03h0l-.7-1.24s-.02-.07,0-.1l.63-.39s.08,0,.1.03l.69,1.24s.03.08,0,.11h-.02Zm1.9-.98l-.65.31s-.08,0-.09-.04l-.66-1.25s-.03-.07,0-.1h0l.67-.32s.08,0,.09.04l.65,1.26s.02.06,0,.09h0Zm1.93-.92l-.65.31s-.08,0-.09-.04l-.63-1.27s-.01-.07.02-.09h0l.67-.32s.08,0,.09.04l.62,1.28s.01.08-.02.1h-.01Zm1.92-.93l-.65.32s-.08,0-.09-.04l-.61-1.28s0-.08.03-.1h0l.66-.32s.08,0,.1.04h0l.59,1.3s.01.08-.02.1h0v-.02Zm1.95-.91l-.66.29s-.07,0-.09-.04l-.61-1.3s0-.08.03-.1c0,0,.66-.32.67-.3.04,0,.08.01.09.05l.55,1.31s.01.07-.01.09h.03Zm2.01-.73l-.34.12-.34.12s-.07-.01-.09-.05l-.53-1.32s0-.07.03-.09h0l.35-.13.35-.13s.08.01.09.05l.51,1.33s0,.08-.03.1h-.02.02Zm2.01-.73l-.68.25s-.08-.01-.09-.05l-.49-1.34s0-.08.04-.1h0l.69-.25s.08.01.09.05l.49,1.34s0,.08-.03.1h-.02Zm-3.3-1.57l-1.98.72-1.89.92c-.41.17-.88-.01-1.05-.42v-.02l-6.76-14.49c-.19-.46.03-.99.49-1.19l2.3-1.1,2.4-.89,4.82-1.76c.44-.19.95.02,1.13.46,0,.01,0,.02.01.03l4.91,15.21c.16.43-.04.9-.46,1.08l-3.92,1.44h0Zm5.31.83l-.68.25s-.07,0-.09-.04h0l-.45-1.35s0-.08.04-.1l.7-.26s.07.01.08.05h0l.44,1.35s0,.08-.03.1h-.02.01,0Zm2.04-.63l-.7.18s-.08-.02-.09-.05l-.42-1.36s0-.07.04-.09h0l.72-.18s.08.02.09.06l.4,1.37s0,.07-.03.09h-.02v-.02Zm2.07-.53l-.7.18s-.08-.02-.08-.06l-.38-1.37s0-.08.04-.09l.72-.19s.08.02.09.06h0l.37,1.38s0,.07-.03.09h-.03Zm2.07-.53l-.7.18s-.08-.02-.08-.06l-.34-1.38s0-.08.05-.09h0l.71-.19s.08.02.08.06l.33,1.39s0,.08-.04.1h-.02,0Zm2.07-.53l-.7.19s-.07-.02-.08-.06h0l-.32-1.4s.01-.08.05-.09l.71-.19s.07.01.08.05h0l.29,1.4s0,.08-.03.1Zm2.11-.34l-.72.11s-.07-.02-.08-.06l-.27-1.4s0-.07.04-.09h0l.73-.11s.07.02.08.06l.25,1.4s0,.07-.05.09h-.02.04Zm.05-2.64l-1.3.2c-.96.13-1.9.33-2.82.61l-4.07,1.05c-.44.08-.87-.2-.98-.63l-4.5-15.34c-.11-.47.17-.94.64-1.05h.03l4.96-1.27c1.12-.33,2.27-.58,3.43-.75l1.58-.24c.49-.1.96.22,1.06.7l2.58,15.77c.09.43-.18.86-.62.96h-.01.02Zm.54-19.1l-.19-1.41s.03-.09.08-.09h0l.92-.14s.09.02.1.06l.17,1.42s-.03.08-.08.09l-.91.14s-.09,0-.1-.05h0s.01,0,.01,0h0Zm1.52,21.43l-.72.11s-.07-.02-.08-.06l-.23-1.41s.01-.08.05-.09l.73-.11s.07.03.08.07l.21,1.41s-.02.08-.06.09h-.01.03Zm2.11-.33l-.71.11s-.07-.02-.08-.06l-.19-1.41s.02-.08.06-.09l.73-.11s.08.03.08.07h0l.18,1.42s-.02.07-.05.08h-.02Zm2.1-.28c-.24,0-.48.03-.72.07-.04,0-.07-.03-.07-.06h0l-.15-1.42s.02-.08.06-.09c.24-.04.49-.07.73-.07.04,0,.08.03.08.07l.14,1.42s-.01.07-.05.08h-.02Zm2.14-.1h-.72s-.07-.03-.07-.07l-.11-1.42s.02-.07.06-.08h.74s.07.03.07.07l.1,1.42s-.03.07-.07.07h0Zm2.14-.11l-.72.04s-.07-.03-.07-.07l-.07-1.43s.02-.07.06-.08l.74-.04s.07.03.07.07l.06,1.43s-.03.07-.07.07h0Zm2.14-.11l-.73.04s-.07-.03-.07-.07h0l-.04-1.43s.03-.08.07-.08l.74-.04s.07.03.07.07h0v1.43s-.02.06-.05.07h.01Zm-.63-2.58l-4.21.21-2.1.1-2.08.31c-.44.04-.83-.28-.88-.72v-.02l-2.15-15.84c-.03-.49.33-.92.82-.98l2.54-.36,2.55-.14,5.11-.26c.47-.05.89.29.94.77v.04l.21,15.98c.02.45-.32.84-.77.89h0l.02.02Zm103.15,76.49s.08.04.08.08l.04.93s-.02.08-.07.09h0l-1.43.05s-.08-.04-.08-.08l-.04-.92s.03-.08.07-.09c0,0,1.43-.06,1.43-.06Zm-.06-2.67l.05.93s-.02.08-.07.09h0l-1.42.09s-.08-.03-.08-.08h0l-.05-.92s.03-.08.07-.09l1.42-.1s.08.03.08.08h0Zm-.15-2.76l.05.94s-.02.08-.07.09h0l-1.42.13s-.08-.03-.08-.07l-.05-.92s.03-.08.07-.09l1.42-.14s.08.02.08.06h0s0,0,0,0Zm-.49-2.81s.09.03.09.08h0l.14.93s-.02.08-.06.09l-1.42.17s-.08-.03-.09-.08l-.14-.91s.02-.08.06-.09l1.42-.18h0Zm-.32-2.66l.07.49.07.46s-.02.09-.06.1l-1.41.2s-.08-.03-.09-.08l-.07-.46-.07-.45s.02-.08.06-.09l1.41-.22s.09,0,.11.05h-.02Zm-28.62-24.5l13.94-7.81c.45-.22.99-.05,1.23.39.14.22.27.46.38.7l.77,1.59,1.12,2.31,1.11,2.31.76,1.59c.12.24.23.48.32.73.19.47-.03,1-.49,1.21l-14.76,6.04c-.39.19-.85.03-1.04-.36,0-.01,0-.03-.02-.04-.08-.21-.17-.41-.27-.6l-.63-1.3-.91-1.89-.92-1.89-.62-1.3c-.09-.2-.19-.4-.31-.58-.21-.38-.07-.85.31-1.06,0,0,.03,0,.04-.02h-.02v-.02Zm-1.16-1.89c-.38.25-.88.15-1.14-.22,0,0-1.05-1.82-2.21-3.58l-2.53-3.37c-.25-.38-.15-.89.21-1.15l12.63-9.81c.4-.28.95-.19,1.23.21,0,0,0,0,0,.02l3.06,4.11c1.42,2.13,2.71,4.34,2.71,4.35.27.41.16.96-.25,1.24h0l-13.73,8.19h0Zm6.28,13.03l15-5.64c.47-.15.97.1,1.13.57h0l1.73,4.83,1.28,4.96c.15.47-.11.96-.58,1.11h-.02l-15.54,3.75c-.43.13-.89-.12-1.02-.55l-1.03-4.08-1.43-3.95c-.13-.42.1-.87.52-1.02h-.02l-.02.02Zm3.12,23.91l-1.42.09s-.07-.02-.08-.06l-.03-.73s.03-.07.06-.07h0l1.42-.1s.07.02.08.06h0l.03.74s0,.08-.05.09h-.02v-.02Zm.15,1.37l.04.74s-.03.07-.07.07l-1.43.05s-.07-.02-.08-.06l-.04-.73s.03-.07.07-.07l1.43-.06s.08.02.09.06h0s0,.01,0,.01h0Zm-.25-3.55l-1.42.13s-.07-.02-.08-.06h0l-.03-.73s.03-.07.07-.07l1.42-.14s.07.02.08.06h0l.03.74s-.02.07-.05.08h-.02Zm-1.47,14.34s.03-.07.07-.06h0l1.42.13s.07.04.07.08l-.03.74s-.04.07-.08.06l-1.42-.14s-.07-.04-.07-.08l.04-.72h0Zm1.56-1.24l-1.42-.1s-.07-.03-.07-.07l.03-.73s.04-.07.08-.06l1.42.09s.07.03.07.07l-.03.74s-.04.06-.08.06h0Zm.11-2.18l-1.43-.06s-.07-.03-.07-.06h0l.04-.73s.04-.07.08-.06l1.43.05s.07.03.07.06h0l-.04.74s-.03.07-.07.07h0Zm.12-2.18l-1.43-.02s-.07-.03-.07-.07l.04-.73s.04-.07.08-.07h1.43s.07.03.07.06h0l-.04.74s-.04.07-.08.07h0v.02Zm.05-2.18h-1.43s-.07-.03-.08-.07l-.04-.72s.03-.07.07-.07h0l1.43-.03s.08.03.08.07h0l.04.74s-.05.06-.08.05v.03h0Zm-.49-15.62c-.08-.43.21-.85.64-.92h0l15.62-3.33c.49-.08.96.24,1.05.74l.79,5.07.39,2.53c.09.63.19,1.27.26,1.74.05.26.08.53.08.8.05.5-.31.94-.81,1.01l-15.93,1.4c-.42.06-.82-.23-.88-.65v-.05c0-.22-.02-.44-.06-.65-.06-.39-.14-.91-.22-1.43l-.32-2.08-.61-4.16v-.02Zm-.12,6.11l.11.73s-.03.08-.07.08h0l-1.42.16s-.08-.02-.08-.06l-.11-.71s.02-.07.06-.08h0l1.41-.18s.07.01.09.05h.01Zm-1.46,19.42s.04-.06.08-.06l1.42.17s.07.03.07.07h0s-.11.74-.11.74c0,0-.05.06-.09.06l-1.41-.18s-.07-.04-.06-.07h0l.11-.72h-.01Zm1.67,10.07l15.54,3.75c.47.14.74.63.6,1.1h0s-1.29,4.97-1.29,4.97l-1.73,4.81c-.15.47-.64.73-1.11.59h-.02l-14.95-5.64c-.43-.14-.67-.59-.54-1.02l1.43-3.95,1.04-4.08c.15-.42.59-.65,1.02-.53h0Zm.56-2.15c-.43-.07-.73-.48-.66-.91h0s.62-4.17.62-4.17l.32-2.08c.08-.52.16-1.04.22-1.43.05-.21.07-.43.06-.65.04-.43.42-.74.85-.7h.04l15.93,1.4c.5.07.85.52.81,1.02,0,.27-.03.53-.08.8l-.26,1.74c-.19,1.26-.38,2.53-.38,2.53l-.79,5.07c-.09.49-.56.82-1.05.74l-15.64-3.34v-.02Zm17.53-11.2l-15.95-.98c-.45,0-.82-.37-.82-.82,0,0,.11-2.1.22-4.21-.11-2.1-.22-4.21-.22-4.21,0-.45.37-.82.82-.82l15.95-.98c.49,0,.89.38.9.87h0s.24,5.12.24,5.12c-.12,2.56-.25,5.11-.25,5.11,0,.49-.38.9-.87.91h-.02Zm2.03-24.31l.14.92s-.02.09-.06.1l-1.41.24s-.08-.02-.09-.07h0l-.14-.91s.02-.09.06-.1l1.4-.26s.08.02.09.06v.02h.01Zm-.49-2.72s.22.91.2.91c0,.04-.02.09-.06.1l-1.4.31s-.08-.03-.09-.07c0,0-.2-.89-.2-.9-.02-.04,0-.09.04-.1h0l1.4-.3s.1,0,.11.05h0Zm-.68-2.68l.23.91s0,.09-.04.1h0l-1.39.32s-.08-.03-.09-.07l-.23-.89s0-.08.05-.1h0l1.39-.34s.09.02.1.06v.02h-.02Zm-.69-2.67l.23.91s0,.08-.05.1h0l-1.38.36s-.08-.02-.09-.06l-.23-.89s0-.08.05-.1l1.38-.37s.09,0,.1.05h0s-.01,0-.01,0Zm-.7-2.67l.24.9s0,.09-.05.1l-1.37.4s-.08-.02-.09-.06l-.23-.89s0-.09.05-.1l1.37-.41s.09,0,.1.05v.02h-.02Zm-.83-2.63l.32.88s0,.09-.04.1h0l-1.36.43s-.09-.02-.1-.06l-.31-.87s0-.09.04-.1h0l1.35-.44s.09,0,.11.05h0s-.01.01-.01.01Zm-.95-2.6l.32.88s0,.09-.03.11h0l-1.35.49s-.09-.01-.1-.05l-.32-.87s0-.09.04-.1h0l1.34-.49s.09,0,.11.04h0,0Zm-1.05-2.65s.09,0,.1.05h0l.32.88s0,.09-.03.11h0l-1.33.49s-.08-.01-.1-.05l-.32-.87s0-.09.04-.11c0,0,1.32-.5,1.32-.5Zm-.86-2.54l.33.88s0,.09-.04.11l-1.32.54s-.08,0-.1-.04h0l-.32-.87s0-.09.04-.11l1.31-.56s.09,0,.11.03v.02h0,0Zm-1.29-2.54s.09,0,.11.05l.4.84s0,.09-.03.11h0l-1.3.58s-.09,0-.11-.05l-.4-.83s0-.09.03-.11l1.3-.59Zm-1.09-2.44l.2.42.2.42s0,.09-.03.11l-1.29.61s-.09,0-.11-.05h0l-.2-.41-.2-.41s0-.09.03-.11l1.28-.62s.08,0,.11.02v.02h0,.02Zm-1.21-2.48l.41.84s0,.09-.03.11l-1.27.65s-.09,0-.1-.04h0l-.4-.83s0-.09.03-.11l1.26-.66s.08,0,.11.03v.02h0Zm-1.3-2.44l.49.8s.03.08,0,.11h0l-1.25.68s-.09,0-.11-.04l-.49-.79s-.03-.08,0-.11h0l1.24-.69s.09-.03.12,0c0,0,.02.02.02.04h-.02Zm-1.43-2.37l.49.81s.03.08,0,.11h0l-1.23.71s-.09,0-.11-.03l-.49-.79s-.03-.08,0-.11h0l1.23-.73s.08-.04.11,0c0,0,.02.03.03.05h-.02v-.02Zm-1.39-2.36l.49.8s.03.08,0,.11l-1.22.75s-.09,0-.11-.03h0l-.49-.79s-.03-.08,0-.11l1.21-.76s.08-.02.11.02h0s0,0,0,0Zm-1.46-2.36l.49.8s.03.08,0,.12l-1.19.78s-.08,0-.11-.03l-.49-.79s-.03-.08,0-.12l1.18-.8s.08,0,.11.02v.02h.01Zm-1.62-2.24l.56.75s.03.08,0,.11h0l-1.17.81s-.09,0-.11-.02l-.56-.71s-.03-.08,0-.11h0l1.16-.82s.08-.03.12,0h0s0-.01,0-.01Zm-1.65-2.22l.56.75s.03.08,0,.11h0l-1.15.84s-.08.03-.11,0l-.55-.74s-.03-.08,0-.11l1.14-.86s.08-.03.11,0h0Zm-1.66-2.22l.56.75s.03.08,0,.11l-1.12.88s-.08.03-.11,0l-.56-.76s-.03-.08,0-.11l1.11-.89s.08-.02.11,0h0s0,0,0,0Zm-2.93-1.25l1.09-.92s.08-.03.12,0l.62.7s.03.08,0,.11h0l-1.1.91s-.08.03-.11,0l-.61-.69s-.03-.07,0-.1h0Zm-.76-2.96s.08-.03.12,0l.62.69s.03.08,0,.11h0l-1.07.97s-.08.03-.11,0l-.62-.68s-.03-.08,0-.11l1.06-.98h0Zm-1.85-2.04s.08-.03.11,0h0l.32.35.32.35s.03.08,0,.12l-1.05.98s-.08.03-.12,0l-.31-.34-.31-.34s-.03-.08,0-.11l1.04-.99v-.02Zm-1.86-2.04s.08-.03.11,0h0l.63.69s.04.08,0,.11h0l-1.02.98s-.08.03-.11,0h0l-.62-.68s-.03-.08,0-.12l1.01-.99h0Zm-2.01-1.89s.08-.03.12,0l.69.63s.03.08,0,.11h0l-.98,1.02s-.08.03-.12,0l-.68-.62s-.03-.08,0-.11h0l.97-1.03h0Zm.67,4.19l1.72,1.89,3.44,3.8c.33.33.33.87,0,1.2-.02.02-.04.04-.06.05l-12.36,10.14c-.34.29-.85.27-1.17-.04l-2.84-3.11s-2.82-3.12-2.93-3.04c-.31-.3-.32-.8-.02-1.12,0,0,0,0,.02-.02l11.06-11.56c.36-.35.93-.35,1.29,0,.65.55,1.27,1.16,1.83,1.81h.02Zm-2.7-6.02s.08-.03.11,0h0l.69.63s.03.08,0,.11l-.98,1.04s-.08.03-.12,0l-.68-.62s-.03-.08,0-.11h0l.97-1.05h0Zm-2.04-1.85s.08-.03.11,0h0l.69.63s.03.08,0,.11h0l-.94,1.06s-.08.03-.11,0h0l-.68-.62s-.03-.08,0-.11h0s.93-1.07.93-1.07Zm-2.09-1.8s.08-.03.12,0c0,0,.75.56.73.58.03.03.03.08,0,.12l-.91,1.1s-.08.03-.11,0l-.72-.57s-.03-.08,0-.11l.89-1.12h0Zm-2.2-1.66s.08-.03.12,0l.75.56s.03.08,0,.11h0l-.88,1.12s-.08.03-.12,0l-.73-.57s-.03-.08,0-.11h0l.86-1.11Zm-2.21-1.65s.08-.03.11,0h0l.75.56s.03.08,0,.11h0l-.84,1.13s-.08.03-.11,0l-.74-.55s-.03-.08,0-.11l.83-1.14Zm-2.22-1.64s.07-.04.1,0h0l.75.56s.05.07.02.11l-.82,1.17s-.08.03-.11,0h0l-.74-.55s-.03-.08,0-.11l.79-1.17h.01Zm.29,3.36l4.1,3.07c.95.69,1.85,1.44,2.7,2.25l1.19,1.07c.38.32.44.88.12,1.27l-10.74,11.86c-.28.35-.79.4-1.14.12l-.98-.89c-.69-.67-1.43-1.29-2.22-1.85l-3.37-2.52c-.35-.29-.4-.81-.12-1.17l9.19-13.08c.29-.38.84-.45,1.23-.16,0,0,.02.02.03.02h0Zm-2.61-4.88s.08-.03.11,0l.8.49s.05.06.03.1h0l-.78,1.2s-.08.03-.11,0l-.79-.49s-.05-.07-.03-.11l.78-1.2h-.01Zm-2.36-1.43s.08-.03.11,0l.8.49s.05.07.04.1h0l-.75,1.21s-.08.03-.11,0l-.79-.49s-.05-.07-.03-.11l.74-1.21h-.01Zm-2.36-1.41s.08-.03.11,0h0l.4.24.4.24s.06.07.04.11h0l-.72,1.23s-.08.03-.11,0l-.4-.24-.4-.24s-.05-.07-.03-.11l.7-1.24h.01Zm-2.41-1.37s.07-.05.11-.03c0,0,.83.42.82.44.04.02.06.07.04.11h0l-.69,1.25s-.08.03-.11,0l-.81-.43s-.06-.06-.04-.1h0s.68-1.24.68-1.24Zm-2.47-1.22s.07-.05.11-.03h0l.84.41s.06.07.04.11l-.65,1.27s-.07.05-.11.03l-.82-.4s-.06-.06-.04-.1h0l.63-1.28h0Zm-2.48-1.2s.07-.05.1-.04h0l.84.41s.06.06.04.1l-.62,1.28s-.07.05-.11.03l-.83-.4s-.06-.07-.04-.11l.61-1.28h0Zm-2.49-1.19s.07-.05.1-.04h0l.85.41s.06.07.04.11l-.58,1.3s-.07.05-.1.04h0l-.83-.4s-.06-.06-.04-.1l.56-1.31h0Zm-2.56-1.04s.07-.06.11-.04l.88.33s.07.05.06.1h0l-.57,1.33s-.07.05-.11.04l-.86-.32s-.07-.06-.05-.1l.55-1.34h0Zm-2.59-.98s.06-.06.1-.04h0l.88.32s.07.05.06.1h0l-.49,1.33s-.07.06-.11.04l-.86-.32s-.07-.06-.05-.1l.47-1.34h0Zm-2.6-.95s.06-.06.1-.04h0l.88.32s.07.06.06.1h0l-.49,1.35s-.07.06-.11.04l-.87-.32s-.07-.06-.05-.1l.47-1.35h0Zm-2.6-.93s.06-.06.11-.05l.88.31s.07.06.06.1h0l-.43,1.36s-.06.06-.1.04h0l-.87-.31s-.07-.05-.06-.09l.41-1.37h0Zm-2.67-.7s.06-.06.1-.05l.91.23s.07.04.06.08h0l-.4,1.37s-.06.06-.1.05l-.9-.23s-.07-.05-.06-.09l.39-1.37h0Zm-2.67-.69s.06-.07.1-.05l.91.23s.07.05.06.09l-.36,1.38s-.06.06-.1.05l-.93-.2s-.07-.05-.06-.09c0,0,.38-1.41.38-1.41Zm-2.67-.68s.05-.07.1-.05h0l.45.11.45.12s.08.05.07.1h0l-.32,1.39s-.06.06-.1.05l-.45-.11-.45-.11s-.07-.05-.06-.09l.31-1.39v-.02Zm-2.7-.58s.06-.07.1-.06h0l.92.15s.07.04.07.08h0s-.28,1.41-.28,1.41c0,0-.05.07-.1.06l-.91-.14s-.07-.04-.07-.09h0l.26-1.4h.01Zm-2.75-.4s.05-.07.09-.06h.01l.92.14s.08.04.07.09l-.25,1.41s-.06.07-.1.06l-.91-.14s-.08-.04-.07-.09l.23-1.41h.01Zm-2.73-.41s.05-.07.09-.06h0l.93.14s.08.04.08.09h0l-.21,1.41s-.05.07-.1.06l-.91-.14s-.08-.04-.07-.09l.2-1.41h0Zm-2.73-.41s.04-.07.08-.07h.01l.93.14s.08.04.07.08h0l-.17,1.42s-.05.07-.09.06l-.91-.14s-.08-.04-.07-.09l.15-1.42v.02Zm-2.75-.22s.05-.08.09-.07h0l.93.05s.08.03.08.08h0l-.13,1.42s-.05.07-.09.07l-.92-.05s-.08-.03-.08-.08h0s.12-1.42.12-1.42Zm-2.75-.15s.05-.08.09-.07h0l.93.05s.08.03.08.07h0l-.09,1.44s-.05.07-.09.07l-.92-.05s-.08-.03-.08-.08l.07-1.43h0Zm-2.75-.14s.04-.07.09-.07h0l.94.04s.08.03.08.07h0l-.05,1.43s-.04.07-.09.07h0l-.92-.03s-.08-.04-.08-.08l.03-1.43Zm-2.75-.13s.03-.07.07-.07h.01l.93.04s.08.03.08.08v1.43s-.04.07-.08.07l-.92-.04s-.08-.03-.08-.08V1h-.01Zm.84,22.82s-.03.07-.06.07h0l-.73-.04s-.07-.04-.07-.08v-1.43s.03-.07.06-.07h0l.74.04s.07.04.07.08l-.02,1.42h.01Zm2.14.12s-.03.07-.07.07l-.73-.04s-.07-.04-.06-.08l.04-1.43s.03-.07.06-.07h0l.74.04s.07.04.06.08l-.05,1.43h.01Zm2.14.11s-.03.07-.07.07l-.72-.03s-.07-.03-.06-.07h0l.08-1.42s.03-.07.07-.07l.74.03s.07.04.06.08l-.09,1.42h-.01Zm2.14.1s-.02.08-.06.09h-.02l-.73-.03s-.07-.04-.06-.08l.12-1.42s.03-.07.07-.07l.74.03s.07.04.06.08l-.12,1.4Zm2.12.26s-.04.07-.07.06h0l-.72-.11s-.06-.04-.06-.08l.16-1.42s.03-.07.07-.07l.73.12s.06.05.05.09l-.17,1.41h0Zm-7.64-3.06c-.45-.05-.78-.44-.76-.9l.21-15.98c.03-.48.44-.84.92-.81h.03s10.25.49,10.21.76c.49.05.85.48.82.98l-2.15,15.84c-.04.44-.42.77-.86.73h-.02c.01-.25-8.4-.61-8.4-.61h0Zm9.76,3.42s-.04.07-.08.06l-.72-.11s-.06-.05-.05-.08l.2-1.41s.04-.07.08-.07h0l.73.11s.06.05.05.09l-.21,1.41Zm2.12.32s-.04.07-.08.06l-.71-.11s-.06-.04-.06-.08h0l.23-1.41s.04-.07.08-.07l.73.11s.07.05.06.08h0l-.24,1.4v.02Zm2.12.31s-.04.07-.08.06l-.71-.1s-.06-.05-.05-.08l.27-1.4s.04-.07.08-.07l.73.11s.06.04.06.08h0l-.29,1.39h0Zm2.07.54s-.04.06-.08.06l-.35-.09-.35-.09s-.08-.02-.09-.06v-.04l.31-1.39s.04-.06.08-.06h0l.36.09.36.09s.06.05.05.09l-.28,1.4h-.01Zm2.07.54s-.05.06-.08.05l-.7-.18s-.06-.05-.05-.09l.35-1.38s.04-.06.08-.06l.71.19s.06.06.04.09l-.36,1.38h.01Zm2.07.53s-.04.06-.08.06l-.7-.18s-.05-.05-.04-.09l.39-1.37s.05-.06.09-.06l.72.18s.06.05.04.09h0l-.41,1.37h0Zm.07-2.59l-4.11-1.07s-1.01-.3-2.04-.49l-2.08-.31c-.44-.09-.72-.51-.63-.95v-.03l2.6-15.77c.1-.49.58-.8,1.07-.7l2.53.4c1.26.23,2.49.59,2.49.59l4.97,1.28c.47.09.77.55.68,1.02v.04l-4.5,15.34c-.11.44-.54.71-.99.63v.02h.01Zm1.98,3.19s-.05.06-.08.05l-.68-.25s-.06-.04-.05-.08h0s.42-1.37.42-1.37c0,0,.05-.06.09-.06l.69.25s.05.06.04.1c0,0-.43,1.36-.43,1.36Zm1.13-3.19l4.91-15.21c.17-.45.67-.67,1.11-.5,0,0,.02,0,.03.01l4.82,1.76c1.62.55,3.19,1.22,4.71,2,.46.2.67.72.49,1.18l-6.75,14.49c-.17.41-.64.61-1.05.44h0c.1-.23-7.81-3.08-7.81-3.08-.43-.18-.65-.67-.48-1.11v.02h.02Zm.87,3.93s-.05.06-.09.05l-.68-.25s-.05-.06-.04-.09l.46-1.35s.05-.06.09-.05l.69.25s.05.06.04.1l-.47,1.34Zm2.01.74s-.05.06-.09.05l-.68-.25s-.05-.05-.04-.09h0l.49-1.34s.05-.06.09-.05h0l.69.25s.05.06.03.09l-.5,1.33h0Zm2.01.73s-.06.05-.09.04l-.68-.24s-.05-.06-.04-.09h0l.53-1.32s.05-.06.09-.05l.69.25s.05.06.03.09l-.55,1.32h.02Zm1.95.89s-.05.05-.09.04l-.65-.32s-.05-.06-.03-.1l.57-1.31s.06-.06.09-.04l.66.32s.05.06.03.1l-.58,1.31h0Zm1.93.93s-.06.05-.09.04l-.65-.32s-.05-.06-.03-.09h0l.6-1.29s.06-.06.09-.04l.66.32s.05.06.03.1l-.61,1.29h0Zm1.95.93s-.06.05-.09.03l-.65-.31s-.05-.06-.03-.1l.64-1.27s.06-.05.1-.04l.66.32s.05.06.03.1l-.65,1.27h-.01Zm1.91.98s-.06.05-.09.03h0c-.2-.13-.41-.24-.63-.34-.03-.02-.05-.06-.03-.09h0l.67-1.25s.06-.05.1-.04c.22.1.44.22.65.35.03.03.03.07,0,.1l-.67,1.25h0Zm1.83,1.12s-.06.05-.1.03l-.31-.19-.31-.19s-.02-.07,0-.1l.71-1.24s.06-.05.09-.03h0l.32.19.32.2s.03.07,0,.1l-.72,1.23h0Zm1.83,1.11s-.06.05-.1.03l-.62-.38s-.03-.07,0-.1l.74-1.22s.06-.05.1-.03l.63.38s.03.07,0,.1l-.75,1.21h0Zm1.83,1.1s-.06.04-.09.03l-.62-.38s-.03-.07,0-.1h0l.78-1.2s.07-.05.1-.03l.63.38s.03.07,0,.1h0l-.8,1.19h0Zm-2.76-4.63l-1.83-1.16-1.89-.91c-.39-.21-.53-.7-.32-1.09h0l7.14-14.3c.24-.43.79-.59,1.23-.36l2.3,1.13,2.19,1.32,4.39,2.66c.42.22.58.74.36,1.16,0,.02-.02.04-.03.05l-8.84,13.32c-.23.39-.73.53-1.13.32l-3.57-2.13h0Zm4.52,5.86s-.07.03-.1,0h0l-.58-.44s-.03-.07,0-.1l.81-1.18s.07-.03.1,0h0l.59.45s.03.07,0,.1l-.82,1.17h0Zm1.71,1.29s-.07.02-.1,0l-.58-.43s-.03-.07,0-.1l.83-1.15s.07-.02.1,0l.6.44s.03.08,0,.11l-.85,1.14h0Zm1.72,1.28s-.07.03-.1,0l-.58-.43s-.03-.07,0-.1h0l.87-1.13s.07-.03.1,0l.59.44s.03.07,0,.1l-.88,1.12h0Zm1.71,1.29s-.07.03-.1,0h0l-.57-.44s-.03-.07,0-.1h0l.9-1.1s.07-.03.1,0c0,0,.6.43.58.45.03.03.03.08,0,.11l-.91,1.08h0Zm2.52.38l-.94,1.07s-.07.03-.1,0h0l-.54-.49s-.03-.07,0-.1l.93-1.08s.07-.03.1,0h0l.55.49s0,.08-.04.09l.04.02Zm.55,2.52l-.54-.49s-.03-.07,0-.1h0l.98-1.06s.07-.03.1,0l.55.49s.03.07,0,.1l-.98,1.04s-.06.07-.1.05c-.04,0-.07-.06-.05-.1l.04.05v.02Zm1.65,1.36s-.07.03-.1,0l-.54-.49s-.03-.07,0-.1h0l.98-1.03s.08-.03.11,0l.55.49s.03.07,0,.1l-.99,1.03h0Zm1.5,1.52s-.07.03-.1,0h0l-.49-.54s-.03-.07,0-.1l1.02-1.01s.07-.03.1,0l.49.55s.03.07,0,.1l-1.02.99h0Zm1.34,1.59l-.24-.27-.24-.27s-.03-.07,0-.1l1.04-.98s.07-.03.1,0l.25.27.25.27s.03.07,0,.1l-1.05.98s-.07.04-.1,0v-.02h0Zm1.46,1.58l-.49-.54s-.03-.07,0-.1h0l1.06-.95s.07-.03.1,0l.49.55s.03.07,0,.1l-1.08.94s-.06.05-.1.03h0s.02-.03.02-.03Zm1.46,1.58l-.49-.54s-.03-.07,0-.1h0l1.09-.92s.08-.03.11,0l.49.55s.03.07,0,.1l-1.1.9s-.02.07-.05.08-.07-.02-.08-.05l.04-.03h0Zm1.27,1.72l-.43-.58s-.02-.07,0-.1l1.11-.89s.07-.03.1,0h0l.44.6s.03.07,0,.1l-1.12.87s-.02.08-.07.09c-.04,0-.08-.02-.09-.07l.06-.03h0Zm1.28,1.71l-.43-.58s-.02-.07,0-.1l1.14-.85s.07-.03.1,0l.44.59s.03.07,0,.1l-1.19.89s-.07.03-.1,0l.04-.05Zm1.29,1.71l-.43-.58s-.03-.07,0-.1h0l1.16-.83s.08-.03.11,0l.44.59s.02.07,0,.1l-1.17.82s-.05.07-.09.07c-.02,0-.05-.02-.06-.04l.04-.03h0Zm1.2,1.77l-.37-.62s0-.08.03-.1l1.18-.79s.07-.03.1,0h0l.38.63s0,.08-.03.1l-1.19.78s-.03.07-.07.08c-.03,0-.06-.02-.07-.05l.04-.03h0Zm1.11,1.84l-.38-.62s0-.08.03-.1l1.21-.76s.07-.03.1,0h0l.39.63s0,.08-.03.1l-1.21.75s-.02.09-.06.1c-.04,0-.09-.02-.1-.06l.05-.03h0Zm1.21,1.84s-.07.03-.1,0l-.38-.62s0-.07.03-.09h0l1.23-.73s.07-.03.1,0l.39.63s0,.08-.03.1l-1.23.71h0Zm1.02,1.8l-.38-.61s0-.07.02-.09h0l1.24-.69s.08-.03.11,0l.39.63s0,.08-.03.1l-1.25.68s-.04.08-.08.07c-.03,0-.05-.02-.06-.04l.04-.03v-.02Zm.93,1.92l-.31-.65s0-.08.04-.1h0l1.26-.66s.07-.01.09.02h0l.32.66s0,.08-.04.1h0l-1.27.65s-.03.07-.07.08c-.04,0-.07-.03-.08-.07h0l.04-.03h.02Zm1.02,1.95s-.08,0-.1-.03l-.16-.33-.16-.33s0-.08.04-.09l1.28-.62s.08,0,.1.02l.16.34.16.33s0,.08-.04.1l-1.29.61h0Zm.83,1.89l-.32-.65s0-.08.04-.09l1.3-.59s.08,0,.1.03l.32.66s0,.08-.04.09l-1.3.58s-.06.06-.1.05c-.02,0-.03-.02-.04-.04,0,0,.04-.04.04-.04Zm.86,1.95l-.24-.68s0-.08.04-.09l1.31-.56s.08,0,.09.03l.25.7s0,.07-.05.09l-1.32.54s-.05.06-.08.05c-.02,0-.03-.02-.04-.03l.04-.04h0Zm.73,2.01l-.24-.68s0-.07.04-.09h0l1.33-.52s.07,0,.09.03h0l.25.7s0,.07-.05.09l-1.33.49s0,.08-.05.09-.08-.01-.09-.05l.04-.05h.01Zm.74,2.01l-.25-.68s0-.08.05-.09l1.34-.49s.08,0,.1.04l.25.69s0,.08-.05.09l-1.35.49s-.06.05-.1.03c0,0-.03-.02-.03-.04l.04-.04h0Zm.74,2.01l-.25-.68s0-.07.03-.08h.02l1.35-.44s.08,0,.1.04l.26.69s0,.08-.05.09l-1.36.43s-.07.05-.1.03c0,0-.02-.02-.03-.03l.04-.04h0Zm.58,2.05l-.18-.7s.02-.07.05-.09l1.37-.41s.08,0,.09.04l.18.71s-.02.08-.06.09l-1.37.39s-.05.05-.09.04c-.02,0-.03-.02-.04-.04l.04-.04h0Zm.56,2.15s-.07,0-.09-.04l-.18-.7s.02-.07.05-.08l1.38-.37s.08,0,.09.04l.19.72s-.02.08-.06.08l-1.38.36h0Zm.54,2.07s-.08-.01-.09-.05l-.18-.7s.02-.07.05-.08l1.39-.33s.08,0,.09.04l.19.72s-.02.08-.06.08l-1.39.32h0Zm.42,2.03l-.15-.7s0-.07.05-.08h0l1.4-.29s.08.01.09.05c0,0,.18.71.16.72,0,.04-.02.08-.06.09l-1.4.28s-.07-.01-.08-.05h0v-.02Zm.31,2.12l-.11-.72s.02-.08.06-.08h0l1.4-.26s.08.01.09.05l.11.73s-.03.08-.07.08l-1.41.24s-.05,0-.07-.03h0Zm.26,1.76l-.05-.36s.02-.07.06-.08l1.41-.21s.08.01.09.05l.05.37.05.37s-.03.08-.07.08h0l-1.41.2s-.08-.02-.09-.06h0l-.05-.36h.01Zm0,23.43l.05-.36s.05-.06.08-.05l1.41.2s.07.04.07.08h0l-.05.37-.05.37s-.05.06-.09.06l-1.41-.22s-.07-.04-.06-.08l.05-.36h0Zm-.27,1.76s.05-.06.08-.05l1.41.24s.07.04.07.08l-.11.73s-.05.06-.09.05l-1.4-.26s-.07-.04-.06-.08l.1-.72h0Zm-.31,2.11s.04-.06.08-.05h0l1.4.28s.07.04.06.08l-.16.72s-.06.05-.09.04l-1.4-.29s-.06-.04-.06-.08h0l.18-.67-.02-.03h.01Zm-.51,2.07s.05-.05.09-.04l1.39.32s.06.04.06.08h0l-.19.71s-.05.06-.09.05h0l-1.39-.33s-.06-.04-.06-.08h0l.19-.71Zm-.54,2.07s.05-.05.09-.04l1.38.36s.06.04.06.08l-.19.72s-.06.06-.09.04l-1.38-.37s-.06-.04-.06-.08l.19-.7h0Zm-.53,2.07s.05-.06.09-.04h0l1.37.4s.07.05.06.08h0l-.18.71s-.05.05-.09.04l-1.37-.41s-.06-.05-.05-.09l.17-.7h0Zm-.57,2.05s.06-.05.1-.04l1.36.43s.06.05.05.09l-.26.69s-.06.05-.1.04l-1.35-.44s-.06-.05-.05-.09l.25-.68Zm-.74,2.01s.06-.05.09-.04l1.35.49s.06.05.05.09l-.25.69s-.06.05-.09.03l-1.34-.49s-.06-.05-.05-.08l.25-.69h-.01Zm-.74,2.01s.06-.05.09-.04h0l1.33.49s.06.05.05.09l-.25.69s-.06.05-.1.03l-1.33-.52s-.06-.05-.05-.09l.25-.66h.01Zm-.73,2.01s.06-.05.09-.04h0l1.32.54s.06.06.05.1l-.25.69s-.05.05-.09.04h0l-1.31-.56s-.05-.06-.04-.09l.24-.68h-.01Zm-.86,1.95s.06-.05.1-.03l1.3.58s.05.06.04.09l-.32.66s-.06.05-.1.03h0l-1.3-.59s-.05-.05-.04-.09h0l.32-.65h0Zm-1.09,2.25l.16-.33s.06-.04.1-.02l1.29.61s.05.06.04.09l-.16.33-.16.34s-.07.05-.1.03l-1.28-.62s-.06-.06-.04-.1h0l.16-.33h0Zm-2.95,8.66s-.07.03-.1,0l-1.21-.76s-.05-.06-.03-.1l.38-.62s.07-.03.1,0h0l1.21.75s.05.06.03.1l-.38.63h0Zm1.13-1.86s-.07.03-.1,0l-1.23-.73s-.05-.06-.03-.09h0l.38-.62s.07-.03.1,0l1.23.71s.05.06.03.1l-.38.63h0Zm1.14-1.86s-.07.03-.1,0l-1.24-.69s-.05-.06-.03-.09h0l.38-.62s.07-.03.1,0l1.25.68s.05.06.03.1l-.39.63h0Zm.92-1.9l-1.27-.68s-.05-.06-.04-.09l.31-.65s.06-.05.1-.03l1.27.65s.05.06.04.1l-.32.67s-.05.06-.09.05h0v-.02Zm.63,2.98c-.39-.18-.55-.65-.37-1.03,0-.02.02-.03.02-.05.12-.18.23-.38.31-.58l.62-1.3.91-1.89.91-1.89.63-1.3c.1-.19.19-.39.27-.6.17-.4.63-.58,1.02-.41,0,0,.02,0,.03,0l14.8,6.05c.46.21.68.74.49,1.21-.09.25-.2.49-.32.73l-.76,1.59-1.11,2.31-1.14,2.29-.77,1.59c-.11.24-.24.48-.38.7-.24.44-.79.61-1.23.39l-13.93-7.8v-.02Zm7.85,23.05s-.08.03-.11,0h0l-1.12-.84s-.03-.08,0-.11l.56-.74s.08-.03.11,0l1.1.85s.03.08,0,.12l-.53.73h-.01Zm1.65-2.21s-.08.03-.11,0l-1.14-.86s-.03-.08,0-.11l.55-.74s.08-.03.11,0h0l1.15.84s.03.08,0,.11h0l-.57.75h.01Zm1.65-2.22s-.07.05-.11.02l-1.17-.84s-.03-.08,0-.11l.55-.74s.07-.05.11-.02l1.17.82s.03.08,0,.11h0l-.55.76Zm1.62-2.24s-.07.05-.1.04h0l-1.18-.79s-.03-.08,0-.12l.49-.79s.07-.05.1-.04h0l1.19.78s.03.08,0,.12l-.5.8h0Zm1.46-2.35s-.07.05-.1.04h0l-1.21-.76s-.03-.08,0-.11l.49-.79s.07-.05.1-.04h0l1.22.75s.03.08,0,.11l-.5.8h0Zm1.43-2.36s-.07.05-.11.03l-1.25-.73s-.03-.08,0-.11l.49-.79s.07-.05.11-.03l1.23.72s.03.08,0,.11l-.46.81h0Zm1.43-2.36s-.07.05-.11.03l-1.3-.7s-.03-.08,0-.11l.49-.79s.07-.06.11-.04l1.25.68s.03.08,0,.11h0l-.44.81h0Zm1.3-2.44s-.06.06-.1.05h0l-1.26-.66s-.05-.07-.03-.11l.41-.83s.06-.06.1-.04l1.27.64s.05.07.03.11l-.41.84h-.01Zm1.41-2.93l-.2.42s-.06.06-.11.05h0l-1.28-.63s-.05-.07-.03-.11l.2-.41.2-.41s.06-.06.1-.04l1.29.61s.05.07.04.1h0l-.2.43h0Zm.98-2.07s-.06.06-.11.05h0l-1.3-.59s-.05-.07-.03-.11l.4-.83s.07-.06.11-.04l1.3.58s.05.07.04.1h0l-.41.84h0Zm1.18-2.5s-.05.07-.1.06h0l-1.31-.56s-.05-.07-.04-.11l.32-.86s.05-.07.1-.06h0l1.32.54s.06.07.04.11h0l-.32.87h-.01Zm.98-2.59s-.05.07-.1.06h0l-1.35-.5s-.05-.07-.04-.11l.32-.87s.05-.07.1-.05h0l1.33.49s.06.06.05.1h0l-.3.88h-.01Zm.95-2.59s-.06.06-.1.05l-1.34-.49s-.06-.06-.04-.1h0l.32-.86s.06-.07.1-.05l1.35.49s.06.06.05.1h0l-.33.86h-.01Zm.95-2.6s-.06.07-.1.06l-1.36-.44s-.06-.07-.04-.11l.31-.86s.06-.07.1-.06l1.36.43s.06.06.04.1l-.31.88Zm.83-2.63s-.05.07-.09.06h0l-1.36-.41s-.07-.06-.05-.11l.23-.89s.04-.07.08-.06l1.37.39s.06.06.05.11h0l-.23.91Zm.7-2.67s-.05.07-.09.06l-1.38-.37s-.06-.06-.05-.1l.23-.89s.05-.07.09-.06l1.38.36s.06.06.05.1h0l-.23.91h0Zm.69-2.67s-.05.07-.09.06l-1.39-.33s-.07-.05-.05-.1h0l.23-.89s.05-.07.09-.06l1.39.32s.07.05.06.09h0s-.23.92-.23.92h0Zm.68-2.68s-.05.07-.09.06l-1.4-.3s-.06-.05-.05-.09c0,0,.21-.9.2-.9,0-.04.04-.07.09-.07h0l1.4.28s.07.06.06.1h0l-.22.93h.03-.02Zm.49-2.72s-.04.08-.08.07h0l-1.4-.26s-.07-.06-.06-.1l.14-.91s.04-.08.09-.07l1.41.24s.07.05.06.1l-.15.92h-.01Zm.49-3.2l-.07.49s-.04.08-.09.08h0l-1.44-.23s-.07-.05-.06-.1l.07-.45.07-.46s.04-.07.09-.07l1.41.2s.07.05.06.09h0l-.04.45h0Zm.34-2.27s-.04.08-.09.08h0l-1.41-.18s-.07-.05-.06-.09l.14-.91s.04-.07.09-.07l1.42.17s.07.05.06.09h0l-.14.92h0Zm.38-2.73s-.04.09-.08.08l-1.46-.11s-.07-.05-.07-.09l.05-.91s.03-.08.08-.08l1.42.13s.07.05.07.09v.9h0Zm.15-2.75s-.04.08-.08.08h0l-1.42-.11s-.07-.05-.07-.09l.05-.92s.03-.08.08-.08h0l1.42.09s.07.04.07.09h0l-.04.94h-.01Zm.14-2.75s-.03.08-.08.08h0l-1.43-.06s-.08-.04-.07-.08h0l.04-.92s.04-.08.08-.08l1.43.05s.08.04.07.08h0s-.04.93-.04.93Zm.13-2.76s-.04.08-.08.08l-1.43-.03s-.08-.04-.07-.09l.04-.92s.02-.07.06-.09h1.43s.08.04.07.08h0l-.02.95v.02Zm-.03-2.66h-1.43s-.08-.04-.08-.08l-.04-.92s.02-.08.07-.09h0l1.43-.03s.08.04.08.08l.04.93s.02.08-.02.11c-.02.02-.06.02-.08,0,0,0,.03,0,.03,0Z"/>
  <path class="cls-5" d="m145.11,133.37c-.83-.09-1.67-.17-2.5-.17-6.11-.02-12.21,0-18.32,0h-.79c2.2-1.55,4.55-3.01,6.67-4.77,2.07-1.7,4.02-3.59,5.78-5.62,1.77-2.04,3.38-4.25,4.82-6.55,2.62-4.21,4.33-8.8,5.31-13.68.53-2.68.8-5.37.89-8.1.16-5.25-.63-10.33-2.29-15.29-1.5-4.44-3.68-8.54-6.47-12.3-1.3-1.75-2.73-3.44-4.29-4.96-2.85-2.78-5.95-5.27-9.44-7.24-3.73-2.09-7.62-3.76-11.79-4.7-1.97-.45-3.97-.72-5.98-.95-1.8-.21-3.63-.42-5.43-.33-2.48.12-4.95.51-7.42.82-3.02.38-5.9,1.36-8.7,2.5-3.37,1.37-6.58,3.09-9.43,5.35-2.01,1.6-3.96,3.29-5.79,5.08-3.65,3.58-6.42,7.82-8.57,12.45-1.73,3.74-2.98,7.64-3.53,11.73-.13,1-.23,1.99-.36,2.98-.02.15-.11.29-.17.44v7.01c.11.72.27,1.43.34,2.15.4,3.9,1.5,7.61,2.95,11.23,1.56,3.9,3.68,7.51,6.28,10.8,2.78,3.51,6.02,6.58,9.72,9.16,3.76,2.62,7.81,4.68,12.17,6.03,2.53.78,5.19,1.13,7.79,1.67.71.14,1.43.23,2.14.35h46.31c1.06-.5,1.91-1.15,2.04-2.47.11-1.11-.82-2.48-1.94-2.61h0Zm-8.87-41.38c.91,9.71-6.97,14.53-12.5,14.73-7.76.28-13.77-6.09-13.63-13.17-.06-7.3,5.77-12.5,11.42-12.99,4.47-.38,8.33.84,11.41,4.18,1.88,2.05,3.04,4.46,3.3,7.25Zm-13.15-22.1c1.47.03,2.91,1.17,2.63,2.63,0,1.57-1.06,2.62-2.64,2.62-1.35-.01-2.38-1.16-2.47-2.54-.1-1.5,1.18-2.73,2.48-2.71Zm-22.59-10.37c4.12-.33,7.77.65,10.79,3.57,2.22,2.14,3.6,4.73,3.9,7.8.94,9.65-6.93,14.99-13.22,14.77-7.19-.08-12.52-5.79-12.9-12.22-.5-8.32,5.99-13.49,11.43-13.92Zm4.17,34.09c0,1.51-1.08,2.57-2.59,2.57-1.42,0-2.43-1.12-2.52-2.58-.08-1.36,1.06-2.65,2.43-2.66,1.44-.01,2.97,1.09,2.68,2.67Zm-23.7-23.72c1.48.01,2.94,1.17,2.65,2.61,0,1.58-1.06,2.64-2.62,2.64-1.36,0-2.39-1.15-2.49-2.53-.1-1.51,1.17-2.73,2.46-2.72Zm2.65,44.74c0,1.52-1.07,2.59-2.57,2.6-1.42,0-2.45-1.12-2.54-2.56-.09-1.46,1.18-2.72,2.5-2.69,1.46.04,2.89,1.16,2.61,2.65Zm-1.97-7.91c-7.76.28-13.78-6.09-13.64-13.17-.06-7.3,5.77-12.5,11.42-12.99,4.47-.38,8.33.84,11.41,4.18,1.88,2.05,3.05,4.46,3.31,7.25.9,9.72-6.98,14.53-12.5,14.73Zm20.36,21.03c-7.23-.05-12.59-5.82-12.95-12.27-.46-8.26,5.97-13.41,11.41-13.87,4.32-.37,8.1.75,11.17,3.92,2.02,2.09,3.27,4.58,3.55,7.49.95,9.58-6.98,14.95-13.18,14.73h0Zm18.6-13.11c-.08-1.35,1.06-2.65,2.44-2.66,1.43-.01,2.96,1.1,2.67,2.68,0,1.5-1.08,2.57-2.6,2.57-1.41,0-2.42-1.13-2.51-2.59Z"/>
  <g class="cls-3">
    <text class="cls-1" transform="translate(32.74 176.63)"><tspan x="0" y="0">COLLEGE</tspan></text>
  </g>
  <g class="cls-3">
    <text class="cls-4" transform="translate(36.32 195.18)"><tspan x="0" y="0">FILM FESTI</tspan></text>
    <text class="cls-2" transform="translate(121.78 195.18)"><tspan x="0" y="0">V</tspan></text>
    <text class="cls-4" transform="translate(131.89 195.18)"><tspan x="0" y="0">AL</tspan></text>
  </g>
</svg>