<?xml version="1.0" encoding="UTF-8"?>
<svg id="Layer_1" data-name="Layer 1" xmlns="http://www.w3.org/2000/svg" viewBox="0 0 416.73 403.58">
  <defs>
    <style>
      .cls-1 {
        font-size: 44px;
      }

      .cls-1, .cls-2, .cls-3 {
        fill: #fff;
        stroke: #231f20;
        stroke-width: .5px;
      }

      .cls-1, .cls-3 {
        font-family: Roboto-Regular, Roboto;
        isolation: isolate;
      }

      .cls-4 {
        letter-spacing: -.04em;
      }

      .cls-3 {
        font-size: 64px;
      }
    </style>
  </defs>
  <path class="cls-2" d="m203.11.48s.03,0,.04,0l1.92-.09c.08-.01.16.05.17.13v2.94c0,.09-.07.16-.16.16l-1.89.09c-.09.01-.16-.05-.18-.14l-.07-2.92c0-.09.07-.17.17-.17Zm-5.6.28l1.91-.09c.09,0,.17.05.18.14l.12,2.92c-.01.09-.08.16-.17.16l-1.88.09c-.09.01-.16-.05-.18-.14l-.15-2.92c.01-.09.08-.16.17-.16Zm-5.65.3l1-.05h1c.09-.01.17.05.19.14l.2,2.91c0,.09-.08.16-.17.16l-.94.05h-.94c-.09.01-.16-.05-.18-.14l-.23-2.91c-.01-.06.02-.13.07-.16Zm-5.64.39h.01s1.9-.18,1.9-.19c.09-.01.17.05.19.14l.27,2.91c0,.09-.07.16-.16.16,0,0-1.87.14-1.87.18-.09.02-.17-.04-.19-.12h0s-.31-2.91-.31-2.91c0-.09.07-.16.16-.17Zm-11.19,1.68l1.9-.29c.09-.02.18.04.2.13l.44,2.88c.01.09-.06.17-.15.18l-1.87.29c-.09.01-.17-.04-.19-.13l-.47-2.88c-.01-.09.05-.17.14-.18Zm-5.6.87h0l1.9-.3c.09-.02.17.03.19.12l.52,2.87c.01.09-.05.17-.14.18l-1.87.29c-.09.02-.18-.04-.2-.13l-.5-2.86c-.02-.07.02-.14.09-.17Zm-5.54,1.11l1.86-.47c.08-.03.16.01.19.09.01,0,.01.01.01.02l.59,2.86c.01.09-.05.17-.14.19l-1.83.46c-.08.03-.17-.02-.2-.11l-.63-2.85c-.01-.09.06-.17.15-.19Zm-5.56,1.41s.05-.02.07-.02l1.86-.47c.08-.03.18,0,.21.09h0s.67,2.88.67,2.88c.01.09-.05.17-.14.19l-1.83.47c-.08.03-.18-.01-.21-.09h0s-.7-2.84-.7-2.84c-.04-.08-.01-.18.07-.21Zm-5.43,1.4h.01l1.86-.48c.09-.03.18.02.21.1l.75,2.82c.01.09-.04.17-.13.19l-1.83.48c-.09.03-.18-.02-.21-.1l-.78-2.82c-.02-.09.04-.17.12-.19Zm-5.47,1.43l1.86-.49c.09-.03.18.02.21.1l.82,2.8c.02.09-.03.17-.12.19l-1.83.48c-.09.03-.18-.02-.21-.1l-.82-2.79c-.03-.08.01-.16.09-.19Zm-5.35,1.84l1.81-.66c.07-.04.16-.01.2.07,0,0,.01.01.01.02l.9,2.78c.02.09-.03.17-.11.2l-1.78.65c-.09.03-.18-.01-.22-.09l-.93-2.77c-.02-.09.03-.18.12-.2Zm-5.32,1.93h0s1.8-.65,1.8-.65c.08-.04.18-.01.22.07h0s1,2.76,1,2.76c.03.09-.02.18-.11.21l-1.77.65c-.08.04-.18,0-.22-.08l-1-2.74c-.04-.08,0-.18.08-.22Zm-5.32,1.96v.05l.9-.33.9-.33c.08-.04.19-.01.23.08l1.05,2.72c.03.09-.02.18-.11.21l-1.78.66c-.08.03-.18,0-.22-.08l-1.07-2.78c-.03-.08.02-.17.1-.2Zm-5.31,2.09s.02,0,.04-.02v.05s1.67-.77,1.76-.77c.08-.04.19-.01.23.08l1.13,2.69c.03.08-.02.17-.1.2l-1.72.76c-.08.04-.17,0-.22-.06h0s-1.16-2.69-1.16-2.69c-.06-.08-.04-.18.04-.24Zm-5.14,2.46s.05-.03.08-.04v.05s1.73-.82,1.73-.82c.08-.05.18-.02.23.06l1.2,2.66c.03.09-.02.18-.1.22l-1.7.82c-.08.05-.18.02-.23-.06l-1.23-2.65c-.06-.07-.06-.18.02-.24Zm-5.11,2.47s.05-.04.08-.05l.02.05,1.73-.84c.08-.05.18-.02.23.06l1.27,2.63c.03.09-.01.18-.09.22l-1.7.82c-.08.04-.17.02-.22-.06l-1.3-2.62c-.06-.05-.07-.15-.02-.21Zm-5.08,2.46s.04-.03.07-.04l.02.05,1.73-.84c.08-.04.17,0,.22.06h0s1.35,2.6,1.35,2.6c.04.08,0,.17-.08.21l-1.7.82c-.08.05-.18.02-.23-.06l-1.37-2.57c-.06-.06-.07-.16-.01-.23Zm-4.93,2.78s.04-.04.07-.05l.02.05,1.64-1c.06-.06.16-.07.23,0l1.41,2.56c.03.08,0,.17-.07.22l-1.61,1c-.07.06-.16.06-.23,0l-1.44-2.54c-.07-.06-.08-.17-.02-.24Zm-4.89,2.93s.07-.05.12-.05l.02.05,1.64-1c.07-.06.16-.06.23,0l1.48,2.52c.02.09-.03.18-.12.21h-.01l-1.61,1c-.07.06-.16.06-.23,0l-1.51-2.5c-.07-.06-.07-.16-.01-.23Zm-4.8,2.96s.05-.05.08-.06l.02.05,1.64-1c.07-.07.17-.07.24,0l1.55,2.47c.04.08.01.17-.06.22h-.01l-1.61,1c-.07.06-.16.06-.23,0l-1.58-2.46c-.07-.05-.09-.15-.04-.22Zm-4.77,2.99s.03-.04.06-.05l.02.05,1.6-1c.07-.06.16-.06.23,0l1.62,2.43c.04.08.02.17-.06.22,0,0-1.58.98-1.58,1-.06.06-.15.06-.21.01h-.01s-1.64-2.42-1.64-2.42c-.08-.06-.09-.16-.03-.24Zm-4.51,3.33s.01-.01.02-.01l.03.05,1.54-1.15c.06-.06.15-.06.21-.01h.01s1.63,2.37,1.63,2.37c.06.07.06.16,0,.23l-1.52,1.13c-.07.06-.16.06-.23,0l-1.71-2.37c-.06-.07-.05-.18.02-.24Zm-4.51,3.37l.03.05,1.53-1.15c.07-.07.17-.07.24,0l1.75,2.34c.06.07.06.16,0,.23l-1.6,1.1c-.07.06-.17.06-.24,0l-1.76-2.34c-.05-.08-.03-.18.05-.23Zm-4.53,3.41l.03.04.77-.58.77-.57c.07-.07.17-.07.24,0l1.81,2.29c.06.07.06.16,0,.23l-.76.57-.75.57c-.07.06-.16.06-.23,0l-1.83-2.27c-.08-.03-.13-.12-.11-.2.01-.03.03-.06.06-.08Zm-4.36,3.65s.02-.02.03-.03l.03.04,1.42-1.28c.06-.06.16-.07.23,0l1.87,2.24c.06.07.06.16,0,.23l-1.4,1.26c-.06.06-.16.07-.23,0l-1.9-2.22c-.08-.05-.1-.16-.05-.24Zm-4.18,3.78l.02-.02,1.41-1.28c.07-.07.17-.07.24,0l1.93,2.19c.06.07.06.17,0,.24l-1.39,1.26c-.07.07-.17.07-.24,0l-1.95-2.15c-.07-.06-.08-.17-.02-.24Zm-53.05,219.31l-1.23-3.39c-.2-.51-.37-1.03-.51-1.56l-2.64-10.12c-.3-.95.22-1.97,1.18-2.27.01,0,.03,0,.05-.02l31.84-7.71c.89-.25,1.82.24,2.1,1.12l2.13,8.35c.11.44.25.86.42,1.28l1,2.78,1.49,4c.27.89-.22,1.82-1.1,2.11l-30.66,11.59c-.96.29-1.98-.26-2.27-1.22h0s-1.8-4.94-1.8-4.94Zm-10.78-64.64l.51-10.48c-.02-1,.77-1.84,1.78-1.86h.12-.05s32.69,2.01,32.69,2.01c.93.01,1.67.76,1.68,1.69l-.46,8.62.46,8.62c-.01.93-.75,1.68-1.68,1.69l-32.69,2c-1.01.02-1.83-.78-1.85-1.79v-.03l-.51-10.47Zm39.11-9.88l2.92.17c.08,0,.14.06.15.14l-.07,1.49c-.01.08-.08.13-.16.13l-2.92-.14c-.08,0-.15-.07-.15-.15l.08-1.52c.01-.07.08-.12.15-.12Zm-.02-2.8v-.03h.02l.07-1.52c.01-.08.08-.13.16-.12l2.9.25c.08,0,.15.07.15.15l-.08,1.52c-.01.08-.08.13-.16.12l-2.91-.22c-.08,0-.15-.06-.15-.15Zm2.68,7.34c.08,0,.14.06.15.14l-.07,1.5c-.01.08-.08.14-.16.14l-2.92-.06c-.08,0-.15-.07-.15-.15l.08-1.51c0-.08.07-.15.15-.15l2.92.09Zm-.24,4.38c.08-.01.14.05.15.13v1.49c0,.08-.06.14-.14.14h-2.93c-.08,0-.15-.06-.16-.14v-1.52c.03-.06.09-.1.16-.1h2.92Zm-2.76,4.48h-.01s2.92-.07,2.92-.07c.08-.01.15.04.17.12l.08,1.48c0,.08-.07.15-.15.15l-2.92.09c-.08,0-.15-.06-.16-.14l-.08-1.51c.02-.07.08-.12.15-.12Zm.23,4.46h.02l2.89-.14c.08-.01.15.06.16.14l.07,1.48c0,.08-.07.15-.15.15l-2.92.17c-.08.01-.15-.06-.16-.14l-.06-1.51c0-.08.07-.15.15-.15Zm.24,4.47l2.88-.22c.08-.01.15.04.16.12h0s.07,1.5.07,1.5c0,.08-.07.15-.15.15l-2.9.25c-.08.01-.15-.04-.16-.12l-.05-1.56c.02-.07.08-.12.15-.12Zm.16,4.46s.02,0,.03,0h.03l2.87-.3c.08-.01.15.04.17.12l.23,1.47c.01.08-.05.14-.13.15l-2.9.33c-.08.01-.16-.04-.18-.12l-.24-1.5c-.01-.08.05-.15.12-.16Zm3.11-33.76c-.02.08-.1.13-.18.12l-2.9-.3c-.08,0-.14-.06-.14-.14h0s.24-1.51.24-1.51c.02-.08.1-.13.18-.12l2.9.33c.08,0,.14.07.13.15h0s-.23,1.47-.23,1.47Zm-2.92-16.58v.03s-.56,4.27-1.2,8.53l-.03.02c-.33,2.13-.66,4.26-.91,5.85-.17.88-.28,1.77-.33,2.67-.08.88-.87,1.52-1.75,1.44-.02,0-.05,0-.08,0l-32.63-2.86c-1.02-.14-1.74-1.06-1.65-2.08.07-1.09.21-2.17.4-3.25.3-1.95.69-4.54,1.07-7.14l1.61-10.38c.19-1.01,1.15-1.68,2.16-1.51l32,6.82c.89.15,1.49.98,1.34,1.87Zm-36.92,51.1l32.6-2.86c.87-.13,1.69.48,1.81,1.36,0,.02.01.05.01.07.05.9.16,1.79.33,2.67l.91,5.86,1.28,8.53c.16.89-.44,1.74-1.33,1.9h-.01l-32,6.82c-1.01.17-1.97-.5-2.16-1.51l-1.61-10.38c-.39-2.6-.78-5.19-1.08-7.14-.19-1.08-.33-2.16-.4-3.25-.09-1.02.64-1.93,1.65-2.07Zm37.58,5.35v-.04l-.23-1.49c-.01-.08.06-.15.14-.16l2.89-.38c.08-.01.15.04.17.12l.23,1.5c.01.08-.05.15-.13.16l-2.89.41c-.08.02-.16-.04-.18-.12Zm3-44.2c-.02.08-.09.12-.17.11l-2.92-.36c-.08-.01-.15-.08-.14-.16l.23-1.5c.02-.08.1-.13.18-.11l2.89.41c.08.01.14.08.13.16l-.2,1.45Zm-3.76-18.5s-.01-.01-.02-.01l-31.84-7.74c-.96-.27-1.52-1.28-1.24-2.24,0-.01.01-.03.01-.04l2.64-10.17c.14-.53.31-1.04.51-1.55l1.23-3.39,1.8-4.94c.3-.96,1.32-1.5,2.28-1.2t.02,0l30.65,11.56c.88.28,1.37,1.22,1.1,2.1l-1.49,4-1,2.78c-.17.42-.31.84-.42,1.28l-2.13,8.34c-.25.91-1.18,1.45-2.1,1.21Zm-22.7-36.34c-.94-.42-1.39-1.51-1-2.47,0,0,.5-1.21,1.37-3l3.12-6.51,3.14-6.5c.83-1.79,1.5-2.91,1.5-2.91.49-.9,1.6-1.24,2.52-.79l28.57,16c.79.39,1.12,1.35.74,2.14-.02.02-.03.05-.04.07-.44.78-.85,1.58-1.21,2.4l-2.56,5.34-2.58,5.33c-.69,1.49-1.11,2.49-1.11,2.49-.35.81-1.28,1.19-2.1.85-.02,0-.04-.02-.06-.03l-30.3-12.41Zm13.49-26.81c-.84-.56-1.08-1.69-.52-2.54h.01s2.73-4.49,2.73-4.49l1.88-3.08c.27-.48.58-.93.93-1.35l6.28-8.42c.55-.82,1.67-1.04,2.5-.49.01.01.03.02.04.03l25.87,20.09c.76.54.95,1.58.44,2.35l-5.18,6.9c-.21,0-4.53,7.33-4.53,7.33-.53.76-1.56.96-2.33.45l-28.12-16.78Zm17.12-24.68c-.74-.62-.83-1.73-.21-2.47.04-.04.07-.07.11-.11l7-7.78,4.86-5.33,2.44-2.23c.73-.71,1.9-.71,2.63,0l22.62,23.68c.64.62.66,1.65.04,2.29l-.04.04-2,1.83-4,4.4-5.81,6.38c-.66.64-1.69.67-2.39.08l-25.25-20.78Zm12.25-23.35s0-.01.01-.02l1.42-1.29c.07-.07.17-.07.24,0l2,2.14c.06.07.06.16,0,.23l-1.4,1.27c-.06.06-.16.07-.23,0l-2-2.11c-.07-.05-.09-.15-.04-.22Zm-4.14,3.82l1.4-1.31c.06-.06.16-.07.23,0l2,2.08c.06.06.06.15.01.21h-.01s-1.38,1.24-1.38,1.3c-.06.06-.16.07-.23,0l-2.07-2.06c-.04-.08-.02-.17.05-.22Zm-3.82,4.17l1.29-1.41c.06-.06.16-.07.23,0l2.1,2c.06.07.06.17,0,.24l-1.27,1.39c-.06.06-.16.07-.23,0l-2.12-2c-.05-.06-.04-.15,0-.22Zm-3.88,4.22s.03-.03.04-.04l1.29-1.41c.07-.07.17-.07.24,0l2.15,2c.06.07.06.16,0,.23l-1.27,1.39c-.07.06-.16.06-.23,0l-2.18-1.95c-.07-.05-.09-.15-.04-.22Zm-2.47,2.74c.07-.06.16-.06.23,0l2.28,1.87c.06.06.07.16,0,.23l-1.3,1.38c-.07.06-.16.06-.23,0l-2.23-1.88c-.04-.06-.05-.13,0-.18h-.04l1.29-1.42Zm-4.88,5.79l1.16-1.54c.06-.06.15-.06.21-.01h.01s2.26,1.86,2.26,1.86c.06.07.06.17,0,.24l-1.14,1.51c-.06.06-.16.06-.22,0l-2.28-1.83c-.06-.06-.07-.16,0-.23Zm-3.38,4.45l1.14-1.48c.06-.06.16-.06.22,0l2.34,1.72c.06.07.06.16,0,.23l-1.14,1.52c-.07.06-.16.06-.23,0l-2.33-1.76c-.06-.07-.06-.16,0-.23Zm-3.36,4.59l1.13-1.53c.07-.06.16-.06.23,0l2.36,1.72c.06.07.06.16,0,.23l-1.12,1.51c-.07.06-.16.06-.23,0l-2.37-1.7c-.06-.07-.06-.16,0-.23Zm-3.37,4.55l.55-.77.57-.77c.05-.08.16-.11.24-.06l2.4,1.66c.06.07.06.16,0,.23l-1.12,1.52c-.05.07-.14.09-.22.05l-2.42-1.63c-.06-.06-.07-.16,0-.23Zm-2.93,4.87l.94-1.64c.04-.08.13-.11.21-.07h0l2.45,1.59c.06.07.06.16,0,.23l-1,1.61c-.04.08-.14.11-.22.07l-2.39-1.56c-.06-.06-.07-.16,0-.23Zm-3.03,4.85s0-.01.01-.01l1.01-1.64c.04-.09.14-.12.23-.08l2.49,1.53c.07.07.07.17,0,.24l-1,1.61c-.04.09-.14.12-.23.08l-2.5-1.5c-.07-.06-.07-.16-.01-.23Zm-2.91,4.84l1-1.65c.04-.09.14-.12.23-.08l2.53,1.46c.06.06.07.16,0,.23l-1,1.62c-.04.08-.14.11-.22.07l-2.54-1.43c-.06-.06-.06-.16,0-.22Zm-2.69,4.89l.81-1.67c.03-.08.12-.12.19-.09.01,0,.01,0,.02,0l2.57,1.39c.08.04.11.14.07.22l-.83,1.7c-.04.08-.13.12-.21.08l-2.56-1.41c-.08-.05-.11-.15-.06-.23Zm-2.48,5.15l.81-1.72c.03-.08.12-.12.21-.09l2.63,1.31c.08.05.11.15.06.23l-.82,1.7c-.04.08-.13.12-.21.09l-2.62-1.29c-.08-.05-.11-.15-.06-.23Zm-2.45,5.07l.8-1.69c.04-.08.13-.12.22-.09l2.66,1.21c.07.05.1.14.06.22l-.82,1.7c-.03.08-.12.12-.21.09l-2.65-1.22c-.08-.04-.1-.14-.06-.22Zm-2.44,5.1h0s.79-1.68.79-1.68c.03-.09.13-.13.22-.1l2.7,1.11c.08.04.11.13.07.21h0s-.81,1.72-.81,1.72c-.04.08-.13.12-.22.09l-2.68-1.14c-.08-.04-.11-.13-.07-.21Zm-2.08,5.35h0s.68-1.82.68-1.82c.03-.08.12-.13.2-.1l2.7,1.1c.08.04.12.14.08.22l-.66,1.78c-.03.08-.12.13-.2.1l-2.72-1.07c-.08-.03-.12-.13-.08-.21Zm-2,5.27l.68-1.78c.03-.08.12-.13.2-.1l2.73,1c.08.04.11.13.08.21l-.65,1.78c-.03.08-.12.13-.21.11l-2.75-1c-.08-.04-.12-.14-.08-.22Zm-1.93,5.41h0s.66-1.86.66-1.86c.02-.09.12-.14.21-.12l2.76,1c.08.04.12.14.08.22l-.65,1.77c-.03.09-.12.14-.21.12l-2.77-.92c-.08-.03-.12-.13-.08-.21Zm-1.47,4.3s.26-.92.28-.92c.02-.09.12-.15.21-.13l2.78.88c.08.03.12.12.09.21l-.27.9-.24.91c-.02.09-.1.14-.19.12l-2.79-.84c-.09-.03-.14-.12-.11-.21l.24-.92Zm-1.19,4.55c0-.09.1-.15.18-.13h.01l2.81.8c.08.03.13.12.1.21l-.47,1.83c-.02.09-.1.14-.19.13l-2.82-.77c-.09-.03-.13-.13-.1-.22l.48-1.85Zm-1.9,7.32l.48-1.84c.01-.09.1-.16.19-.14h.01l2.83.72c.08.03.13.12.11.21l-.47,1.82c-.02.09-.11.15-.2.14l-2.84-.69c-.09-.03-.14-.12-.11-.21h0Zm-.92,3.65c.01-.09.1-.16.19-.14h.01l2.85.64c.08.03.13.12.1.2l-.46,1.83c-.02.09-.1.14-.19.13l-2.85-.61c-.09-.02-.13-.11-.11-.2l.46-1.85Zm-1.53,7.4l.29-1.89c0-.08.08-.14.17-.13h.01l2.86.56c.09.02.14.1.13.19l-.29,1.87c-.01.09-.09.15-.18.14l-2.87-.54c-.09-.02-.14-.1-.12-.19h0Zm-.59,3.71c.01-.09.09-.16.18-.15l2.86.52c.09.02.14.11.13.2l-.29,1.86c-.01.09-.09.16-.18.15l-2.88-.46c-.09-.02-.15-.11-.13-.2l.31-1.92Zm-1.09,7.52l.24-1.93c.01-.09.09-.17.18-.16l2.89.41c.09.02.15.11.13.2l-.31,1.9c-.01.09-.09.16-.18.15l-2.82-.37c-.09,0-.15-.1-.13-.18v-.02Zm-.88,5.57l.28-1.9c.01-.09.09-.17.18-.16l2.9.33c.09.01.15.1.13.18h0s-.28,1.88-.28,1.88c-.01.09-.09.15-.18.15l-2.9-.3c-.08-.01-.14-.08-.13-.17h0Zm-.24,3.72c0-.09.07-.16.16-.16l2.91.25c.09.02.15.09.14.18l-.1,1.89c0,.09-.07.16-.16.16l-2.91-.22c-.09,0-.15-.09-.14-.18l.1-1.92Zm-.3,5.64c0-.09.07-.16.16-.16l2.91.17c.09,0,.16.09.15.18l-.1,1.89c0,.09-.07.16-.16.17l-2.92-.14c-.09-.02-.15-.09-.14-.18l.1-1.93Zm-.38,7.55l.1-1.9c0-.09.07-.16.16-.17l2.92.09c.09.02.15.09.14.18l-.09,1.88c0,.09-.07.16-.16.17l-2.92-.07c-.09,0-.16-.08-.15-.17H.41Zm-.16,5.7v-2.04c0-.09.07-.17.16-.18h2.93c.09.01.15.09.14.18v1.88c.01.08-.05.16-.13.17H.42s-.12.02-.17-.01Zm.27,5.67v-.07s-.1-1.91-.1-1.91c-.02-.08.04-.16.12-.18h.03l2.92-.07c.09.01.16.08.16.17l.09,1.88c0,.09-.05.17-.14.18h-.01l-2.92.09c-.06,0-.12-.03-.15-.09Zm.28,5.62v-.05s-.11-1.91-.11-1.91c-.02-.09.04-.17.13-.19h.01l2.92-.14c.09.01.16.08.16.17l.1,1.87c.01.09-.06.17-.15.19l-2.91.17c-.07,0-.13-.05-.15-.11Zm.3,5.68v-.08s-.11-1.92-.11-1.92c-.01-.09.05-.17.14-.19l2.91-.22c.09,0,.16.07.16.16l.14,1.95c.01.09-.05.16-.14.18l-2.91.25c-.09.02-.17-.04-.19-.13Zm.52,5.62v-.08s-.28-1.84-.28-1.84c-.02-.08.03-.16.12-.18h.01l2.9-.3c.09-.01.17.06.18.15l.28,1.87c.02.09-.04.17-.12.19h-.01l-2.9.33c-.09.01-.17-.05-.18-.14Zm.99,5.67c-.09,0-.17-.07-.18-.16l-.29-1.89c-.02-.09.04-.18.13-.2l2.89-.38c.09,0,.17.06.18.15l.28,1.87c0,.09-.04.17-.13.19l-2.88.42Zm.73,5.5l-.06-.06-.29-1.89c-.02-.09.04-.18.13-.2l2.88-.46c.09,0,.17.06.18.15l.28,1.86c.02.09-.04.18-.13.2l-2.88.49s-.09-.04-.11-.09Zm.84,5.59l-.02-.05-.3-1.9c-.03-.09.03-.18.12-.21l2.87-.53c.09-.01.17.05.18.14l.29,1.87c.01.09-.04.18-.13.2l-2.86.56c-.06.01-.12-.02-.15-.08Zm1.24,5.52l-.02-.05-.47-1.86c-.03-.08.02-.17.11-.2l2.86-.61c.09,0,.17.05.19.14l.47,1.83c.03.08-.02.17-.11.2l-2.85.64c-.07.02-.15-.02-.18-.09Zm1.57,5.57c-.09.01-.17-.05-.19-.14l-.46-1.81c-.03-.08.02-.17.11-.2l2.84-.69c.09-.02.17.03.19.12l.47,1.84c.03.09-.02.18-.11.21l-2.85.67Zm1.41,5.48c-.09.01-.17-.04-.19-.13l-.48-1.85c-.03-.08.01-.18.09-.21h.01l2.82-.77c.09,0,.17.04.19.13l.47,1.83c.02.09-.02.17-.1.21l-2.81.79Zm1.49,5.46c-.09.03-.18-.03-.21-.12l-.28-.92-.25-.93c-.03-.09.02-.18.1-.22l2.8-.84c.09-.01.17.04.19.13l.24.92s.25.9.27.9c.03.08,0,.18-.09.21l-2.77.87Zm1.74,5.29l-.65-1.8c-.04-.08-.01-.18.07-.22h.01l2.78-.98c.09-.03.18.03.21.12l.64,1.77c.04.08,0,.18-.07.21t-.02.01l-2.76,1c-.09.03-.18-.02-.21-.11Zm2.15,5.43c-.09.03-.18-.03-.21-.12l-.66-1.79c-.04-.08-.01-.19.08-.23l2.75-1c.09-.03.18.03.21.12l.65,1.77c.04.08,0,.18-.08.22l-2.74,1.03Zm1.76,5.19h-.01s-.67-1.79-.67-1.79c-.04-.08,0-.18.08-.22l2.72-1.07c.09-.03.18.02.21.11l.65,1.77c.04.08,0,.18-.08.22l-2.71,1.1c-.09.02-.17-.04-.19-.12Zm2.39,5.32c-.09.03-.18-.01-.22-.09l-.82-1.74c-.04-.07-.01-.16.06-.2,0-.01.01-.01.01-.01l2.68-1.14c.09-.03.18.01.22.09l.81,1.71c.04.08.01.17-.06.22h-.01l-2.67,1.16Zm2.24,4.99h-.01s-.82-1.73-.82-1.73c-.05-.08-.02-.18.06-.23l2.65-1.22c.09-.03.18.01.22.09l.82,1.7c.04.08.01.17-.06.22l-2.69,1.24c-.07.01-.13-.02-.17-.07Zm2.47,5.11s-.01-.03-.01-.04v.04s-.84-1.73-.84-1.73c-.05-.08-.02-.18.06-.23l2.62-1.29c.09-.03.18.01.22.09l.82,1.7c.05.08.02.18-.06.23l-2.6,1.32c-.08.03-.18-.01-.21-.09Zm2.49,5.13s-.02-.03-.02-.05v.02s-.85-1.73-.85-1.73c-.05-.08-.02-.18.06-.23l2.58-1.36c.08-.04.18-.01.22.07h0s.83,1.71.83,1.71c.05.08.02.18-.06.23l-2.55,1.38c-.07.05-.16.03-.21-.04Zm3.07,4.91c-.08.04-.17.01-.22-.06h0s-1-1.66-1-1.66c-.06-.06-.07-.16,0-.23l2.54-1.43c.08-.03.17,0,.22.07l1,1.62c.06.06.06.16,0,.22l-2.54,1.47Zm2.73,4.77s-.01,0-.01-.02v.02s-1.01-1.64-1.01-1.64c-.06-.06-.06-.16,0-.22l2.5-1.5c.08-.04.17-.02.22.06l1,1.62c.06.07.06.16,0,.23l-2.49,1.53c-.08.04-.18,0-.21-.08Zm17.34,19.55c.07-.06.16-.06.23,0l1.14,1.51c.06.07.06.16,0,.23l-2.3,1.86c-.06.06-.15.06-.21.01h0s-1.16-1.54-1.16-1.54c-.07-.07-.07-.17,0-.24l2.31-1.83Zm-3.11-4.4l1.13,1.5c.07.07.07.17,0,.24l-2.31,1.79c-.06.06-.16.07-.23,0l-1.15-1.53c-.07-.07-.07-.17,0-.24l2.33-1.76c.07-.06.16-.06.23,0Zm-3.56-4.52c.08-.05.18-.03.23.05l1.12,1.47c.06.06.07.16,0,.23l-2.37,1.77c-.08.05-.18.03-.23-.05l-1.14-1.54c-.06-.06-.07-.16,0-.23l2.39-1.7Zm-3.32-4.48c.08-.04.18-.01.23.06l1.12,1.52c.06.06.07.16,0,.23l-2.4,1.66c-.07.06-.16.06-.23,0l-.57-.77-.57-.77c-.07-.07-.07-.17,0-.24l2.42-1.69Zm-2.94-4.77c.08-.04.18,0,.22.07l1,1.61c.06.07.06.16,0,.23l-2.45,1.59c-.08.04-.17.01-.22-.06h0s-1-1.64-1-1.64c-.07-.07-.07-.17,0-.24l2.45-1.56Zm26.3-27.8s-.07.04-.11.06h-.03l-28.57,16c-.92.45-2.03.11-2.53-.79,0,0-.66-1.13-1.49-2.92l-3.14-6.5-3.13-6.51c-.86-1.77-1.36-3-1.36-3-.39-.96.06-2.05,1-2.47l30.32-12.39c.79-.38,1.74-.05,2.12.74.02.03.03.05.04.08,0,0,.41,1,1.14,2.44l2.58,5.33,2.56,5.34c.36.82.77,1.62,1.22,2.4.44.78.16,1.76-.62,2.19Zm10.79,4.35h0s.77,1.28.77,1.28c.03.07.01.16-.06.2l-2.45,1.59c-.06.06-.15.06-.21,0l-.78-1.3c-.04-.07-.01-.17.06-.21l2.46-1.57c.06-.06.16-.05.21.01Zm-2.45-3.78c.06-.05.14-.05.2,0l.77,1.27c.04.07.01.16-.06.2l-2.49,1.53c-.06.06-.15.06-.21,0l-.79-1.3c-.03-.07-.01-.15.06-.19l2.52-1.51Zm-2.09-3.69l.78,1.26c.04.07.01.15-.06.19l-2.53,1.46c-.06.06-.15.06-.21,0l-.79-1.29c-.03-.07,0-.15.07-.19l2.54-1.43c.06-.05.14-.05.2,0Zm-2.31-3.89c.07-.04.15-.02.19.05l.64,1.34c.03.08-.01.16-.08.2l-2.57,1.39c-.06.05-.14.05-.2,0l-.65-1.37c-.03-.08.01-.16.08-.2l2.59-1.41Zm-1.69-3.89l.64,1.33c.03.07-.01.16-.08.19l-2.61,1.32c-.07.04-.16.02-.2-.05l-.65-1.36c-.03-.08,0-.16.08-.2l2.62-1.29c.07-.04.16-.01.2.06Zm-2.1-4.01c.07-.04.16-.01.2.06l.65,1.33c.03.07-.01.16-.08.19l-2.64,1.25c-.07.04-.17.01-.21-.06l-.66-1.36c-.03-.07.01-.16.08-.19l2.66-1.22Zm-1.72-3.88l.65,1.34c.03.07-.01.15-.08.18l-2.67,1.17c-.07.04-.16.01-.2-.06l-.67-1.36c-.03-.07.01-.15.09-.18l2.69-1.14c.07-.03.15-.01.19.05Zm-1.54-4.1h0s.5,1.41.5,1.41c.02.08-.02.16-.1.18l-2.7,1.1c-.07.03-.15.01-.19-.06h0s-.52-1.44-.52-1.44c-.02-.08.02-.16.1-.19l2.72-1.07c.07-.03.15,0,.19.07Zm-1.69-4.18c.07-.03.16.01.19.08l.51,1.39c.03.08-.01.16-.09.19l-2.73,1c-.08.03-.16,0-.2-.08l-.52-1.42c-.02-.08.02-.16.1-.19l2.74-.97Zm-1.32-4.03v.03l.51,1.39c.02.08-.02.16-.1.18l-2.76.95c-.08.03-.16-.01-.2-.08l-.52-1.42c-.02-.07.02-.15.09-.18h.01l2.77-.92c.07-.04.16-.02.2.05Zm-1.41-4.15l.19.76c.05.24.12.48.21.71.02.07-.01.14-.08.17h-.02l-2.78.88c-.08.03-.16-.01-.2-.08-.09-.24-.16-.48-.22-.73l-.18-.73c-.01-.08.04-.17.12-.19l2.79-.85c.06-.02.14,0,.17.06Zm-1.25-4.3c.07-.02.15.02.18.09l.37,1.43c.01.08-.03.16-.11.18l-2.81.8c-.07.02-.15-.02-.18-.09l-.37-1.46c-.02-.08.03-.16.11-.18h.01l2.8-.77Zm-.93-4.25s.02.04.02.06v.04l.37,1.44c.01.08-.04.15-.12.17l-2.86.66c-.08.03-.16-.02-.19-.1l-.38-1.47c-.01-.08.04-.15.12-.16l2.83-.69c.07-.04.16-.02.21.05Zm-1.09-4.17v.04l.38,1.44c.01.08-.04.15-.12.16l-2.85.64c-.08.03-.16-.02-.19-.1l-.38-1.47c-.01-.08.04-.15.12-.16l2.85-.61c.07-.03.15-.01.19.06Zm-1-4.37c.08-.02.15.03.17.1h0s.22,1.48.22,1.48c0,.08-.05.15-.13.16l-2.87.56c-.08.02-.16-.02-.18-.1l-.22-1.5c-.01-.08.06-.16.14-.17l2.87-.53Zm-.65-4.34c.08-.01.15.03.17.11l.22,1.46c.01.08-.05.15-.13.16l-2.88.49c-.08.02-.15-.03-.17-.1h0s-.23-1.51-.23-1.51c0-.08.06-.15.14-.16l2.88-.45Zm.15-50.83c-.02.08-.09.12-.17.11l-2.83-.45c-.08-.01-.14-.08-.14-.16l.23-1.5c.02-.08.09-.12.17-.11l2.88.49c.08.01.14.08.13.16l-.27,1.46Zm.65-4.33c-.02.07-.1.12-.17.1l-2.87-.54c-.08-.01-.15-.08-.14-.16l.22-1.5c.02-.07.1-.12.17-.1l2.87.56c.08.01.14.08.13.16l-.21,1.48Zm1.2-5.72l-.38,1.42c-.03.07-.1.11-.18.1l-2.86-.61c-.08-.01-.13-.08-.12-.16h0s.38-1.47.38-1.47c.03-.07.11-.12.19-.1l2.85.65c.08.01.13.08.12.16h0Zm1.12-4.25l-.39,1.43c-.02.08-.1.12-.18.1l-2.83-.69c-.08-.01-.14-.09-.12-.17h0s.38-1.47.38-1.47c.03-.08.11-.12.19-.1l2.83.72c.08.01.14.09.12.17h0Zm.7-2.81c-.02.07-.1.11-.18.09l-2.82-.77c-.08-.02-.13-.1-.12-.18l.37-1.47c.03-.08.11-.12.19-.09l2.81.8c.08.02.12.09.11.17l-.36,1.45Zm1.47-5.71c-.06.25-.11.5-.14.75l-.08-.04-.18.72c-.03.07-.11.11-.18.08l-2.79-.84c-.08-.02-.13-.1-.12-.18l.18-.73c.06-.25.13-.49.22-.73.03-.08.12-.12.2-.09l2.79.88c.08.02.12.09.1.17h0Zm1.54-4.06l-.53,1.34c-.03.07-.12.11-.19.08l-2.77-.92c-.08-.02-.12-.1-.1-.18l.53-1.42c.04-.07.12-.11.2-.08l2.76,1c.08.02.12.09.1.17h0Zm.98-2.76c-.03.07-.12.11-.19.08l-2.74-1c-.08-.02-.12-.11-.1-.19l.52-1.43c.04-.07.12-.1.19-.07l2.73,1c.08.02.12.1.1.18l-.51,1.43Zm1.5-4.11c-.03.07-.11.1-.18.07h0l-2.71-1.07c-.08-.02-.12-.11-.1-.19l.51-1.42c.04-.07.12-.1.19-.07l2.7,1.1c.07.03.11.1.1.18l-.5,1.4Zm1.54-4.09c-.04.07-.13.1-.2.06l-2.65-1.14c-.07-.02-.11-.1-.09-.18l.66-1.36c.04-.07.14-.1.21-.06l2.67,1.17c.07.03.11.11.08.18l-.68,1.33Zm1.92-3.94c-.04.07-.13.1-.2.06l-2.62-1.2c-.08-.03-.12-.11-.09-.19l.66-1.36c.04-.07.13-.09.2-.06l2.64,1.25c.07.03.11.12.08.19l-.67,1.31Zm1.9-3.94c-.04.07-.13.1-.2.06l-2.58-1.26c-.07-.04-.11-.12-.08-.2l.65-1.37c.04-.07.13-.09.2-.06l2.6,1.32c.07.03.11.12.08.19l-.67,1.32Zm1.89-4c-.04.07-.12.09-.19.05l-2.55-1.25c-.07-.04-.11-.12-.08-.2l.65-1.37c.05-.06.14-.06.2,0l2.57,1.39c.07.04.1.12.08.19l-.68,1.19Zm2.88-5.1l-.77,1.27c-.06.06-.15.06-.21,0l-2.54-1.43c-.07-.04-.11-.13-.07-.2l.79-1.29c.06-.05.15-.05.21,0l2.53,1.46c.07.04.1.12.06.19Zm2.28-3.74l-.76,1.27c-.06.06-.15.06-.21,0l-2.51-1.5c-.07-.04-.1-.13-.06-.2h0s.78-1.3.78-1.3c.06-.06.15-.06.21,0l2.49,1.53c.07.04.1.13.06.2Zm2.29-3.76l-.78,1.28c-.06.05-.14.05-.2,0l-2.46-1.57c-.07-.04-.1-.14-.06-.21l.78-1.3c.06-.06.15-.06.21,0l2.45,1.6c.07.04.1.13.06.2Zm2.34-3.67l-.41.61-.45.59c-.06.05-.15.05-.21,0l-2.42-1.64c-.07-.04-.09-.12-.06-.19,0,0,0-.01,0-.01l.92-1.22c.06-.05.16-.05.22,0l2.4,1.66c.05.06.05.14,0,.2Zm2.68-3.49l-.89,1.19c-.06.06-.15.06-.21,0l-2.38-1.7c-.06-.06-.06-.15,0-.21l.91-1.21c.06-.06.16-.06.22,0l2.35,1.73c.06.05.06.14,0,.2Zm2.64-3.46l-.9,1.15c-.06.06-.15.06-.21,0l-2.33-1.77c-.05-.06-.05-.15,0-.21l.92-1.15c.05-.06.14-.06.2-.01h.01s2.31,1.79,2.31,1.79c.05.06.05.14,0,.2Zm2.6-3.56l-.88,1.19c-.05.06-.14.06-.2,0l-2.28-1.82c-.05-.06-.05-.15,0-.21l.9-1.22c.05-.06.14-.06.2,0l2.26,1.85c.06.06.06.15,0,.21Zm2.88-3.22l-.98,1.03c-.06.06-.15.06-.21,0l-2.23-1.88c-.06-.06-.06-.15,0-.21l1-1.12c.06-.06.16-.06.22,0l2.2,1.98c.06.05.06.14,0,.2Zm3-3.27l-.98,1.06c-.05.06-.14.06-.2.01h-.01s-2.17-1.95-2.17-1.95c-.06-.05-.06-.14-.01-.2h.01s1-1.13,1-1.13c.06-.05.15-.05.21,0l2.15,2c.06.06.06.15,0,.21Zm2.98-3.25l-.98,1.12c-.05.06-.14.06-.2,0l-2.13-2c-.05-.06-.05-.15,0-.21l1-1.12c.06-.06.15-.06.21,0l2.1,2c.05.06.05.15,0,.21Zm3.02-3.13s-1.11.94-1.11.99h.05c-.05.06-.14.06-.2,0l-2.07-2.06c-.05-.06-.05-.15,0-.21l1.12-1c.06-.05.15-.05.21,0l2,2.08c.06.05.06.14,0,.2Zm3.32-2.95h-.01s-1.13.99-1.13.99c-.06.06-.15.06-.21,0l-2-2.12c-.06-.05-.06-.14-.01-.2h.01s1.12-1.01,1.12-1.01c.06-.06.16-.06.22,0l2,2.14c.06.05.06.14.01.2Zm2.11-1.95c-.06.06-.15.06-.21,0l-2-2.17c-.06-.06-.06-.15,0-.21l1.12-1c.06-.06.15-.06.21,0l1.93,2.19c.05.05.05.13.01.19h.04l-1.1,1Zm4.34-3.99s-.03.02-.05.03l-1.05.96c-.05.06-.14.06-.2,0l-1.89-2.22c-.06-.06-.06-.16,0-.22l1.12-1c.05-.06.14-.06.2-.01h0s1.87,2.25,1.87,2.25c.05.06.05.16-.01.21Zm3.47-2.7s-.04.03-.06.04l.04-.05-.6.44-.6.44c-.06.06-.15.06-.21,0l-1.83-2.27c-.05-.06-.05-.14,0-.2l.61-.45.61-.45c.06-.06.16-.06.22,0l1.81,2.29c.06.06.06.15.01.21Zm3.5-2.63l-1.19.89c-.06.06-.15.06-.21,0l-1.77-2.32c-.06-.06-.06-.15,0-.21l1.21-.9c.06-.06.15-.06.21,0l1.75,2.34c.05.06.05.14,0,.2Zm-.54-6.27l-6.91,5.16-1.08.81c-.81.56-1.58,1.2-2.28,1.89l-3.18,2.91c-.71.58-1.77.48-2.35-.24l-22-24.3c-.65-.79-.54-1.95.25-2.6l3.89-3.52c.87-.84,1.79-1.61,2.77-2.31l1.31-1,8.4-6.29c.76-.63,1.88-.52,2.51.24,0,.01.03.03.04.05l18.84,26.8c.59.73.49,1.79-.21,2.4Zm4.06,3.62s-.03.05-.05.06v-.04s-1.2.89-1.2.89c-.06.05-.14.05-.2,0l-1.71-2.37c-.05-.06-.05-.15,0-.21l1.22-.92c.06-.05.14-.05.2,0l1.68,2.39c.07.04.1.13.06.2Zm-.12-8.55l-18.14-27.33c-.5-.84-.23-1.93.61-2.43.02-.01.05-.03.07-.04l9-5.45c2.95-1.88,6.03-3.55,9.21-5,.9-.48,2.01-.15,2.51.73l14.64,29.33c.45.79.17,1.79-.62,2.24,0,0-.01.01-.02.01-.25-.45-14.93,8.6-14.93,8.59-.83.43-1.85.15-2.33-.65Zm3.63,6.05l-.02-.03s-1.25.76-1.25.81c-.05.05-.13.06-.18.01h-.01s-1.64-2.42-1.64-2.42c-.05-.06-.05-.15,0-.21l1.27-.82c.07-.04.17-.01.21.06l1.61,2.43s.05.12.01.17Zm3.78-2.3s-.02.03-.03.04l-.02-.03-1.27.77c-.07.04-.16,0-.2-.06l-1.58-2.46c-.06-.06-.06-.15,0-.21l1.3-.78c.07-.04.17-.01.21.06l1.55,2.48c.07.04.09.13.04.19Zm3.74-2.26s-.02.02-.03.03v-.03s-1.28.77-1.28.77c-.07.04-.15.02-.19-.05,0,0,0-.01,0-.01l-1.51-2.5c-.06-.06-.06-.15,0-.21l1.29-.79c.07-.03.16,0,.2.07l1.48,2.51c.07.04.09.14.05.21Zm3.71-2.26v-.03s-1.27.78-1.27.78c-.07.04-.15.01-.19-.06l-1.44-2.54c-.05-.06-.05-.15,0-.21l1.29-.79c.07-.04.16,0,.2.07l1.41,2.55c.06.06.06.16,0,.23Zm3.89-2.02h-.01s-1.34.63-1.34.63c-.07.03-.16-.01-.19-.08l-1.35-2.56c-.06-.05-.06-.14,0-.2l1.37-.65c.08-.03.16.01.19.09l1.34,2.59s.04.13-.01.18Zm3.95-1.89h-.01s-1.34.63-1.34.63c-.07.03-.16-.01-.19-.08l-1.3-2.61c-.04-.06-.02-.15.04-.19,0-.01.01-.01.01-.01l1.37-.66c.07-.03.16,0,.19.08l1.27,2.63c.05.07.03.16-.04.21Zm3.94-1.9v-.02s-1.34.65-1.34.65c-.07.03-.16-.01-.19-.08l-1.25-2.63c-.04-.07-.02-.16.05-.21h.01l1.36-.66c.08-.03.16,0,.2.08l1.2,2.66c.05.07.03.16-.04.21Zm3.97-1.88h-.01s-1.32.59-1.32.59c-.07.03-.15-.01-.18-.08l-1.24-2.66c-.04-.08-.01-.17.07-.21,0,0,1.36-.65,1.38-.61.08-.02.16.02.19.1l1.13,2.69c.04.06.03.13-.02.18Zm4.15-1.5h-.01l-1.4.5c-.08.01-.15-.03-.18-.1l-1.08-2.71c-.03-.07,0-.15.06-.19h.01l.71-.26.71-.26c.08-.02.16.02.19.1l1.05,2.72c.04.07.01.16-.06.2Zm4.15-1.5s-.03.02-.05.02v-.02l-1.39.51c-.08.02-.16-.02-.18-.1l-1-2.74c-.03-.08,0-.16.08-.2l1.42-.52c.08-.02.16.02.18.1l1,2.75c.04.07.01.16-.06.2Zm-6.81-3.22l-4.05,1.47-3.87,1.89c-.83.36-1.8-.03-2.15-.86-.01-.01-.01-.03-.02-.04l-13.86-29.68c-.39-.95.06-2.03,1-2.43l4.71-2.26,4.92-1.82,9.87-3.61c.9-.38,1.94.03,2.32.93.01.02.02.05.03.07l10.07,31.17c.32.87-.09,1.84-.94,2.22l-8.03,2.95Zm10.88,1.7h-.01l-1.4.52c-.07.02-.15-.02-.18-.09h0s-.93-2.78-.93-2.78c-.02-.08.01-.16.08-.2l1.43-.53c.08-.02.15.03.17.1h0s.9,2.78.9,2.78c.04.07.01.16-.06.2Zm4.19-1.28s-.03.01-.05.01l.02-.02-1.44.36c-.08,0-.16-.03-.18-.11l-.86-2.79c-.03-.07.01-.15.09-.18l1.47-.37c.08-.01.16.04.18.12l.82,2.8c.03.06.01.14-.05.18Zm4.26-1.09s-.05.02-.07.02l.02-.02-1.44.37c-.08.01-.15-.04-.17-.12l-.78-2.81c-.03-.08.01-.16.09-.19l1.47-.38c.08-.02.16.03.18.11h0s.75,2.83.75,2.83c.04.07.02.15-.05.19Zm4.21-1.08s-.02.01-.04.01l.02-.02-1.43.37c-.08.01-.15-.04-.17-.12l-.7-2.83c-.03-.08.02-.16.1-.19l1.46-.38c.08,0,.15.04.17.12l.67,2.84c.03.08,0,.16-.08.2Zm4.22-1.1l-1.43.38c-.08.01-.15-.04-.16-.12l-.66-2.86c-.02-.08.02-.16.1-.19l1.46-.39c.08-.02.15.03.17.11h0s.59,2.87.59,2.87c.03.07,0,.16-.07.2Zm4.34-.71s-.03.01-.04.01l-1.44.22c-.08.01-.15-.05-.16-.13l-.55-2.87c-.02-.07.02-.15.09-.18h.01l1.5-.22c.08-.01.15.05.16.13l.52,2.87c.02.07-.02.15-.09.17Zm.1-5.41s-.02.01-.03.01l-2.63.4c-1.96.26-3.89.68-5.78,1.25l-8.34,2.15c-.9.16-1.77-.4-2-1.29l-9.22-31.43c-.24-.95.35-1.92,1.3-2.15.02,0,.05-.02.07-.02l10.17-2.61c2.3-.67,4.65-1.18,7.02-1.53l3.24-.5c1-.2,1.97.44,2.18,1.44l5.28,32.32c.19.89-.37,1.77-1.26,1.96Zm1.09-39.11s-.01-.01-.01-.02h.03l-.39-2.89c0-.09.07-.17.16-.18l1.89-.29c.09-.02.18.04.2.13l.35,2.9c0,.09-.07.17-.16.18l-1.86.28c-.09.03-.19-.02-.21-.11Zm3.13,43.88l-1.47.22c-.08,0-.15-.05-.16-.13l-.47-2.88c-.02-.08.03-.16.11-.18l1.5-.23c.08,0,.15.06.16.14l.44,2.88c.02.08-.03.15-.11.18Zm4.34-.67h-.01l-1.46.23c-.08.01-.15-.05-.16-.13l-.39-2.89c0-.08.04-.16.12-.18l1.49-.23c.08-.01.15.06.16.14l.36,2.9c.01.07-.04.14-.11.16Zm4.32-.58h-.02c-.5.01-.99.06-1.48.14-.08.01-.14-.05-.15-.13l-.31-2.9c-.01-.08.04-.16.12-.18.5-.09,1-.14,1.5-.15.08,0,.15.07.16.15l.28,2.91c.02.07-.03.14-.1.16Zm4.37-.21h0s-1.48.01-1.48.01c-.08,0-.15-.07-.15-.15l-.23-2.91c-.01-.08.04-.15.12-.16h1.53c.08,0,.15.07.15.15l.2,2.91c0,.08-.06.14-.14.15Zm4.38-.22h.01s-1.48.09-1.48.09c-.08,0-.15-.07-.15-.15l-.15-2.92c-.01-.08.05-.15.13-.16l1.51-.08c.08,0,.15.07.15.15l.12,2.92c0,.08-.06.14-.14.15Zm4.49-.39c0,.07-.04.13-.1.15v.02s-1.48.08-1.48.08c-.08,0-.14-.06-.14-.14h0s-.08-2.93-.08-2.93c0-.08.06-.16.14-.17l1.52-.08c.08,0,.14.06.14.14v2.93Zm-1.39-5.12h.01s-8.62.45-8.62.45l-4.31.2-4.26.63c-.9.09-1.71-.57-1.8-1.47v-.03l-4.41-32.46c-.07-1.01.67-1.89,1.67-2l5.2-.74,5.23-.28,10.48-.53c.97-.1,1.83.6,1.93,1.57.01.03.01.06.01.09l.44,32.75c.04.93-.65,1.72-1.57,1.82Zm211.51,156.9l.09,1.91c.01.09-.05.17-.14.18h-.01l-2.92.1c-.09-.01-.16-.08-.16-.17l-.09-1.89c-.01-.09.06-.17.15-.18l2.92-.12c.09.01.16.08.16.17Zm-.28-5.65h-.01s.1,1.92.1,1.92c.01.09-.05.17-.14.18l-2.91.18c-.09,0-.16-.07-.16-.16l-.1-1.89c-.01-.09.06-.17.15-.18l2.91-.21c.09,0,.16.07.16.16Zm-.31-5.67v.02h-.01s.11,1.93.11,1.93c.01.09-.05.17-.14.18h-.01l-2.91.26c-.08,0-.15-.07-.16-.15l-.1-1.89c-.01-.09.05-.17.14-.19l2.91-.29c.08-.01.16.05.17.13Zm-1.01-5.73c.09-.01.17.07.18.16l.28,1.9c.01.09-.04.17-.13.19l-2.9.34c-.09,0-.17-.07-.18-.16l-.28-1.87c-.01-.09.04-.17.13-.19l2.9-.37Zm-.62-5.45h-.04l.14,1,.14.95c.02.09-.03.18-.12.2l-2.89.42c-.09,0-.17-.07-.18-.16l-.14-.94-.14-.93c0-.09.04-.17.13-.19l2.88-.45c.09-.03.19.01.22.1Zm-58.73-50.16s.05-.03.08-.04h-.04l28.57-16c.92-.45,2.03-.11,2.53.79.3.46.56.94.78,1.44l1.58,3.25,2.29,4.73,2.27,4.73,1.55,3.26c.25.49.47.99.66,1.5.39.96-.05,2.05-1,2.47l-30.24,12.37c-.79.38-1.74.05-2.12-.74-.02-.03-.03-.05-.04-.08-.16-.42-.34-.83-.55-1.23l-1.3-2.67-1.87-3.88-1.88-3.87-1.27-2.67c-.18-.42-.39-.81-.64-1.19-.42-.78-.14-1.75.64-2.17Zm-2.33-3.92c-.77.51-1.81.31-2.33-.45,0,0-2.16-3.73-4.53-7.33l-5.18-6.9c-.51-.77-.32-1.81.44-2.35l25.87-20.09c.81-.58,1.94-.39,2.52.42.01.02.02.03.03.04l6.27,8.42c2.9,4.37,5.55,8.9,5.55,8.91.56.84.33,1.98-.51,2.54l-28.13,16.79Zm12.92,26.7h-.05l30.73-11.56c.96-.31,1.99.21,2.31,1.18h0s3.54,9.9,3.54,9.9l2.63,10.17c.3.95-.23,1.97-1.19,2.27,0,0-.03.01-.04.01l-31.84,7.69c-.89.26-1.82-.24-2.1-1.12l-2.12-8.35-2.94-8.1c-.26-.87.21-1.79,1.07-2.09Zm6.5,48.84c.03.08-.02.16-.1.19l-.05-.03-2.91.18c-.08.01-.15-.05-.16-.13l-.07-1.49c-.01-.08.05-.14.13-.15h.02l2.91-.21c.08-.01.15.04.16.12h0s.07,1.52.07,1.52Zm.23,4.49c-.01.08-.07.14-.15.14l-2.92.1c-.08.01-.15-.05-.16-.13l-.08-1.49c.01-.08.07-.14.15-.14l2.92-.13c.09-.02.17.04.19.13v.02l-.03-.02.08,1.52Zm-.55-8.77l-.05-.02-2.9.26c-.08.01-.15-.04-.16-.12l-.07-1.49c0-.08.07-.15.15-.15l2.91-.29c.08-.01.15.04.16.12l.07,1.52c.01.08-.04.15-.11.17Zm-3.06,29.36c0-.08.07-.14.15-.13h0l2.9.26c.08.01.15.08.15.16l-.07,1.51c-.01.08-.08.14-.16.13l-2.91-.29c-.08-.01-.15-.08-.15-.16l.08-1.48Zm3.19-2.55h0s-2.91-.2-2.91-.2c-.08,0-.15-.07-.15-.15l.07-1.49c.01-.08.08-.14.16-.13l2.91.18c.08,0,.15.07.15.15l-.07,1.52c0,.07-.08.13-.16.12Zm.22-4.45h0s-2.92-.14-2.92-.14c-.08.01-.14-.05-.15-.13h0s.08-1.5.08-1.5c.01-.08.08-.14.16-.13l2.92.1c.08-.01.14.05.15.13h0s-.08,1.52-.08,1.52c0,.08-.07.15-.15.15h-.01Zm-2.68-4.53c-.08,0-.14-.06-.15-.14l.08-1.49c.01-.08.08-.14.16-.14h2.92c.08-.01.14.05.15.13h0s-.08,1.53-.08,1.53c-.01.08-.08.15-.16.15h0s-2.92-.04-2.92-.04Zm3.01-4.47v.06s-2.91,0-2.91,0c-.08,0-.15-.06-.16-.14l-.08-1.48c0-.08.06-.14.14-.14h.01l2.92-.06c.08-.01.15.06.16.14l.09,1.51c-.02.08-.09.12-.17.11Zm-.99-31.94c-.16-.89.43-1.73,1.31-1.9h.03l32-6.82c1.01-.17,1.97.5,2.16,1.51l1.61,10.38.79,5.19c.19,1.3.39,2.6.53,3.57.11.54.16,1.08.16,1.63.09,1.02-.63,1.93-1.65,2.07l-32.63,2.86c-.87.13-1.68-.47-1.81-1.34,0-.03-.01-.06-.01-.09.01-.45-.03-.9-.13-1.34-.13-.8-.29-1.86-.46-2.93l-.66-4.26-1.24-8.53Zm-.25,12.49v.02s.24,1.5.24,1.5c.01.08-.06.15-.14.16l-2.9.33c-.08.01-.15-.04-.17-.12l-.23-1.46c-.01-.08.04-.15.12-.16h.01l2.89-.37c.08-.01.15.03.18.1Zm-2.99,39.81c.02-.08.09-.13.17-.12l2.9.34c.08,0,.14.06.14.14v.02l-.23,1.49c-.02.08-.1.13-.18.12l-2.89-.37c-.08,0-.14-.07-.13-.15l.22-1.47Zm3.43,20.64l31.84,7.69c.96.28,1.52,1.29,1.24,2.26-.01,0-.01.01-.01.02l-2.64,10.17-3.54,9.86c-.3.96-1.32,1.5-2.28,1.2-.01,0-.02-.01-.03-.01l-30.64-11.56c-.88-.28-1.37-1.22-1.1-2.1l2.94-8.1,2.13-8.35c.3-.86,1.22-1.33,2.09-1.08Zm1.14-4.4c-.89-.15-1.49-.98-1.34-1.87v-.03l1.28-8.52.66-4.26c.16-1.07.33-2.13.46-2.93.1-.44.14-.89.13-1.34.08-.88.87-1.52,1.75-1.44.02,0,.05.01.07.01l32.63,2.86c1.02.14,1.75,1.06,1.65,2.08,0,.55-.05,1.09-.16,1.63l-.53,3.57c-.39,2.59-.78,5.19-.78,5.19l-1.61,10.38c-.18,1.01-1.15,1.69-2.16,1.51l-32.05-6.84Zm35.97-22.93h-.06s-32.69-2.01-32.69-2.01c-.93-.01-1.67-.76-1.68-1.69,0,0,.23-4.31.46-8.62-.23-4.31-.46-8.62-.46-8.62.01-.93.75-1.68,1.68-1.69l32.69-2c1.01-.02,1.83.78,1.85,1.79v.03l.5,10.48c-.25,5.24-.51,10.47-.51,10.47.02,1-.77,1.84-1.78,1.86Zm4.11-49.83v.03h0s.29,1.88.29,1.88c.02.09-.03.18-.12.2l-2.88.5c-.09.01-.17-.05-.18-.14h0s-.29-1.87-.29-1.87c-.02-.09.04-.18.13-.2l2.87-.53c.09-.02.17.04.19.13Zm-.99-5.54h-.02s.45,1.85.4,1.86c.02.09-.03.18-.12.21l-2.87.63c-.09.01-.17-.06-.18-.15,0,0-.4-1.83-.4-1.84-.03-.08.01-.18.09-.21h.01l2.86-.61c.09-.03.2.02.23.11Zm-1.39-5.52v.03l-.02-.02.47,1.86c.03.08-.01.18-.09.21h-.01l-2.85.65c-.09.01-.17-.05-.19-.14l-.47-1.83c-.03-.08.02-.17.11-.2l2.84-.69c.09-.02.18.03.21.13Zm-1.42-5.49s.01.02.01.03h-.02s.48,1.85.48,1.85c.03.08-.02.17-.11.2l-2.83.73c-.09.02-.17-.03-.19-.12l-.47-1.83c-.02-.09.03-.17.11-.2l2.82-.76c.08-.03.17.02.2.1Zm-1.42-5.5s.01.03.01.05h-.03s.49,1.84.49,1.84c.03.09-.02.18-.1.21l-2.81.81c-.09.01-.17-.04-.19-.13l-.47-1.83c-.03-.09.02-.18.1-.21l2.8-.84c.08-.03.17.02.2.1Zm-1.72-5.37s.01.02.01.03h-.02s.65,1.8.65,1.8c.04.08,0,.18-.07.21t-.02.01l-2.78.88c-.09.02-.18-.03-.21-.12l-.64-1.78c-.03-.08.01-.18.09-.21l2.77-.91c.09-.04.19.01.22.09Zm-1.92-5.31h0s-.03,0-.03,0l.66,1.8c.04.08.01.18-.07.22h-.01l-2.76,1c-.09.03-.18-.02-.21-.11l-.65-1.78c-.03-.08.01-.18.09-.21l2.75-1c.09-.04.19,0,.23.08Zm-2.19-5.42c.08-.03.17.01.21.1h0s.66,1.81.66,1.81c.04.08.01.18-.07.22h0l-2.73,1c-.08.02-.17-.02-.2-.1l-.65-1.78c-.04-.08,0-.18.08-.22l2.71-1.03Zm-1.74-5.24s.01.03.01.04h-.03s.67,1.8.67,1.8c.04.08,0,.18-.08.22l-2.7,1.11c-.08.03-.16-.01-.19-.08t-.01-.02l-.66-1.78c-.03-.08,0-.18.08-.22l2.69-1.14c.08-.04.18-.01.22.07Zm-2.66-5.18c.09-.03.18.02.22.1l.82,1.73c.04.08.01.17-.06.22h-.01l-2.67,1.18c-.09.03-.18-.02-.22-.1l-.81-1.7c-.04-.08-.01-.18.07-.22l2.66-1.21Zm-2.23-5.04s.02.03.02.04h-.03l.42.86.42.87c.05.08.02.18-.06.23l-2.64,1.25c-.09.03-.19,0-.22-.1l-.41-.85-.41-.85c-.04-.08-.01-.18.07-.22l2.62-1.28c.07-.05.17-.03.22.05Zm-2.47-5.1s.02.03.02.05h-.03l.84,1.72c.05.08.02.18-.06.23l-2.6,1.33c-.08.03-.18-.01-.21-.09l-.82-1.7c-.04-.08-.01-.18.06-.23l2.58-1.36c.08-.05.17-.02.22.05Zm-2.67-5.02s.03.05.04.08h-.04s1,1.62,1,1.62c.06.06.07.16,0,.23l-2.56,1.4c-.09.03-.18,0-.23-.08l-1-1.61c-.06-.06-.07-.16,0-.23l2.55-1.42c.07-.06.18-.06.24.01Zm-2.94-4.87s.04.06.05.1h-.04s1,1.64,1,1.64c.06.06.07.16,0,.23l-2.53,1.46c-.08.04-.18.01-.22-.07l-1-1.62c-.06-.06-.07-.16,0-.23l2.51-1.49c.06-.07.16-.08.23-.02Zm-2.86-4.77s.02.02.02.03l1,1.64c.06.07.06.16,0,.23l-2.49,1.53c-.08.04-.17.02-.22-.06l-1-1.61c-.06-.07-.06-.16,0-.23l2.47-1.56c.07-.05.17-.04.22.03Zm-3-4.83s.02.02.02.03l1,1.63c.07.07.07.17,0,.24l-2.44,1.6c-.08.04-.17.01-.22-.06l-1-1.61c-.06-.07-.06-.17,0-.24l2.42-1.63c.07-.05.17-.03.22.04Zm-3.31-4.56s.01.01.02.02l1.14,1.52c.06.06.07.16,0,.23l-2.4,1.66c-.08.04-.18.02-.23-.05l-1.15-1.46c-.06-.06-.07-.16,0-.23l2.38-1.69c.07-.07.17-.07.24,0Zm-3.37-4.53l1.15,1.54c.06.06.07.16,0,.23l-2.35,1.73c-.07.06-.17.06-.23,0l-1.13-1.52c-.06-.07-.06-.16,0-.23l2.33-1.76c.07-.06.17-.05.23.01Zm-3.42-4.57s.02.01.02.02l1.15,1.53c.06.07.06.16,0,.23l-2.3,1.8c-.06.05-.16.05-.22,0l-1.15-1.56c-.06-.07-.06-.16,0-.23l2.28-1.82c.07-.05.17-.04.22.03Zm-3.51-4.43l1.28,1.43c.06.06.07.16,0,.23l-2.25,1.86c-.06.06-.16.06-.22,0l-1.26-1.41c-.05-.06-.05-.14-.01-.2v-.03s2.22-1.88,2.22-1.88c.07-.07.17-.07.24,0Zm-6.2-2.18l2.17-2.01c.07-.07.17-.07.24,0l1.28,1.42c.06.06.07.16,0,.23l-2.19,1.99c-.07.06-.16.06-.23,0l-1.27-1.4c-.06-.07-.06-.16,0-.23Zm-3.76-4.16l2.13-2.03c.06-.06.16-.07.23,0l.65.71.65.71c.07.07.07.17,0,.24l-2.15,2c-.07.07-.17.07-.24,0l-.63-.7-.64-.7c-.06-.07-.06-.16,0-.23Zm-3.75-4.19l2.07-2.02c.06-.06.16-.07.23,0l1.29,1.41c.07.06.07.16.01.23,0,0,0,.01-.01.01l-2.09,2c-.06.06-.16.07-.23,0l-1.27-1.39c-.06-.07-.06-.17,0-.24Zm-4.02-3.79l1.98-2.11c.07-.07.17-.07.24,0l1.41,1.29c.06.06.07.16,0,.23l-2,2.09c-.07.06-.17.06-.24,0l-1.39-1.27c-.06-.06-.07-.16,0-.23Zm3.36,6.47l3.53,3.87,7.05,7.78c.68.68.69,1.78.01,2.46-.04.04-.08.08-.12.11l-25.32,20.78c-.7.59-1.73.56-2.39-.08l-5.81-6.38s-5.78-6.4-6-6.23c-.64-.62-.66-1.65-.04-2.29l.04-.04,22.66-23.68c.73-.72,1.91-.72,2.64,0,1.34,1.14,2.6,2.37,3.75,3.7Zm-7.52-10.18l1.99-2.16c.06-.06.16-.07.23,0l1.42,1.29c.06.07.06.16,0,.23l-2,2.14c-.07.06-.17.06-.24,0l-1.4-1.27c-.06-.06-.07-.16,0-.23Zm-4.11-3.75l1.91-2.2c.06-.06.16-.07.23,0l1.42,1.29c.06.06.07.16,0,.23l-1.93,2.18c-.06.06-.16.07-.23,0l-1.4-1.27c-.06-.06-.07-.16,0-.23Zm-4.2-3.59l1.83-2.29c.07-.07.17-.07.24,0,0,0,1.5,1.11,1.5,1.18.06.07.06.17,0,.24l-1.86,2.25c-.07.06-.16.06-.23,0l-1.48-1.16c-.06-.06-.06-.16,0-.22Zm-4.45-3.41l1.77-2.28c.07-.07.17-.07.24,0l1.53,1.15c.06.06.07.16,0,.23l-1.8,2.3c-.07.06-.17.06-.24,0l-1.5-1.17c-.06-.06-.07-.16,0-.23Zm-4.47-3.32l1.71-2.34c.06-.06.16-.07.23,0l1.54,1.15c.06.06.07.16,0,.23l-1.73,2.32c-.07.06-.16.06-.23,0l-1.52-1.13c-.06-.07-.06-.16,0-.23Zm-4.44-3.31l1.61-2.4c.05-.06.15-.07.21-.02t.02.02l1.54,1.14c.08.05.1.15.05.23l-1.68,2.39c-.06.06-.16.07-.23,0l-1.52-1.13c-.06-.07-.06-.16,0-.23Zm2.13,4.44s.04.03.06.05h.02l8.4,6.29c1.95,1.41,3.8,2.95,5.54,4.61l2.43,2.2c.79.65.9,1.81.25,2.6l-22,24.3c-.58.71-1.63.82-2.34.24l-2-1.82c-1.42-1.38-2.94-2.65-4.55-3.79l-6.91-5.16c-.71-.6-.82-1.65-.25-2.39l18.84-26.8c.6-.78,1.73-.93,2.51-.33Zm-6.86-7.5l1.59-2.45c.07-.06.16-.06.23,0l1.64,1c.07.04.1.13.06.2h0s-1.6,2.47-1.6,2.47c-.07.06-.16.06-.23,0l-1.62-1c-.08-.04-.11-.14-.07-.22Zm-4.75-2.91l1.51-2.48c.07-.06.16-.06.23,0l1.64,1c.08.04.11.13.07.21h0s-1.54,2.49-1.54,2.49c-.07.06-.16.06-.23,0l-1.61-1c-.08-.04-.11-.14-.07-.22Zm-4.77-2.82l1.44-2.54c.06-.06.16-.07.23,0l.82.49.82.5c.09.04.12.14.08.23l-1.47,2.52c-.07.06-.16.06-.23,0l-1.62-.98c-.08-.04-.11-.14-.07-.22Zm-3.49-5.35c.05-.07.15-.1.23-.06,0,0,1.68.86,1.68.91.09.04.12.14.08.23l-1.41,2.56c-.06.06-.16.06-.22,0l-1.66-.89c-.08-.03-.12-.12-.09-.21l1.39-2.54Zm-5.07-2.49c.05-.08.15-.11.23-.07,0,.01.01.01.01.01l1.72.83c.08.04.12.13.09.22l-1.34,2.6c-.05.07-.15.1-.23.06l-1.69-.82c-.08-.03-.12-.12-.09-.21l1.3-2.62Zm-5.09-2.46c.04-.08.13-.11.21-.07h.01l1.73.83c.08.04.12.13.09.21l-1.27,2.63c-.05.07-.14.1-.22.06l-1.7-.82c-.08-.04-.12-.13-.09-.22l1.24-2.62Zm-5.1-2.44c.04-.08.13-.11.21-.07h.01l1.74.83c.08.04.12.13.09.22l-1.19,2.66c-.04.08-.13.11-.21.07h-.01l-1.7-.82c-.08-.04-.12-.13-.09-.21l1.15-2.68Zm-5.24-2.14c.04-.08.14-.12.23-.08l1.8.67c.09.02.14.11.11.2h0s-1.16,2.74-1.16,2.74c-.04.08-.14.11-.22.08l-1.77-.65c-.09-.03-.14-.12-.11-.21l1.12-2.75Zm-5.31-2c.03-.08.13-.12.21-.08h0l1.8.66c.09.02.14.11.11.2h0s-1,2.74-1,2.74c-.04.08-.14.12-.22.08l-1.77-.65c-.09-.03-.14-.12-.11-.21l.97-2.74Zm-5.32-1.94c.03-.08.12-.12.21-.09l1.81.66c.09.02.14.12.12.21l-1,2.76c-.04.08-.14.12-.22.08l-1.78-.65c-.09-.03-.14-.12-.11-.21l.97-2.76Zm-5.33-1.9c.04-.08.13-.13.22-.1l1.81.64c.09.02.14.12.12.21l-.89,2.78c-.03.08-.12.12-.21.09l-1.78-.63c-.09-.02-.14-.1-.12-.19l.85-2.8Zm-5.48-1.43c.03-.08.12-.13.21-.1l1.86.48c.08.01.14.09.12.17v.02l-.82,2.8c-.03.08-.12.12-.2.1l-1.84-.48c-.09-.02-.14-.1-.13-.19l.8-2.8Zm-5.48-1.41c.03-.09.12-.14.21-.11l1.86.48c.09.02.14.1.13.19l-.74,2.82c-.03.08-.12.13-.21.1l-1.9-.41c-.09-.02-.14-.1-.13-.19l.78-2.88Zm-5.48-1.4c.02-.09.11-.13.2-.11l.93.23.93.24c.09.01.16.1.14.19h0s-.66,2.85-.66,2.85c-.03.08-.12.13-.21.1l-.92-.23-.92-.23c-.09-.02-.14-.1-.13-.19l.64-2.85Zm-5.53-1.18c.02-.09.12-.14.21-.12l1.89.3c.08,0,.15.07.14.16v.02l-.58,2.86c-.02.09-.11.14-.2.12l-1.86-.29c-.09-.01-.15-.09-.14-.18l.54-2.87Zm-5.64-.82c.02-.09.1-.14.19-.13t.02.01l1.89.29c.09.01.16.09.15.18l-.51,2.88c-.03.08-.11.13-.2.12l-1.86-.29c-.09-.01-.16-.09-.15-.18l.47-2.88Zm-5.59-.85c.01-.09.1-.15.18-.13h0l1.9.29c.09.01.17.09.16.18l-.43,2.88c-.02.09-.11.15-.2.13l-1.87-.28c-.09-.01-.16-.09-.15-.18l.4-2.89Zm-5.59-.84c.01-.08.08-.14.16-.13h.03l1.9.28c.09,0,.16.08.15.17h0s-.35,2.91-.35,2.91c-.02.08-.09.14-.18.13l-1.87-.28c-.09-.01-.16-.09-.15-.18l.31-2.9Zm-5.63-.46c.01-.09.09-.16.19-.15l1.91.1c.09,0,.16.07.16.16l-.27,2.91c-.02.09-.1.15-.19.14l-1.88-.1c-.09,0-.16-.07-.16-.16l.24-2.9Zm-5.64-.3c.01-.09.09-.16.19-.15l1.91.1c.09-.01.16.06.17.15h0s-.18,2.96-.18,2.96c-.02.09-.09.15-.18.14l-1.88-.1c-.09,0-.16-.07-.17-.16l.14-2.94Zm-5.64-.28c.01-.09.09-.15.18-.14l1.92.09c.09-.01.16.06.17.15h0s-.11,2.93-.11,2.93c-.01.09-.09.15-.18.14l-1.89-.07c-.09,0-.16-.07-.16-.16l.07-2.94Zm-5.49-.41h.02l1.91.09c.09,0,.16.07.17.16v2.92c-.01.08-.09.14-.17.14l-1.89-.09c-.09,0-.16-.07-.17-.16l-.02-2.91c0-.08.07-.15.15-.15Zm1.58,46.9c.01.08-.05.14-.13.15l-1.49-.08c-.08-.01-.14-.08-.14-.16v-2.93c-.01-.08.05-.14.13-.15h.01l1.52.09c.08.01.15.09.14.17l-.04,2.91Zm4.39.24c0,.08-.06.14-.14.15l-1.49-.08c-.08-.01-.14-.08-.13-.16l.08-2.92c-.01-.08.05-.14.13-.15h0l1.52.08c.08.01.14.08.13.16l-.11,2.92Zm4.39.22c0,.08-.07.15-.15.15l-1.48-.07c-.08,0-.14-.07-.13-.15h0s.16-2.92.16-2.92c0-.08.07-.15.15-.15l1.51.07c.08.02.14.09.13.17l-.19,2.9Zm4.39.2c.02.09-.04.17-.13.19h-.04l-1.49-.06c-.08-.01-.14-.08-.13-.16l.24-2.91c.01-.08.07-.14.15-.15l1.51.07c.08.01.14.08.13.16l-.24,2.86Zm4.35.53c-.01.08-.07.14-.15.13l-1.47-.23c-.08-.02-.13-.09-.12-.17l.32-2.9c.01-.08.07-.14.15-.14l1.5.24c.08.02.12.1.11.18l-.34,2.89Zm1.54-5.02c0-.52-17.22-1.26-17.22-1.26-.91-.11-1.59-.92-1.54-1.84l.44-32.75c.06-.98.91-1.73,1.89-1.66h.06s20.91,1,20.91,1.55c1,.11,1.74.99,1.67,2l-4.41,32.46c-.07.9-.86,1.58-1.77,1.5h-.03Zm2.8,5.74c-.01.08-.08.14-.16.13l-1.47-.23c-.08-.02-.12-.09-.11-.17l.4-2.89c.01-.08.08-.15.16-.14l1.5.23c.08.02.13.1.11.18l-.43,2.89Zm4.84-2.22l-.5,2.87c-.02.08-.09.14-.17.13l-1.46-.22c-.08-.01-.13-.08-.12-.16h0s.47-2.89.47-2.89c.01-.08.09-.15.17-.14l1.49.23c.08,0,.14.09.12.17h0Zm4.43.66l-.59,2.85c-.02.08-.09.14-.17.13l-1.46-.21c-.08-.02-.12-.09-.11-.17l.55-2.86c.01-.08.09-.15.17-.14l1.5.22c.08.01.13.09.11.16v.02Zm3.65,3.96c-.02.08-.09.13-.17.12l-.72-.19-.72-.19c-.08.02-.16-.04-.18-.12,0-.02,0-.05.01-.08l.63-2.85c.01-.08.08-.13.16-.12h.01l.73.19.73.19c.08.03.12.11.1.19l-.58,2.86Zm4.24,1.1c-.02.08-.09.12-.17.11l-1.43-.37c-.08-.02-.12-.1-.1-.18l.71-2.83c.02-.08.09-.13.17-.12l1.46.38c.08.03.12.11.09.19l-.73,2.82Zm4.25,1.08c-.02.08-.09.13-.17.12l-1.44-.36c-.07-.03-.11-.11-.09-.18l.79-2.81c.02-.08.1-.13.18-.12l1.47.37c.07.02.11.1.09.18l-.83,2.8Zm.12-5.35l.03.04-8.42-2.19s-2.07-.62-4.18-1l-4.26-.63c-.89-.18-1.47-1.05-1.29-1.94,0-.02.01-.04.01-.06l5.32-32.31c.21-1,1.19-1.64,2.19-1.44l5.19.81c2.58.48,5.1,1.21,5.1,1.21l10.18,2.62c.96.19,1.58,1.12,1.39,2.08-.01.03-.01.06-.02.09l-9.22,31.43c-.23.9-1.11,1.46-2.02,1.29Zm4.08,6.58c-.02.07-.1.12-.17.1l-1.39-.51c-.07-.02-.11-.09-.1-.16,0,0,.01-.01.01-.02l.86-2.79c.02-.08.1-.13.18-.12l1.42.52c.07.04.11.12.08.2l-.89,2.78Zm2.3-6.58l.02.04,10.07-31.17c.35-.91,1.37-1.37,2.28-1.03.03.01.05.02.07.03l9.87,3.61c3.32,1.13,6.54,2.49,9.66,4.09.94.4,1.38,1.48,1,2.42l-13.83,29.69c-.34.84-1.31,1.25-2.15.9h-.01c.2-.48-16-6.31-16-6.31-.89-.37-1.32-1.37-.98-2.27Zm1.8,8.1c-.02.08-.1.12-.18.1l-1.39-.51c-.07-.04-.1-.12-.08-.19l.94-2.76c.02-.08.1-.12.18-.1l1.42.52c.07.04.11.12.08.2l-.97,2.74Zm5.14-1.22l-1.03,2.73c-.02.08-.1.12-.18.1l-1.39-.51c-.07-.03-.11-.11-.08-.18h0s1-2.75,1-2.75c.02-.08.11-.12.19-.1l1.42.52c.07.04.1.12.07.19Zm4.21,1.52l-1.12,2.7c-.03.07-.11.11-.19.09l-1.39-.5c-.07-.03-.1-.11-.07-.18h0s1.09-2.72,1.09-2.72c.03-.07.11-.12.19-.1l1.42.52c.07.04.1.12.07.19Zm4.07,1.84l-1.19,2.68c-.03.07-.11.11-.18.08l-1.34-.65c-.07-.04-.1-.13-.06-.2l1.16-2.68c.03-.08.11-.12.19-.09l1.36.66c.07.04.1.13.06.2Zm4.02,1.95l-1.26,2.64c-.03.07-.12.11-.19.08l-1.34-.65c-.07-.04-.09-.12-.06-.19.01,0,.01-.01.01-.01l1.23-2.64c.03-.08.11-.12.19-.09l1.36.66c.07.04.1.13.06.2Zm4.08,1.93l-1.34,2.61c-.04.07-.12.1-.19.07l-1.34-.64c-.07-.04-.1-.13-.06-.2l1.31-2.61c.04-.07.12-.11.2-.08l1.36.65c.07.04.1.13.06.2Zm3.95,2.05l-1.37,2.56c-.04.07-.12.1-.19.06-.42-.27-.85-.5-1.3-.7-.07-.04-.09-.12-.06-.19.01,0,.01-.01.01-.01l1.38-2.57c.04-.07.12-.11.2-.08.46.21.9.45,1.33.72.05.06.05.15,0,.21Zm3.85,2.34l-1.48,2.52c-.04.07-.13.1-.2.06l-1.26-.78c-.05-.06-.05-.14,0-.2l1.45-2.54c.04-.07.12-.1.19-.06l.65.39.65.4c.05.06.05.15,0,.21Zm-3.39-4.8l-3.88-1.87c-.8-.44-1.09-1.44-.65-2.24,0-.01,0-.01,0-.02l14.63-29.3c.5-.89,1.62-1.22,2.52-.73l4.71,2.31,4.49,2.71,9,5.45c.86.45,1.19,1.52.73,2.38-.02.04-.04.07-.06.11l-18.11,27.29c-.48.79-1.5,1.08-2.32.65l-7.32-4.37-3.75-2.37Zm7.2,7.12l-1.54,2.48c-.04.07-.13.1-.2.06l-1.27-.77c-.05-.06-.05-.15,0-.21l1.52-2.49c.04-.07.13-.1.2-.06l1.29.78c.05.06.05.15,0,.21Zm3.84,2.3l-1.63,2.44c-.04.07-.12.09-.19.06l-1.28-.77c-.06-.05-.06-.14,0-.2l1.59-2.45c.04-.07.14-.1.21-.06l1.3.78c.06.05.06.14,0,.2Zm3.64,2.56l-1.67,2.39c-.05.06-.14.06-.2,0l-1.19-.9c-.06-.06-.06-.15,0-.21l1.65-2.41c.05-.06.14-.06.2,0l1.21.92c.05.06.05.15,0,.21Zm3.58,2.7l-1.74,2.33c-.06.05-.14.05-.2,0l-1.19-.89c-.06-.06-.06-.15,0-.21l1.71-2.36c.06-.05.14-.05.2,0l1.22.91c.06.06.06.16,0,.22Zm3.58,2.65l-1.8,2.3c-.06.05-.15.05-.21,0l-1.19-.88c-.06-.05-.06-.14-.01-.2h.01s1.78-2.33,1.78-2.33c.06-.06.15-.06.21,0l1.21.9c.06.06.06.15,0,.21Zm1.7,4.95c-.05.06-.14.06-.2,0l-1.17-.91c-.06-.05-.06-.14,0-.2l1.84-2.26c.06-.05.15-.05.21,0,0,0,1.19.87,1.19.93.05.06.05.16,0,.22l-1.87,2.22Zm3.04,2.96l-1.1-1c-.06-.06-.06-.15,0-.21l1.9-2.22c.05-.06.14-.06.2,0l1.12,1c.03.07-.01.16-.08.19l.08.05-1.92,2.19c-.05.06-.14.06-.2,0Zm3.27,3.08c-.08-.02-.12-.1-.11-.18l-1.02-.92c-.06-.05-.06-.14,0-.2l2-2.16c.06-.06.15-.06.21,0l1.12,1c.06.06.06.15,0,.21l-2,2.14c-.02.09-.11.13-.2.11Zm3.35,2.68c-.06.05-.15.05-.21,0l-1.1-1c-.06-.05-.06-.14-.01-.2h.01s2-2.12,2-2.12c.06-.06.16-.06.22,0l1.12,1c.06.06.06.15,0,.21l-2.03,2.11Zm3.07,3.12c-.05.06-.14.06-.2.01h-.01s-1-1.11-1-1.11c-.05-.06-.05-.15,0-.21l2.08-2.06c.06-.06.15-.06.21,0l1,1.13c.06.06.06.15,0,.21l-2.08,2.03Zm2.75,3.31v-.05s-1.01-1.1-1.01-1.1c-.06-.06-.06-.15,0-.21l2.13-2c.06-.06.15-.06.21,0l1.02,1.12c.05.06.05.15,0,.21l-2.15,2c-.05.06-.14.07-.2.03Zm2.97,3.26s-.01-.01-.02-.01l.04-.06-1-1.1c-.06-.05-.06-.14,0-.2l2.18-1.94c.06-.05.15-.05.21,0l1,1.12c.06.06.06.15,0,.21l-2.21,1.92c-.04.07-.13.1-.2.06Zm3.11,3.34c-.08.02-.15-.03-.17-.11l.08-.06-1-1.1c-.06-.05-.06-.14,0-.2l2.23-1.88c.06-.05.16-.05.22,0l1,1.12c.05.06.05.15,0,.21l-2.25,1.85c.02.08-.03.15-.11.17Zm2.58,3.54c-.08.02-.17-.04-.18-.13l.12-.06-.89-1.19c-.05-.06-.05-.14,0-.2l2.28-1.82c.05-.06.14-.06.2,0h.01s.9,1.23.9,1.23c.05.06.05.15,0,.21l-2.3,1.79c.01.09-.05.17-.14.18Zm2.48,3.43l.08-.11-.89-1.19c-.05-.06-.05-.14,0-.2l2.33-1.75c.06-.06.15-.06.21,0l.91,1.21c.06.06.06.15,0,.21l-2.43,1.83c-.06.06-.15.06-.21,0Zm2.76,3.53s-.1-.03-.12-.08l.08-.06-.89-1.18c-.06-.05-.06-.14,0-.2l2.38-1.69c.06-.06.16-.06.22,0l.91,1.21c.05.06.05.14,0,.2l-2.4,1.67c0,.09-.09.15-.18.13Zm2.48,3.65c-.07,0-.13-.04-.15-.1l.09-.07-.76-1.27c-.04-.07-.01-.17.06-.21l2.42-1.62c.05-.06.14-.06.2,0l.78,1.3c.04.07.01.17-.06.21l-2.44,1.6c0,.08-.06.15-.14.16Zm2.3,3.78c-.09.02-.18-.03-.2-.12l.11-.07-.77-1.27c-.04-.07-.01-.16.06-.2l2.47-1.56c.05-.06.14-.06.2-.01h.01s.79,1.31.79,1.31c.04.07,0,.16-.07.2l-2.48,1.53c.02.09-.04.18-.12.19Zm2.39,3.59c-.06.06-.15.06-.21,0l-.78-1.27c-.04-.07,0-.15.06-.19l2.51-1.49c.06-.06.15-.06.21,0l.79,1.29c.04.07,0,.16-.07.2l-2.51,1.46Zm2.13,3.84c-.05,0-.1-.03-.13-.08l.09-.07-.78-1.26c-.04-.07-.02-.15.05-.19,0,0,.01,0,.01,0l2.55-1.42c.06-.06.16-.06.22,0l.79,1.29c.04.07,0,.16-.07.2l-2.56,1.39c0,.09-.08.16-.17.15Zm1.94,3.99c-.09.01-.15-.05-.16-.13l.09-.07-.64-1.34c-.03-.08,0-.16.08-.2l2.59-1.35c.06-.04.15-.02.19.04.01,0,.01.01.01.01l.65,1.36c.03.08,0,.16-.08.2l-2.6,1.33c.01.08-.05.15-.13.15Zm2.02,3.8c-.07.04-.16.01-.2-.06l-.32-.67-.32-.67c-.03-.07,0-.16.08-.19l2.62-1.28c.07-.04.16-.02.2.05l.33.69.33.68c.03.08-.01.16-.08.2l-2.64,1.25Zm1.71,4.03s-.06-.04-.08-.07l.08-.08-.65-1.33c-.03-.07.01-.16.08-.19l2.66-1.21c.07-.04.17-.01.21.06l.66,1.36c.03.07,0,.16-.08.19l-2.67,1.18c-.03.08-.12.12-.21.09Zm1.77,4.01s-.07-.03-.09-.07l.08-.09-.5-1.4c-.02-.08.02-.16.09-.19l2.69-1.14c.07-.03.15,0,.19.07l.51,1.43c.01.08-.03.15-.1.18l-2.7,1.11c-.02.07-.1.12-.17.1Zm1.57,4.15c-.07.02-.15-.02-.17-.1l.08-.1-.5-1.4c-.02-.07.02-.15.09-.18h.01l2.72-1.07c.07-.03.15-.01.19.06h0s.52,1.44.52,1.44c.01.08-.03.15-.1.18l-2.73,1c.02.08-.03.16-.11.17Zm1.41,4.08s-.06-.05-.07-.08l.08-.09-.52-1.39c-.02-.08.02-.16.1-.18l2.75-1c.08-.03.16.01.2.08l.52,1.42c.02.08-.02.16-.1.18l-2.76,1c-.04.07-.13.1-.2.06Zm1.52,4.09s-.05-.03-.07-.06l.08-.09-.52-1.39c-.03-.07,0-.14.07-.17,0-.01.02-.01.03-.01l2.77-.91c.08-.03.16,0,.2.08l.53,1.42c.02.08-.02.16-.1.18l-2.78.88c-.04.08-.14.11-.21.07Zm1.18,4.23s-.06-.04-.08-.08l.09-.09-.37-1.43c0-.08.04-.15.11-.18l2.8-.84c.08-.03.16.01.19.09l.37,1.46c.01.08-.04.16-.12.18l-2.81.8c-.03.07-.11.11-.18.09Zm1.16,4.23c-.07.02-.15-.02-.18-.09l-.37-1.44c-.01-.08.03-.15.11-.17l2.82-.76c.08-.03.16.01.19.09l.38,1.47c.01.08-.04.15-.12.17l-2.83.73Zm1.1,4.25c-.08.02-.16-.02-.18-.1l-.37-1.44c-.01-.07.04-.14.11-.16l2.84-.68c.08-.03.16.01.19.09l.38,1.47c.01.08-.04.15-.12.17l-2.85.65Zm.9,4.17l-.03-.02-.31-1.44c-.02-.08.03-.15.11-.17h.01l2.86-.6c.08-.02.17.03.19.11,0,0,.37,1.46.32,1.47,0,.09-.05.16-.13.18l-2.86.57c-.07.01-.14-.03-.16-.1Zm.63,4.34l-.02-.02-.22-1.47c-.01-.08.05-.16.13-.17l2.87-.53c.08-.02.16.03.18.11l.22,1.49c.01.08-.06.16-.14.17l-2.88.49c-.06.01-.11-.02-.14-.07Zm.62,4.32h0s-.1-.74-.1-.74l-.11-.74c0-.08.05-.15.13-.16l2.89-.44c.08-.02.16.03.18.11l.11.75.11.75c.01.08-.06.15-.14.16l-2.89.42c-.08.02-.16-.03-.18-.11Zm-.1,47.26l.11-.73c.02-.08.09-.12.17-.11l2.89.41c.08,0,.15.08.14.16l-.11.75-.11.75c-.02.08-.1.13-.18.12l-2.88-.45c-.08-.01-.14-.08-.13-.16l.1-.74Zm-.55,3.6c.02-.08.09-.12.17-.11l2.88.5c.08.01.14.08.14.16l-.22,1.5c-.02.08-.1.13-.18.11l-2.87-.53c-.08-.01-.14-.08-.13-.16l.21-1.47Zm-.78,5.08c.09-.34.18-.68.18-.69l-.04-.06c.01-.08.09-.13.16-.11h.01l2.86.57c.08.02.14.09.13.17l-.32,1.48c-.03.07-.11.11-.19.09l-2.86-.6c-.08-.01-.13-.08-.12-.16,0,0,.09-.34.19-.69Zm-.91,3.5c.03-.07.11-.11.18-.09l2.84.65c.08.01.13.08.12.16h0s-.38,1.47-.38,1.47c-.02.08-.11.12-.19.1l-2.84-.68c-.08-.01-.13-.08-.12-.16l.39-1.45Zm-1.1,4.24c.03-.07.11-.11.18-.09l2.83.73c.08.02.13.09.12.17l-.38,1.47c-.03.08-.11.12-.19.09l-2.82-.76c-.08-.02-.13-.09-.12-.17l.38-1.44Zm-1.08,4.25c.02-.07.1-.11.18-.09l2.81.81c.08.01.14.09.12.17h0s-.37,1.47-.37,1.47c-.03.07-.11.11-.18.09l-2.8-.84c-.08-.02-.12-.1-.11-.18l.35-1.43Zm-1.17,4.21c.04-.07.12-.11.2-.08l2.78.88c.08.02.12.1.1.18l-.53,1.42c-.04.07-.12.11-.2.08l-2.77-.91c-.08-.02-.12-.1-.1-.18l.52-1.39Zm-1.52,4.11c.03-.07.12-.11.19-.08l2.76,1c.08.02.12.1.1.18l-.52,1.42c-.04.07-.12.1-.19.07l-2.75-1c-.07-.02-.12-.1-.1-.17l.51-1.42Zm-1.51,4.11c.03-.07.11-.1.18-.07h.01l2.73,1c.08.02.12.1.1.18l-.52,1.42c-.04.07-.13.11-.2.07l-2.72-1.06c-.08-.03-.12-.11-.1-.19l.52-1.35Zm-1.49,4.12c.03-.07.11-.1.18-.07h0l2.7,1.11c.08.03.13.12.1.2l-.51,1.42c-.03.07-.11.11-.18.08-.01,0-.01-.01-.02-.01l-2.69-1.14c-.07-.03-.11-.11-.09-.19l.5-1.4Zm-2.42,5.33l.66-1.33c.04-.07.13-.09.2-.06l2.67,1.18c.07.03.11.12.08.19l-.66,1.36c-.04.07-.13.1-.2.06h-.01l-2.66-1.21c-.07-.03-.11-.11-.08-.18h0Zm-1.9,3.95l.33-.67.32-.67c.04-.07.13-.09.2-.05l2.64,1.25c.07.03.11.12.08.19l-.33.68-.33.69c-.04.07-.14.1-.21.06l-2.62-1.28c-.08-.03-.11-.12-.08-.2Zm-4.94,15.78l-.78,1.3c-.06.06-.15.06-.21,0l-2.47-1.56c-.07-.04-.1-.13-.06-.2l.77-1.27c.05-.06.14-.06.2,0l2.48,1.53c.07.04.11.13.07.2Zm2.32-3.81l-.78,1.29c-.06.06-.15.06-.21,0l-2.51-1.49c-.07-.04-.1-.12-.06-.19l.77-1.27c.06-.06.15-.06.21,0l2.52,1.46c.07.04.1.13.06.2Zm2.35-3.81l-.8,1.29c-.06.05-.15.05-.21,0l-2.55-1.42c-.07-.04-.1-.12-.06-.19l.78-1.27c.06-.05.15-.05.21,0l2.56,1.39c.07.04.11.13.07.2Zm1.09-2.6h0l-2.59-1.4c-.07-.03-.11-.12-.08-.19l.64-1.34c.04-.07.13-.1.2-.06l2.6,1.33c.07.04.11.12.08.2l-.65,1.37c-.03.08-.11.12-.19.09Zm1.29,6.1c-.79-.38-1.13-1.32-.76-2.12.02-.03.03-.06.05-.09.25-.38.47-.77.64-1.19l1.27-2.67,1.86-3.88,1.87-3.88,1.29-2.66c.21-.4.4-.81.55-1.23.35-.81,1.28-1.19,2.1-.85.02.01.04.02.06.03l30.32,12.39c.94.42,1.39,1.51,1,2.47-.19.51-.41,1.01-.66,1.5l-1.56,3.26-2.27,4.73-2.33,4.69-1.58,3.25c-.22.5-.48.98-.78,1.44-.5.9-1.61,1.24-2.53.79l-28.54-15.98Zm17.17,45.74l-1.08,1.49c-.06.06-.16.07-.23,0l-2.3-1.73c-.06-.07-.06-.16,0-.23l1.14-1.51c.06-.06.16-.06.22,0l2.25,1.74c.07.07.07.17,0,.24Zm3.47-4.57l-1.16,1.54c-.06.06-.16.06-.22,0l-2.33-1.76c-.06-.07-.06-.16,0-.23l1.13-1.51c.06-.06.16-.07.23,0l2.35,1.73c.06.06.07.16,0,.23Zm3.35-4.56l-1.12,1.56c-.05.08-.15.1-.23.05l-2.4-1.72c-.06-.07-.06-.16,0-.23l1.12-1.51c.05-.07.15-.09.23-.05l2.4,1.67c.06.06.07.16,0,.23Zm3.21-4.65l-1.02,1.63c-.04.08-.13.11-.21.07h-.01l-2.42-1.62c-.06-.07-.06-.17,0-.24l1-1.61c.04-.08.13-.11.21-.07h.01l2.44,1.6c.07.07.07.17,0,.24Zm3-4.83l-1.02,1.64c-.04.08-.13.11-.21.07h-.01l-2.47-1.56c-.06-.07-.06-.16,0-.23l1-1.61c.04-.08.13-.11.21-.07h0l2.49,1.53c.06.07.06.17,0,.23Zm2.87-4.85l-.95,1.65c-.04.08-.14.11-.22.07l-2.57-1.5c-.05-.06-.05-.16,0-.22l1-1.62c.04-.08.14-.11.22-.07l2.52,1.47c.06.06.06.16,0,.22Zm2.89-4.85l-.91,1.66c-.04.08-.14.11-.22.07l-2.66-1.44c-.06-.06-.06-.16,0-.22l1-1.62c.04-.08.14-.12.23-.08l2.56,1.4c.06.06.07.16,0,.23Zm2.59-5.07l-.84,1.73c-.03.08-.12.13-.2.1t-.02-.01l-2.58-1.35c-.07-.05-.1-.15-.06-.23l.83-1.7c.04-.08.13-.12.21-.09l2.6,1.32c.08.05.1.15.06.23Zm2.46-5.16h0s-.42.89-.42.89l-.42.86c-.03.09-.13.13-.22.1l-2.62-1.29c-.07-.05-.1-.15-.06-.23l.41-.85.41-.85c.04-.08.13-.12.21-.09l2.64,1.25c.08.04.11.13.07.21Zm2.41-5.08h0s-.83,1.73-.83,1.73c-.03.09-.13.13-.22.1l-2.66-1.21c-.07-.05-.1-.14-.06-.22l.81-1.7c.04-.08.13-.12.22-.09l2.67,1.18c.08.04.11.13.07.21Zm2.25-5.18l-.66,1.79c-.02.09-.11.14-.2.11h-.01l-2.69-1.14c-.08-.05-.11-.14-.08-.23l.65-1.76c.02-.09.11-.14.2-.11h.01l2.7,1.11c.09.04.12.14.08.23Zm1.95-5.33l-.61,1.81c-.02.09-.11.14-.2.11h-.01l-2.77-1.03c-.08-.04-.11-.14-.08-.22l.65-1.78c.02-.09.11-.13.2-.11l2.73,1c.08.03.13.12.1.2-.01,0-.01.02-.01.02Zm2.01-5.27l-.67,1.77c-.03.08-.12.13-.2.1l-2.75-1c-.08-.03-.12-.12-.09-.21l.65-1.77c.03-.09.12-.14.21-.11l2.76,1c.08.03.13.12.1.2-.01.01-.01.02-.01.02Zm1.91-5.37l-.64,1.81c-.03.09-.12.14-.21.12l-2.78-.91c-.08-.04-.12-.14-.08-.22l.64-1.77c.03-.09.12-.14.21-.12l2.78.88c.08.04.12.13.08.21Zm1.07-3.58c-.01.09-.1.15-.18.13h-.01l-2.79-.84c-.09-.03-.14-.13-.11-.22l.48-1.83c.02-.08.09-.14.17-.13l2.81.8c.09.03.13.13.1.22l-.47,1.87Zm1.9-7.34l-.47,1.86c-.02.09-.1.14-.19.13l-2.82-.76c-.08-.03-.13-.12-.11-.21l.47-1.83c.02-.09.1-.14.19-.13l2.83.73c.08.03.13.12.1.2h0Zm1.41-5.48l-.47,1.86c-.02.09-.1.14-.19.13l-2.84-.68c-.09-.02-.13-.11-.11-.2l.47-1.83c.02-.08.1-.14.19-.13l2.84.65c.08.02.13.1.12.18,0,0-.01.01-.01.02Zm.92-3.63c-.02.09-.1.14-.19.13l-2.86-.61c-.08-.02-.13-.11-.11-.19,0,0,.44-1.84.4-1.85.01-.09.09-.15.18-.14l2.86.57c.09.02.14.12.12.21l-.46,1.9.06-.02Zm1-5.58c0,.09-.08.16-.17.15h-.01l-2.87-.53c-.08-.03-.13-.11-.12-.2l.29-1.86c.01-.09.09-.16.18-.15l2.88.5c.09.02.15.11.13.2l-.31,1.89Zm1.08-7.47l-.08.92-.14,1c-.01.09-.09.17-.18.16l-2.95-.47c-.09-.02-.14-.11-.13-.2l.14-.93.14-.94c.01-.09.09-.15.18-.15l2.89.42c.09.01.15.1.13.18h0Zm.91-5.61l-.29,1.88c-.01.09-.09.17-.18.16l-2.89-.37c-.09-.02-.14-.1-.13-.19l.28-1.86c.01-.09.09-.15.18-.15l2.9.34c.09,0,.15.1.13.18h0Zm.49-3.72c0,.1-.08.18-.16.17l-2.99-.23c-.09-.02-.15-.1-.14-.19l.1-1.87c0-.09.07-.16.16-.17l2.91.26c.09.02.15.1.14.19l-.02,1.84Zm.31-5.64c0,.09-.08.17-.17.17l-2.91-.22c-.08-.02-.14-.09-.14-.18l.1-1.89c0-.09.07-.16.16-.16l2.91.18c.09.01.15.09.14.18l-.09,1.92Zm.38-7.55l-.09,1.91c0,.09-.07.16-.16.16l-2.92-.13c-.09-.01-.16-.08-.15-.17l.09-1.89c.01-.09.07-.16.16-.16l2.92.1c.09,0,.16.08.15.17h0Zm.23-5.69l-.05,1.95c0,.09-.07.16-.16.17l-2.92-.06c-.09-.01-.16-.09-.15-.18l.09-1.88c0-.08.05-.15.12-.18h2.92c.09,0,.16.08.15.17h0Zm0-3.5s-.12.04-.17.01l.06-.02h-2.92c-.09,0-.16-.08-.16-.17l-.09-1.88c0-.09.05-.17.14-.18h.01l2.92-.06c.09.01.16.08.16.17l.09,1.91c.05.07.03.17-.04.22Z"/>
  <path class="cls-2" d="m297.39,272.17c-1.21-.81-2.93-1.21-4.42-1.23-13.36-.09-26.71-.05-40.06-.05h-1.67c4.5-3.17,9.32-6.16,13.65-9.74,4.24-3.5,8.25-7.37,11.85-11.51,3.67-4.23,7.03-8.81,9.97-13.57,5.31-8.59,8.81-17.95,10.79-27.88,1.1-5.49,1.65-11,1.82-16.6.34-10.75-1.27-21.17-4.68-31.33-3.06-9.11-7.53-17.51-13.24-25.2-2.67-3.6-5.6-7.06-8.8-10.18-5.83-5.7-12.18-10.79-19.34-14.82-7.62-4.3-15.61-7.72-24.15-9.65-4.02-.91-8.15-1.32-12.23-1.99-.93-.16-1.84-.47-2.76-.71h-13.66c-1.96.36-3.91.82-5.89,1.05-6.44.75-12.63,2.44-18.7,4.68-9.44,3.48-18.04,8.39-25.88,14.72-7.23,5.84-13.48,12.57-18.66,20.24-4.64,6.85-8.37,14.21-10.94,22.11-1.89,5.8-3.5,11.67-4.01,17.78-.12,1.42-.47,2.81-.71,4.21v14.38c.24,1.46.57,2.92.71,4.39.76,7.95,3.02,15.53,5.96,22.89,3.22,8.04,7.57,15.51,12.97,22.28,5.74,7.19,12.35,13.48,19.94,18.76,7.68,5.34,15.94,9.46,24.79,12.31,4.29,1.38,8.78,2.13,13.2,3.06,6.43,1.36,12.97,1.1,19.49,1.1h81.01c2.35,0,4.83-1.39,5.36-3.3.66-2.32.74-4.55-1.71-6.2Zm-20.04-85.54c1.85,19.26-13.94,30.34-26.98,30.01-14.83-.11-25.78-11.93-26.54-25.12-.97-16.98,12.29-27.53,23.34-28.45,8.59-.72,16.16,1.37,22.4,7.52,4.48,4.42,7.18,9.74,7.78,16.04Zm-27.02-45.41c2.94-.02,6.08,2.23,5.47,5.47,0,3.09-2.2,5.27-5.32,5.27-2.89,0-4.96-2.31-5.14-5.3-.17-2.77,2.17-5.42,4.99-5.44Zm-46.29-21.27c8.44-.75,15.93,1.31,22.14,7.26,4.64,4.45,7.47,9.84,8.05,16.28,1.77,19.54-13.79,29.54-25.51,30.05-15.9.68-28.34-12.43-28.01-27.09-.07-14.78,11.74-25.46,23.33-26.5Zm8.64,69.77c0,3.21-2.17,5.37-5.41,5.36-2.75-.01-4.86-2.37-5.05-5.22-.19-3.06,2.41-5.58,5.08-5.53,3.02.05,5.97,2.38,5.38,5.39Zm-48.54-48.5c2.93,0,6.03,2.21,5.43,5.51,0,3.08-2.21,5.23-5.37,5.23-2.86,0-4.91-2.34-5.09-5.35-.16-2.7,2.19-5.41,5.03-5.39Zm5.43,91.51c0,3.25-2.15,5.46-5.31,5.46-2.9,0-4.97-2.3-5.15-5.29-.17-2.79,2.17-5.42,4.98-5.45,3.04-.04,6.08,2.41,5.48,5.28Zm-3.93-16.07c-15.96.67-28.36-12.45-28.05-27.06-.08-14.81,11.72-25.47,23.29-26.53,9.16-.83,17.09,1.67,23.42,8.51,3.95,4.27,6.29,9.31,6.83,15.16,1.78,19.24-13.84,29.43-25.49,29.92Zm42.96,43.12c-15.8.58-28.19-12.43-27.89-27.04-.09-14.84,11.71-25.49,23.27-26.55,8.85-.82,16.62,1.48,22.92,7.97,4.24,4.37,6.78,9.56,7.34,15.68,1.79,19.32-13.91,29.5-25.64,29.94Zm36.74-26.93c-.16-2.71,2.18-5.41,5.02-5.41,3.03.01,6.03,2.4,5.44,5.34,0,3.23-2.16,5.41-5.36,5.41-2.86,0-4.92-2.34-5.1-5.34Z"/>
  <text class="cls-3" transform="translate(71.12 349.12)"><tspan x="0" y="0">COLLEGE</tspan></text>
  <text class="cls-1" transform="translate(62.4 391.4)"><tspan x="0" y="0">FILM FESTI</tspan><tspan class="cls-4" x="222.92" y="0">V</tspan><tspan x="249.3" y="0">AL</tspan></text>
</svg>