<?xml version="1.0" encoding="UTF-8"?>
<svg id="Layer_1" data-name="Layer 1" xmlns="http://www.w3.org/2000/svg" viewBox="0 0 570.97 109.19">
  <defs>
    <style>
      .cls-1 {
        fill: #fff;
        stroke: #231f20;
        stroke-miterlimit: 10;
        stroke-width: .25px;
      }
    </style>
  </defs>
  <g>
    <path class="cls-1" d="m317.4,103.06c-.18-.81-.53-1.59-.69-2.4-.45-2.32-.82-4.65-1.26-6.96-.12-.62-.42-1.2-.54-1.82-.47-2.29-.86-4.59-1.34-6.88-.41-1.96-.96-3.89-1.35-5.86-.38-1.92-.53-3.88-.99-5.78-.66-2.67-1.15-5.37-1.7-8.06-.31-1.53-.73-3.03-1.13-4.64-3.48,0-6.97-.09-10.45.04-1.79.07-3.23,1.08-4.01,2.72-.9,1.9-1.68,3.85-2.49,5.78-.63,1.48-1.23,2.97-1.86,4.45-.85,2-1.73,3.99-2.57,6-1.46,3.51-2.9,7.04-4.36,10.55-.83,1.96-1.7,3.91-2.53,5.87-.73,1.72-1.46,3.44-2.16,5.17-.51,1.27-.98,2.56-1.5,3.92h12.08c.84-2.23,1.64-4.35,2.4-6.38,2.55-.31,13.74-.22,14.76.08.41,2.11.82,4.2,1.23,6.32h10.71c-.08-.76-.1-1.46-.25-2.12Zm-22.94-13.64c.66-2.82,1.8-5.36,2.73-7.98.95-2.64,1.94-5.27,3.17-7.93,1.12,5.26,2.23,10.52,3.38,15.91h-9.28Z"/>
    <path class="cls-1" d="m229.12,60.95c-.38,1-.71,2.02-1.13,3-1.26,2.93-2.6,5.83-3.83,8.77-1.01,2.41-1.89,4.89-2.89,7.3-.98,2.35-2.09,4.65-3.08,6.99-.81,1.92-1.5,3.9-2.29,5.82-.67,1.63-1.41,3.23-2.11,4.84-.58,1.35-1.15,2.7-1.7,4.06-.47,1.13-.91,2.27-1.39,3.46h-12.31c-.64-2.2-1.29-4.36-1.87-6.54-.57-2.18-1.03-4.4-1.58-6.58-.87-3.39-1.75-6.78-2.66-10.16-.55-2.08-1.18-4.15-1.75-6.23-.62-2.28-1.34-4.53-1.77-6.84-.28-1.53-1.15-2.45-2.39-3.01-1.81-.83-3.69-1.53-5.59-2.17-1.78-.61-3.62-1.06-5.51-1.6v-1.21c.21-.1.34-.21.48-.21,6.44,0,12.88-.03,19.32.03,2.21.02,4.01,1.01,4.83,3.12.56,1.45.79,3.04,1.11,4.57.29,1.43.52,2.86.72,4.3.47,3.39,1.52,6.67,1.91,10.06.27,2.33,1.01,4.55,1.31,6.86.03.29.19.56.33.92,3.94-10.01,7.83-19.92,11.73-29.82h11.85c.09.09.17.18.26.27Z"/>
    <path class="cls-1" d="m261.74,71.22c-1.12,1.24-1.15,2.51.05,3.67.85.82,1.86,1.51,2.87,2.13,2.21,1.34,4.46,2.6,6.69,3.91.47.27.93.59,1.35.93,3.99,3.22,5.13,7.42,3.99,12.25-1.16,4.93-4.48,8.02-9.05,9.97-2.7,1.14-5.52,1.63-8.42,1.71-2.39.06-4.8.22-7.17-.04-2.49-.27-4.96-.86-7.32-1.77-.25-.09-.54-.48-.54-.74-.01-.52.15-1.05.26-1.57.56-2.56,1.12-5.11,1.72-7.9,1.5.66,2.79,1.41,4.18,1.8,2.46.68,4.98,1.17,7.58,1.03,1.7-.1,3.34-.38,4.86-1.18,1.4-.74,2.26-1.95,1.8-4.15-.1-.49-.4-1.07-.79-1.36-1.22-.93-2.48-1.85-3.83-2.57-2.22-1.19-4.5-2.26-6.46-3.87-1.59-1.31-3.04-2.74-3.79-4.7-.37-.95-.71-1.95-.8-2.95-.52-5.51,1.98-9.64,6.37-12.61,2.01-1.36,4.31-2.27,6.83-2.64,2.1-.3,4.16-.91,6.31-.76,1.57.11,3.15.29,4.7.56,1.91.33,3.8.78,5.79,1.19.01,3.33-1.26,6.3-1.71,9.38-1.12.55-1.91-.29-2.72-.56-2.88-.98-5.81-1.25-8.79-1.02-1.53.11-2.91.71-3.96,1.86Z"/>
    <path class="cls-1" d="m245.73,60.72c-.27,1.44-.5,2.83-.79,4.22-.56,2.68-1.13,5.36-1.71,8.04-.49,2.23-1.03,4.46-1.51,6.69-.41,1.9-.75,3.81-1.15,5.71-.38,1.78-.8,3.54-1.19,5.32-.2.94-.37,1.88-.56,2.81-.26,1.3-.51,2.6-.79,3.89-.57,2.55-1.17,5.1-1.79,7.8h-11.49c-.25-.92.25-1.71.41-2.53.43-2.18.87-4.35,1.32-6.52.09-.43.26-.84.34-1.27.49-2.5.95-5,1.47-7.5.15-.76.49-1.49.65-2.25.41-2.03.75-4.06,1.15-6.08.1-.52.38-1.01.49-1.53.45-2.25.86-4.52,1.31-6.77.11-.57.39-1.11.5-1.68.45-2.31.84-4.64,1.29-6.95.09-.46.35-.89.56-1.4h11.49Z"/>
    <path class="cls-1" d="m73.93,99.97c-.17-1.74-1.19-2.89-2.66-3.7-.22-.13-.47-.21-.73-.32.1-.15.12-.2.16-.23.11-.09.22-.19.35-.27,1.8-1.02,2.36-2.63,2.1-4.56-.26-1.88-1.34-3.07-3.2-3.66-3.13-.99-6.29-.27-9.4-.54-.3,1.85-.19,18.34.16,19.5,2.92-.13,5.9-.24,8.87-.38,1.58-.08,2.76-.82,3.67-2.12.81-1.16.81-2.42.68-3.72Zm-9.62-10.03c1.17.1,2.25.1,3.3.3,1.05.22,1.57,1.01,1.36,2.06-.34,1.63-.22,1.77-1.67,2.02-.87.15-1.78.05-2.68.07-.1-.09-.2-.17-.3-.25h-.01v-4.2Zm3.37,12.9c-1.06.15-2.16.03-3.42.03v-5.16c1.08,0,2.06-.03,3.03.01,1.42.05,2.16.78,2.32,2.19.15,1.39-.66,2.75-1.93,2.93Z"/>
    <path class="cls-1" d="m41.42,55.25H.12v46.07c0,.4.02.79.03,1.19.04,1.49.8,2.5,2.12,3.11,1.94.9,3.92,1.65,6.05,1.97.34.05.71.09,1.01.24,1.57.8,3.31.8,4.97.92,3.43.25,6.88.22,10.32.3.3,0,.6.03.89-.01,1.37-.19,2.73-.39,4.09-.59.33-.05.67-.09.99-.18,2.05-.51,4.13-.96,6.15-1.59,1.48-.46,3.07-.83,4.14-2.13.14-.37.28-.74.42-1.12.06-.69.17-1.38.17-2.07.01-14.9.01-29.81.01-44.71,0-.43-.05-.87-.07-1.4Zm-.8,45.25c0,.59-.03,1.19-.06,1.79-.08,1.4-.83,2.32-2.13,2.78-1.56.54-3.11,1.19-4.71,1.53-4.44.94-8.91,1.8-13.49,1.65-1.77-.05-3.54-.05-5.31-.41-1.93-.4-3.91-.52-5.85-.88-.97-.17-1.89-.61-2.84-.93-.52-.17-1.04-.34-1.57-.48-2.04-.55-3.36-1.33-3.34-4.09.1-13.9.06-27.81.07-41.71v-3.32h39.14c.03.39.09.77.09,1.16.01,14.3.01,28.6,0,42.91Z"/>
    <path class="cls-1" d="m394.52,87.89c-.11-1.63-.94-2.8-2.48-3.43-.84-.34-1.68-.68-2.7-1.08.42-.26.69-.43.98-.59,1.44-.8,2.12-2.06,1.99-3.66-.15-1.9-1.14-3.11-2.88-3.52-1.54-.36-3.11-.77-4.68-.82-3.69-.09-7.38.01-11.08.04v.68c.37.2.74.4,1.16.63.05.41.14.85.15,1.3.01,4.48.01,8.97.03,13.45,0,1-.22,1.77-1.38,1.91-.08,0-.13.22-.24.4.25.07.43.17.6.17,5.04-.04,10.09,0,15.12-.18,1.16-.04,2.38-.62,3.43-1.22,1.52-.86,2.09-2.37,1.98-4.08Zm-16.07-11.21c.27-.05.55-.14.83-.15,1.89-.01,3.79-.05,5.69.03.82.04,1.68.25,2.45.56,2.01.8,2.33,2.97.77,4.46-.85.81-1.94,1.05-2.99,1.11-2.22.13-4.46.04-6.75.04v-6.05Zm10.95,13.83c-1,.39-2.05.83-3.1.88-2.58.12-5.17.04-7.84.04v-6.81c2.56,0,4.96-.07,7.34.04,1.01.05,2.02.43,2.98.78,1,.36,1.57,1.21,1.89,2.19.37,1.11-.2,2.46-1.27,2.88Z"/>
    <path class="cls-1" d="m69.29,69.39c.23-.1.51-.3.81-.36,1.14-.22,1.85-.98,2.36-1.9.83-1.53,1.01-3.2.58-4.89-.34-1.36-.94-2.67-2.34-3.22-1.03-.4-2.15-.71-3.24-.76-2.24-.1-4.49.01-6.73.03-.09.09-.18.17-.27.26-.01,6.17-.02,12.34-.03,18.5,0,.1.05.19.12.43h3.77v-8.14c2.68,2.53,3.6,5.74,5.51,8.29h4.07c.09-.08.19-.16.28-.24h0c-1.31-2.86-2.97-5.48-4.89-8Zm-1.81-3.09c-.98.23-2,.29-3.12.44v-5.37c1.02.05,1.91.04,2.79.16,1.17.17,1.87,1.04,1.95,2.27.07,1.16-.55,2.24-1.62,2.5Z"/>
    <path class="cls-1" d="m550.22,92.85c-1.47-.21-2.36-1.15-3.04-2.36-.56-1-1.04-2.05-1.69-2.98-.53-.76-1.26-1.38-1.9-2.06h-1.17c-.02-.09-.05-.18-.07-.27.31-.1.63-.19.94-.29.09-.05.17-.11.26-.14,2.12-.64,3.78-1.77,3.85-4.2.04-1.23.09-2.6-.98-3.53-.62-.54-1.36-1.03-2.14-1.3-1.07-.38-2.21-.71-3.34-.75-3.98-.13-7.97-.14-11.96-.18-.15,0-.3.17-.67.39.69.4,1.21.7,1.72,1,.03.22.08.42.08.61,0,4.78.02,9.56,0,14.34,0,1.19-.04,1.18-1.16,1.53-.18.06-.32.27-.59.5,1.29.56,2.49.28,3.65.32,2.91.1,2.92.06,3.53-.47-.99-.04-1.93-.26-1.99-1.36-.09-1.81-.02-3.64-.02-5.58,1.56,0,3.05.05,4.53-.02,1.75-.07,2.94.64,3.76,2.17.64,1.18,1.38,2.3,2.1,3.44.67,1.06,1.67,1.73,2.9,1.86,1.08.11,2.18.01,3.27-.03.26-.01.51-.13,1.07-.28-.52-.2-.73-.33-.95-.36Zm-10.05-9.01c-2.17.2-4.36.25-6.69.37v-7.58c.32-.06.65-.15.97-.15,1.4-.02,2.8.04,4.19-.02,1.28-.05,2.43.32,3.56.84,1.24.57,1.65,1.65,1.68,2.9.02,1.21-.31,2.29-1.51,2.85-.71.33-1.45.72-2.2.79Z"/>
    <path class="cls-1" d="m484.49,89.19c.03.71-.22,1.24-.7,1.73-1.06,1.11-2.36,1.8-3.78,2.34-2.88,1.1-5.9,1.11-8.84.8-3.2-.34-6.16-1.58-8.32-4.19-2.09-2.54-2.77-5.48-1.56-8.46,1.09-2.68,3.29-4.58,6.04-5.71,1.79-.73,3.61-1.25,5.58-1.08.69.06,1.4.05,2.1.01,2.75-.13,5.17.98,7.6,1.88.39,1.5.75,2.9,1.21,4.68-.62-.3-.91-.38-1.14-.56-.19-.14-.3-.39-.45-.59-2.66-3.38-6.22-4.43-10.32-3.73-3.01.51-5.15,2.37-6.67,4.96-.19.32-.23.74-.32,1.11-.85,3.24.18,5.86,2.73,7.9,3.3,2.64,8.73,2.77,12.23.39.78-.52,1.22-1.14,1.18-2.08-.03-.98-.05-1.96-.07-2.9-.74-.21-1.31-.37-2.11-.6,1.45-.61,6.24-.64,7.51-.12-.66.24-1.23.43-1.91.67,0,1.17-.03,2.36,0,3.55Z"/>
    <path class="cls-1" d="m516.23,91.2c-2.16-4.15-4.38-8.26-6.58-12.39-.72-1.34-1.46-2.68-2.19-4h-2.52c-.93,1.77-1.84,3.52-2.76,5.28-1.97,3.74-3.93,7.48-5.9,11.23-.34.65-.61,1.37-1.57,1.37-.19-.01-.37.38-.77.83,2.05,0,3.74.02,5.44-.02.24,0,.48-.26.97-.56-.8-.21-1.25-.33-1.65-.44-.32-1.36.78-2.13,1.07-3.2.2-.73.84-.95,1.64-.93,2.74.04,5.48.06,8.23,0,1.09-.03,1.79.25,2.1,1.37.13.46.52.85.7,1.3.18.43.24.9.29,1.12-.33.73-1.35.25-1.18,1.28h6.52c.02-.17.03-.34.05-.51-.91-.27-1.45-.87-1.89-1.72Zm-14.87-4.89c1.41-2.77,2.78-5.44,4.31-8.44,1.38,3.05,3.02,5.58,4.2,8.44h-8.51Z"/>
    <path class="cls-1" d="m120.34,106.04c-1.59.01-2.9.07-4.2,0-.29-.02-.63-.44-.82-.75-1.2-1.95-2.36-3.92-3.53-5.89-.15-.25-.31-.49-.68-.72v7.26h-3.65c-.03-.36-.1-.73-.1-1.11-.01-3.68.03-7.37-.01-11.05-.03-2.48-.16-4.95-.24-7.51,1.18-.12,2.32-1.05,3.89-.7v11.7c.1.03.2.06.3.09,1.09-1.79,2.18-3.58,3.26-5.37.54-.07,1.07-.14,1.61-.2h3.15c-1.63,2.13-3.08,4.04-4.58,6,1.76,2.59,3.58,5.28,5.6,8.25Z"/>
    <path class="cls-1" d="m97.25,72.27c.84-2.95,1.67-5.9,2.53-8.92h4.2c-.73,1.98-1.43,3.87-2.11,5.76-.54,1.49-1.04,2.99-1.57,4.48-.76,2.15-1.45,4.33-2.34,6.42-1.09,2.58-2.64,3.49-5.66,3.61-.34-.66-.7-1.35-1.1-2.15.87-.45,1.77-.74,2.44-1.31.66-.55,1.08-1.39,1.74-2.28-.7-.15-1.07-.4-1.25-.97-.61-2-1.29-3.97-1.98-5.93-.72-2.06-1.5-4.1-2.22-6.15-.14-.4-.12-.85-.19-1.37,1.31-.12,2.48-.24,3.76-.36.67,2.08,1.33,4.11,1.97,6.14.4,1.26.78,2.52,1.17,3.78"/>
    <path class="cls-1" d="m87.89,103.46c0-1.22-.01-2.46,0-3.7s.05-2.49.06-3.73c.04-2.95-1.88-4.34-4.48-4.54-2.27-.18-4.25.73-6.24,1.59-.16.07-.25.29-.45.52.55.88,1.09,1.75,1.65,2.66.52-.31.91-.53,1.28-.76.91-.57,1.9-.8,2.97-.76.97.04,1.26.26,1.41,1.16.07.38.02.77.02,1.19-.82.08-1.57.12-2.3.22-.79.12-1.58.23-2.35.45-1.74.51-2.82,1.92-2.9,3.73-.02.65.06,1.3.03,1.94-.03.77.37,1.34.86,1.79.86.78,1.87,1.29,3.08,1.39,1.72.13,3.27-.23,4.47-1.46.74.62,1.37,1.15,2.09,1.76.79-.84,1.48-1.58,2.2-2.36-.5-.39-.85-.66-1.4-1.09Zm-3.82-1.49c-.04,1.02-.55,1.61-1.47,1.75-.89.14-1.77-.33-2.05-1.08-.28-.76.12-1.93.94-2.28.75-.32,1.59-.43,2.59-.68,0,1.01.02,1.65-.01,2.29Z"/>
    <path class="cls-1" d="m116.71,72.43c.06-1.65.18-3.3.07-4.93-.11-1.61-.41-3.17-2.28-3.88-3.2-1.22-6.01-.38-8.7,1.39-.06.04-.05.18-.07.27.46.76.91,1.52,1.43,2.38.48-.2.87-.38,1.27-.54.74-.27,1.47-.68,2.24-.78,2-.26,2.23.01,2.18,2.05,0,.08-.07.17-.12.26-1.07.12-2.16.19-3.23.38-3.23.56-4.4,2.38-4.03,5.64.2,1.82,1.34,2.83,3.02,3.29,2.01.55,3.82.09,5.41-1.23.69.54,1.34,1.06,2.08,1.64.74-.78,1.41-1.49,2.14-2.27-1.28-.99-1.46-2.28-1.41-3.67Zm-3.82,1.11c-.03,1.11-.99,1.96-2.04,1.82-.93-.13-1.85-1.43-1.53-2.35.16-.45.63-.86,1.05-1.15.65-.45,1.21-.47,2.52-.36,0,.67.02,1.36,0,2.04Z"/>
    <path class="cls-1" d="m425.57,75.23c-2.06.44-2.3,2.31-3.01,3.65-2.32,4.34-4.47,8.77-6.69,13.16-.24.47-.54.91-.78,1.32-.16.04-.26.09-.35.09-2.98-.1-2.22.55-3.69-2.24-2.5-4.74-4.96-9.51-7.4-14.29-.38-.76-.84-1.2-1.81-1.01v-.98c.11-.09.14-.15.18-.15,2.05,0,4.09,0,6.13.03.2,0,.39.23.76.46-.66.3-1.12.52-1.74.8.11.38.15.8.34,1.16,1.98,3.85,3.99,7.68,5.98,11.52.21.42.36.88.62,1.52.27-.39.47-.63.61-.9,1.98-3.84,3.96-7.69,5.89-11.55.27-.54.32-1.2.48-1.79-.55-.32-.95-.54-1.4-.81.83-.51,2.14-.64,4.69-.45.39.03.77.19,1.19.46Z"/>
    <path class="cls-1" d="m87.61,65.93c-2.25-3.91-8.86-3.99-11.02.43-.61,1.26-1,2.55-.93,3.61,0,2.57.41,4.6,2.07,6.3,2.29,2.37,7.73,2.31,9.75-.99.4-.65.62-1.42.87-2.15.87-2.51.54-4.96-.74-7.2Zm-3.57,7.88c-.37,1.08-1.07,1.35-2.27,1.19-.92-.12-1.51-.71-1.59-1.8-.12-1.67-.2-3.35-.18-5.03.01-.52.33-1.11.67-1.52,1.14-1.35,2.76-1.14,3.41.51.4,1.03.45,2.2.68,3.4-.23,1.05-.36,2.19-.72,3.25Z"/>
    <path class="cls-1" d="m103.22,105.97h-3.5c-.03-.39-.08-.77-.08-1.15-.01-2.44.02-4.88-.01-7.32-.01-.78-.17-1.55-.26-2.39-.57-.02-1-.08-1.44-.06-1.51.04-2.18.71-2.18,2.18,0,2.39,0,4.78-.02,7.17,0,.49-.04.98-.07,1.57h-3.71c-.04-.34-.1-.72-.1-1.1-.01-2.14.03-4.28-.02-6.42-.03-1.78-.19-3.56-.23-5.34-.01-.33.18-.87.41-.96.86-.33,1.79-.51,2.76-.76.22.55.4,1,.62,1.55.54-.27,1.07-.66,1.67-.82.94-.26,1.96-.63,2.89-.49,2.17.31,3.12,1.12,3.24,3.86.14,3.42.03,6.86.03,10.48Z"/>
    <path class="cls-1" d="m452.41,93.37h-16.45c.14-.34.15-.41.17-.42,1.55-.39,1.62-1.53,1.61-2.85-.05-3.94-.02-7.87-.02-11.81,0-.4.03-.81-.05-1.19-.14-.69-.36-1.34-1.21-1.51-.2-.04-.36-.31-.6-.53,1.63-.5,5.73-.41,6.6.09-.04.09-.07.25-.12.26-1.4.25-1.57,1.2-1.56,2.42.04,4.48.02,8.96.02,13.55.43.04.81.11,1.18.11,2.4,0,4.8-.04,7.19.03,1.56.04,2.84-.42,3.92-1.5.17-.17.39-.27.6-.42.31.98-.12,2.15-1.28,3.77Z"/>
    <path class="cls-1" d="m126.3,77.87c-.91.02-1.8.13-2.67.04-1.63-.17-2.89-1.54-2.91-3.37-.06-5.41-.06-10.83-.08-16.25,0-.14.07-.28.13-.49,1.15-.28,2.31-.56,3.64-.88.05.87.12,1.5.12,2.13.02,4.58.03,9.15.04,13.73,0,.49-.05,1.01.08,1.48.12.45.35,1.11.69,1.23,1.22.43,1.08,1.28.96,2.38Z"/>
    <path class="cls-1" d="m570.32,93.06c-1.41.4-5.54.41-6.94.11.14-.18.23-.39.37-.44,1.25-.46,1.31-.47,1.32-1.72.02-4.53.02-9.06.02-13.59,0-.95-.16-1.8-1.37-1.91-.09-.01-.17-.22-.32-.45,1.65-.53,5.72-.41,6.53.14-.03.09-.05.23-.11.25-1.4.56-1.41.56-1.41,2,0,4.33.02,8.66-.01,12.99-.01,1.24-.06,2.41,1.92,2.62Z"/>
    <path class="cls-1" d="m9.91.66v9.35c-.32.03-.6.06-1.03.1-.03-1.82-.05-3.6-.08-5.37v-1.4h-.16c-.13.45-.26.91-.39,1.37-.56,1.75-1.12,3.51-1.71,5.34h-1.14c-.33-1.06-.66-2.2-1.05-3.33-.26-.78-.58-1.53-.88-2.3h-.22c-.04,1.8-.08,3.59-.11,5.38-.09.08-.18.17-.26.25-.7.19-.73-.25-.73-.75,0-2.24,0-4.48-.01-6.72V.59h1.51c.74,2.47,1.49,4.96,2.24,7.45.09-.01.18-.01.28-.02.77-2.59,1.55-5.17,2.36-7.85.58.21.97.34,1.38.49Z"/>
    <path class="cls-1" d="m40.27,2.77c-.24-1.33-1.18-2.24-2.67-2.39-1.02-.1-2.06-.02-3.2-.02v9.74c.41-.03.73-.06,1.17-.1v-3.73h1.67c.68,1.45,1.33,2.81,2.01,4.23.43-.23.75-.4,1.04-.56-.63-1.37-1.23-2.7-1.82-4.02,1.56-.86,2.05-1.76,1.8-3.15Zm-4.69,2.33V1.31c.78.04,1.43.02,2.06.13.98.16,1.49.8,1.49,1.74.01.96-.46,1.61-1.43,1.79-.67.13-1.36.09-2.12.13Z"/>
    <path class="cls-1" d="m98.8,4.08c.27-1.57.08-2.99-1.65-3.52-1.3-.4-2.63-.32-4-.17v9.7c.08.08.16.17.24.25h0c.29-.14.59-.28.92-.44v-3.63h1.67c.57,1.22,1.11,2.39,1.65,3.57.25.55.59.75,1.18.33.06-1.61-1.41-2.69-1.5-4.23,1.04-.64,1.31-.87,1.49-1.86Zm-4.51,1.01V1.4c.66,0,1.29-.07,1.91.01,1.09.13,1.59.65,1.63,1.56.06,1.2-.3,1.75-1.48,1.99-.62.13-1.27.09-2.06.13Z"/>
    <path class="cls-1" d="m32.41,3.51c-.27-1.56-.87-2.96-2.86-3.21-1.27-.16-2.32.05-3.15,1.09-.9,1.14-1.13,2.45-.97,3.86,0,.54-.06,1.1.01,1.63.28,2.18,1.82,3.49,3.3,3.54,2.02.08,3.39-1.1,3.67-3.06.17-1.26.22-2.6,0-3.85Zm-1.81,5.02c-.87,1.05-2.25,1.47-3.13-.01-.5-.86-.75-1.86-1.11-2.78.28-1.09.48-2.05.79-2.98.24-.72.66-1.26,1.56-1.36.99-.11,1.58.31,2.07,1.08.93,1.48.92,4.73-.18,6.05Z"/>
    <path class="cls-1" d="m91.28,4.22c-.34-1-.71-2.01-1.21-2.94-.37-.71-1.19-.71-1.93-.87-1.69-.34-2.93.29-3.53,2.01-.68,1.94-.67,3.9.06,5.83.42,1.12,1.22,1.96,2.45,2.15,1.31.2,2.45-.22,3.27-1.33.77-1.05,1.01-2.24.99-3.52-.03-.44.04-.92-.1-1.33Zm-1.6,3.42c-.46,1.39-.69,1.56-1.94,1.56-1.2-.01-1.78-.41-2.13-1.65-.2-.71-.24-1.46-.4-2.47.2-.73.39-1.7.74-2.61.38-1,1.27-1.12,2.22-1.06.93.06,1.3.74,1.53,1.42.54,1.59.51,3.22-.02,4.81Z"/>
    <path class="cls-1" d="m66.34,2.27c-.44-1.79-3.82-2.81-5.13-1.3-.7.81-1.52,1.5-1.42,2.75.08,1.13.07,2.28.02,3.41-.05,1.11.58,1.85,1.27,2.53,1.19,1.18,4.13,1.19,4.99-.8.46-1.06.67-2.24.96-3.26-.25-1.24-.44-2.3-.69-3.33Zm-1.44,6.1c-.63,1.32-2.36,1.41-3.21.18-.7-1.02-.92-2.19-.93-3.58.11-.95.09-2.09.96-2.99.96-1.01,2.53-.78,3.22.45,1.09,1.99.88,3.99-.04,5.94Z"/>
    <path class="cls-1" d="m50.58,7.34c.03,1.79-.42,2.6-1.8,2.99-1.51.44-3.27-.24-3.97-1.51-.31-.55-.25-.93.53-1.13.2.29.41.61.66.9.76.89,1.88,1.07,2.85.47.69-.43.72-1.9-.01-2.48-.43-.34-.94-.57-1.41-.85-.55-.33-1.12-.64-1.64-1.01-.89-.64-1.36-1.97-.93-3.01.36-.85,1.17-1.31,2.08-1.46,1.03-.17,1.98,0,2.78.75.42.41.69.83.42,1.72-.34-.15-.66-.22-.91-.41-.27-.2-.44-.54-.7-.76-.66-.56-1.41-.53-2.01.05-.58.57-.63,1.33-.03,2,.33.36.77.62,1.18.88.64.39,1.31.72,1.93,1.13.61.4.96.95.98,1.73Z"/>
    <path class="cls-1" d="m105.55,9.83c-1.49,1.15-4.27.62-5.17-1.02-.3-.54-.06-.95.83-1.17.36.42.77.99,1.27,1.46.59.56,1.83.41,2.38-.21.4-.46.37-1.74-.15-2.19-.45-.39-1-.65-1.49-.99-.65-.45-1.35-.86-1.92-1.41-.8-.78-.87-1.97-.34-2.89.44-.79,1.99-1.38,2.84-1.14,1.08.31,2.06.64,2.37,1.93-.34.51-.8.82-1.2.08-.48-.89-1.22-.93-2.03-.85-1.07.12-1.53,1.1-.82,1.89.52.58,1.21,1,1.87,1.42.79.5,1.67.84,2.17,1.75.6,1.1.38,2.57-.61,3.34Z"/>
    <path class="cls-1" d="m74.99,6.23v3.74c-.33.11-.64.22-1.09.38-1.32-2.52-2.65-5.06-3.98-7.6-.32,2.38-.23,4.77-.28,7.27-.32.02-.59.04-.97.07V.61h1.59c.93,2.01,1.88,4.08,2.85,6.13.08.16.29.27.44.39.07.1.14.2.21.3.03-.11.06-.22.09-.33.04-.29.07-.59.11-.88.34,0,.68,0,1.03.01Z"/>
    <path class="cls-1" d="m82.78,8.34c-.15,1.06-.87,1.64-1.85,1.94-1.62.51-3.49-.22-4.32-1.69-.06-.11-.01-.29-.01-.54.68-.11,1.19-.13,1.56.43.7,1.03,1.78.78,2.73.64.93-.14,1.22-1.41.48-2.15-.55-.55-1.31-.87-1.95-1.34-.71-.52-1.47-1-2.07-1.64-.75-.79-.53-1.69,0-2.57.55-.91,1.32-1.41,2.34-1.19,1.02.22,2.22.24,2.74,1.42.12.26.01.6,0,.91-.3-.07-.64-.06-.89-.21-.28-.18-.46-.52-.72-.75-.85-.75-1.73-.63-2.42.29-.38.5-.44,1,.01,1.44s.96.85,1.49,1.21c.57.39,1.22.67,1.81,1.05,1.01.65,1.23,1.65,1.07,2.75Z"/>
    <path class="cls-1" d="m15.38.22c-.77-.04-1.41-.06-1.41,1,0,.51-.22,1.03-.36,1.54-.7,2.38-1.4,4.76-2.09,7.14-.03.11.07.27.14.5,1.92-.19.94-2.15,1.83-2.93h2.73c.84.87-.07,2.71,1.99,2.91-.64-3.52-1.77-6.8-2.83-10.16Zm-1.61,6.16c-.41-1.38.73-2.27.92-3.43.11-.01.21-.01.31-.02.12.21.3.39.36.61.24.91.44,1.82.68,2.84h-2.27Z"/>
    <path class="cls-1" d="m56.57.59c-1.29-.39-2.61-.36-3.96-.19v9.69c.36-.02.63-.04.98-.06v-3.85c.62,0,1.06.03,1.5,0,.49-.05.99-.09,1.46-.25,1.22-.4,1.73-1.24,1.7-2.65-.02-1.48-.5-2.32-1.68-2.68Zm.63,3.1c-.06.69-.39,1.14-1.02,1.28-.75.16-1.53.2-2.51.32V1.37c.57,0,1.1-.03,1.62.01,1.62.13,2.05.71,1.91,2.31Z"/>
    <path class="cls-1" d="m545.92,96.68c-.26.53-.56,1.04-.85,1.56-.29.54-.57,1.07-.91,1.69-.73-1.29-1.34-2.36-1.97-3.43-.35-.59-.81-.82-1.48-.44v5.08c.33-.04.68-.1.87-.12-.05-1.21-.09-2.29-.13-3.36.11.02.21.05.32.08.46.88.93,1.75,1.38,2.63.29.57.67.84,1.31.56.54-1,1.08-1.99,1.62-2.98.09.03.17.07.26.1v2.98c.48-.02.93-.04,1.23-.05v-4.95c-.79-.26-1.31-.05-1.65.65Zm.5.97v.02l-.08-.06.09-.04v.08Z"/>
    <path class="cls-1" d="m536.15,96.29c-1.98-1.14-4.87-.22-5.67,1.83-.1.25.03.66.17.93.99,1.91,2.21,2.47,4.43,2.09,1.39-.24,2.22-1.24,2.22-2.79.26-.94-.3-1.57-1.15-2.06Zm-2.07,4.3c-1.35-.02-2.23-.84-2.23-2.07.01-1.3.89-2.03,2.39-1.99,1.38.03,2.16.79,2.14,2.09-.02,1.22-.92,1.99-2.3,1.97Z"/>
    <path class="cls-1" d="m23.61.6v7.93c0,.86-.47,1.36-1.23,1.68-1.16.5-2.42.18-3.2-1.03.55.07.95.07,1.34.17,1.04.24,1.68-.08,1.96-1.09.11-.43.13-.88.14-1.32.01-1.84.01-3.68,0-5.52,0-.55.02-1.04.99-.82Z"/>
    <path class="cls-1" d="m553.85,95.52c-1.1,1.93-2.08,3.66-3.11,5.46.4.02.7.04,1.09.06.39-1.28.41-1.32,1.63-1.32.6,0,1.24-.02,1.76.19.28.12.37.72.54,1.11h1.45c-1.26-1.75-1.81-3.74-3.36-5.5Zm-1.13,3.64c.33-.74.62-1.37.9-2,.12-.01.23-.02.34-.02.3.64.61,1.29.95,2.02h-2.19Z"/>
    <path class="cls-1" d="m528.03,100.7c-.01.14-.02.28-.02.41-.82.17-1.48-.06-1.81-.86-.48-1.19-1.4-1.34-2.58-1.2-.14.61-.2,1.15.25,1.65-.02.12-.04.24-.06.36h-1.22v-5.12c.35.01.63.03.91.04.03.14.07.28.11.41v2.3c.95-.16,1.75-.29,2.74-.46-.19-.72-.32-1.22-.45-1.71,0-.1,0-.2-.01-.31.72-.06,1.28.19,1.51.89.26.82-.37,1.24-1.02,1.78.57.62,1.11,1.22,1.65,1.82Z"/>
    <path class="cls-1" d="m74.99,6.23c-.35-.01-.69-.01-1.03-.01-.33-3.52-.19-5.2.5-5.92.71.8.85,2.29.53,5.93Z"/>
    <path class="cls-1" d="m116.17,91.79c-.54.06-1.07.13-1.61.2.48-.53,1.06-.24,1.61-.2Z"/>
    <path class="cls-1" d="m41.86,103.44c-.18.39-.36.78-.53,1.17-.15-.02-.3-.04-.45-.06.14-.37.28-.74.42-1.12.18.01.37.01.56.01Z"/>
    <path class="cls-1" d="m543.59,85.45h-1.17c-.02-.09-.05-.18-.07-.27.31-.1.63-.19.94-.29.1.19.2.38.3.56Z"/>
    <path class="cls-1" d="m97.25,72.27c-.2.25-.41.5-.61.75"/>
    <path class="cls-1" d="m525.8,96.08c-.1.08-.2.17-.3.26-.64.02-1.27.04-1.9.05-.04-.13-.08-.27-.11-.41.77.03,1.54.06,2.31.1Z"/>
    <path class="cls-1" d="m528.43,101.01c-.15.03-.29.07-.43.1,0-.13.01-.27.02-.41.13.1.27.21.41.31Z"/>
    <polyline class="cls-1" points="3.25 4.43 3.36 4.45 3.47 4.42"/>
    <path class="cls-1" d="m524.26,101.03c-.15.01-.3.02-.45.03.02-.12.04-.24.06-.36.13.11.26.22.39.33Z"/>
    <path class="cls-1" d="m373.67,74.83v.68q-.49-.38,0-.68Z"/>
    <path class="cls-1" d="m518.42,93.13c-.11.1-.23.2-.35.3.02-.17.03-.34.05-.51.1.07.2.14.3.21Z"/>
    <path class="cls-1" d="m73.89,77.63c.09-.08.19-.16.28-.24-.09.08-.19.16-.28.24Z"/>
    <path class="cls-1" d="m229.12,60.94c-.09-.09-.17-.18-.26-.27.09.09.17.18.26.27Z"/>
    <path class="cls-1" d="m60.72,58.29l-.27.26.27-.26Z"/>
    <path class="cls-1" d="m93.15,10.09c.08.09.16.17.24.26-.08-.09-.16-.17-.24-.26Z"/>
    <path class="cls-1" d="m2.87,10.05c.09-.08.17-.17.26-.25-.09.08-.17.17-.26.25Z"/>
    <path class="cls-1" d="m525.9,96.52l-.39-.18c.1-.09.2-.18.3-.26.07.01.1.06.08.13.01.11.01.21.01.31Z"/>
    <path class="cls-1" d="m541.45,97.66c.11.03.21.06.32.08-.11-.03-.21-.06-.32-.08Z"/>
    <path class="cls-1" d="m64.32,94.14c.1.08.21.16.31.25-.1-.08-.21-.16-.31-.25Z"/>
    <path class="cls-1" d="m37.9,85.34c1.29-2.51.68-4.89-.62-7.13-.57-.97-.7-1.69.02-2.54.16-.19.28-.41.38-.64.55-1.17.29-1.94-.85-2.56-.48-.26-.99-.48-1.45-.77-1.04-.67-2.16-.91-3.39-.87-1.55.06-3.1.04-4.65.01-.83-.02-1.57.15-2.26.61-.38.26-.81.44-1.35.72-.2-1.78.14-3.38-.35-4.97-2,.85-3.81-.29-5.69-.15.65-.28,1.31-.41,1.98-.45.69-.04,1.41.09,2.09-.01.87-.13,1.84-.31,2.02-1.41.26-1.56.33-3.13.03-4.83h-11.42c-.07-.75-.13-1.37-.21-2.2-1.5.14-2.91.12-4.24.45-1.62.4-2.4,2.11-2,3.82.31,1.31,1.68,2.17,3.18,1.99.45-1.31-.98-.91-1.36-1.51-.21-2.39.58-3.13,2.84-2.55.04.56.08,1.13.12,1.76,1.34.06,2.57.11,3.81.16v.67c-.28.16-.56.32-1.07.61.96.42,1.69.74,2.55,1.12.04-.94.08-1.62.11-2.37h6.01c0,.51.01.9-.01,1.3-.04,1.31-.15,1.4-1.47,1.5-1.03.07-2.06.18-3.07.33-1.32.19-2.03,1.83-1.46,3.03.86,1.77,2.75,2.07,4.34,1.5.39-.14.78-.26,1.25-.41v1.08c-2.01.22-3.92.45-5.84.66-.35.04-.7.06-1.05.05-1.5-.01-2.73-.58-3.51-1.89-.28-.48-.44-1.04-.62-1.58-.14-.45-.39-.63-.93-.5-.15,2,.51,3.61,2.2,4.73.75.49,1.56.89,2.33,1.35,2.03,1.2,3.94,2.53,4.95,4.79.06.15.25.24.49.45.04-.67.08-1.19.13-1.97.98.76,1.78,1.32,2.53,1.96,1.18,1.01,2.1,2.21,2.35,3.79.07.42.12.78.61.88.1-.09.2-.18.3-.27-.09-1.1-.18-2.19-.27-3.29.09-.09.19-.18.29-.28.19-.02.39-.04.59-.06.34.05.67.1,1.03.15.37,1.46-.21,2.99.46,4.39.07.08.14.16.21.24.04-.07.08-.14.12-.21.03-.21.06-.41.09-.61.07-.08.14-.17.22-.26,1.26.02,2.53.04,3.83.06.05,1.1.13,2.02-.41,2.86-.12.19-.19.5-.11.68.18.4.41.32.58-.05.09-.11.19-.22.28-.33.98.14,1.96.28,3.12.44-.82,1.19-1.76,1.81-3.08,1.97-1.66.19-3.3.51-4.95.76-.42.07-.85.09-1.33.14.04-1.34-.51-2.36-1.28-3.2-.93-1.02-1.9-2.04-3.02-2.84-3.35-2.38-6.82-4.61-10.15-7.01-1.84-1.33-3.58-2.82-5.24-4.38-1.96-1.83-2.4-4.1-1.41-6.62.09-.21-.01-.5-.02-.81-2.04,1.08-2.04,4.53-1.44,6.11.83,2.16,2.46,3.71,4.13,5.22,1.66,1.51,3.19,3.14,4.26,5.15.12.21.25.43.37.65.06-.02.12-.04.19-.06v-.63c.05-.38.1-.76.16-1.21,1.16.28,1.85,1.1,2.64,1.74.77.63,1.49,1.33,2.14,2.08.67.77,1.23,1.64,1.96,2.62.13-.77.22-1.32.32-1.93,3.36,2.13,5.87,4.73,6.46,8.94,1.1-1.08.11-2.19.62-3.2,2.02,0,4.11-.07,6.19.02,1.54.07,2.91.59,3.51,2.23.02.05.17.04.33.07.2-.74.4-1.49.65-2.4-.58-.5-1.21-1.04-1.85-1.59.4-.46.88-.89,1.21-1.43.36-.57.53-1.25.85-1.86Zm-5.09-10.58c-3.47-.48-6.62-.03-8.85,3.06-.76-.7-1.44-1.32-2.32-2.13,1.7-1.01,3.27-1.96,4.87-2.86.32-.18.74-.23,1.12-.23,1.55-.03,3.09-.01,4.64-.03,1.38-.02,2.39.81,3.51,1.37-.11,1.23-.22,1.36-1.33,1.69-.07-1.03-.09-2.17-1.64-2.06v1.19Zm5.09,10.58c1.29-2.51.68-4.89-.62-7.13-.57-.97-.7-1.69.02-2.54.16-.19.28-.41.38-.64.55-1.17.29-1.94-.85-2.56-.48-.26-.99-.48-1.45-.77-1.04-.67-2.16-.91-3.39-.87-1.55.06-3.1.04-4.65.01-.83-.02-1.57.15-2.26.61-.38.26-.81.44-1.35.72-.2-1.78.14-3.38-.35-4.97-2,.85-3.81-.29-5.69-.15.65-.28,1.31-.41,1.98-.45.69-.04,1.41.09,2.09-.01.87-.13,1.84-.31,2.02-1.41.26-1.56.33-3.13.03-4.83h-11.42c-.07-.75-.13-1.37-.21-2.2-1.5.14-2.91.12-4.24.45-1.62.4-2.4,2.11-2,3.82.31,1.31,1.68,2.17,3.18,1.99.45-1.31-.98-.91-1.36-1.51-.21-2.39.58-3.13,2.84-2.55.04.56.08,1.13.12,1.76,1.34.06,2.57.11,3.81.16v.67c-.28.16-.56.32-1.07.61.96.42,1.69.74,2.55,1.12.04-.94.08-1.62.11-2.37h6.01c0,.51.01.9-.01,1.3-.04,1.31-.15,1.4-1.47,1.5-1.03.07-2.06.18-3.07.33-1.32.19-2.03,1.83-1.46,3.03.86,1.77,2.75,2.07,4.34,1.5.39-.14.78-.26,1.25-.41v1.08c-2.01.22-3.92.45-5.84.66-.35.04-.7.06-1.05.05-1.5-.01-2.73-.58-3.51-1.89-.28-.48-.44-1.04-.62-1.58-.14-.45-.39-.63-.93-.5-.15,2,.51,3.61,2.2,4.73.75.49,1.56.89,2.33,1.35,2.03,1.2,3.94,2.53,4.95,4.79.06.15.25.24.49.45.04-.67.08-1.19.13-1.97.98.76,1.78,1.32,2.53,1.96,1.18,1.01,2.1,2.21,2.35,3.79.07.42.12.78.61.88.1-.09.2-.18.3-.27-.09-1.1-.18-2.19-.27-3.29.09-.09.19-.18.29-.28.19-.02.39-.04.59-.06.34.05.67.1,1.03.15.37,1.46-.21,2.99.46,4.39.07.08.14.16.21.24.04-.07.08-.14.12-.21.03-.21.06-.41.09-.61.07-.08.14-.17.22-.26,1.26.02,2.53.04,3.83.06.05,1.1.13,2.02-.41,2.86-.12.19-.19.5-.11.68.18.4.41.32.58-.05.09-.11.19-.22.28-.33.98.14,1.96.28,3.12.44-.82,1.19-1.76,1.81-3.08,1.97-1.66.19-3.3.51-4.95.76-.42.07-.85.09-1.33.14.04-1.34-.51-2.36-1.28-3.2-.93-1.02-1.9-2.04-3.02-2.84-3.35-2.38-6.82-4.61-10.15-7.01-1.84-1.33-3.58-2.82-5.24-4.38-1.96-1.83-2.4-4.1-1.41-6.62.09-.21-.01-.5-.02-.81-2.04,1.08-2.04,4.53-1.44,6.11.83,2.16,2.46,3.71,4.13,5.22,1.66,1.51,3.19,3.14,4.26,5.15.12.21.25.43.37.65.06-.02.12-.04.19-.06v-.63c.05-.38.1-.76.16-1.21,1.16.28,1.85,1.1,2.64,1.74.77.63,1.49,1.33,2.14,2.08.67.77,1.23,1.64,1.96,2.62.13-.77.22-1.32.32-1.93,3.36,2.13,5.87,4.73,6.46,8.94,1.1-1.08.11-2.19.62-3.2,2.02,0,4.11-.07,6.19.02,1.54.07,2.91.59,3.51,2.23.02.05.17.04.33.07.2-.74.4-1.49.65-2.4-.58-.5-1.21-1.04-1.85-1.59.4-.46.88-.89,1.21-1.43.36-.57.53-1.25.85-1.86Zm-5.09-10.58c-3.47-.48-6.62-.03-8.85,3.06-.76-.7-1.44-1.32-2.32-2.13,1.7-1.01,3.27-1.96,4.87-2.86.32-.18.74-.23,1.12-.23,1.55-.03,3.09-.01,4.64-.03,1.38-.02,2.39.81,3.51,1.37-.11,1.23-.22,1.36-1.33,1.69-.07-1.03-.09-2.17-1.64-2.06v1.19Z"/>
    <polygon class="cls-1" points="546.35 97.61 546.43 97.57 546.43 97.66 546.35 97.61"/>
    <path class="cls-1" d="m37.9,85.34c1.29-2.51.68-4.89-.62-7.13-.57-.97-.7-1.69.02-2.54.16-.19.28-.41.38-.64.55-1.17.29-1.94-.85-2.56-.48-.26-.99-.48-1.45-.77-1.04-.67-2.16-.91-3.39-.87-1.55.06-3.1.04-4.65.01-.83-.02-1.57.15-2.26.61-.38.26-.81.44-1.35.72-.2-1.78.14-3.38-.35-4.97-2,.85-3.81-.29-5.69-.15.65-.28,1.31-.41,1.98-.45.69-.04,1.41.09,2.09-.01.87-.13,1.84-.31,2.02-1.41.26-1.56.33-3.13.03-4.83h-11.42c-.07-.75-.13-1.37-.21-2.2-1.5.14-2.91.12-4.24.45-1.62.4-2.4,2.11-2,3.82.31,1.31,1.68,2.17,3.18,1.99.45-1.31-.98-.91-1.36-1.51-.21-2.39.58-3.13,2.84-2.55.04.56.08,1.13.12,1.76,1.34.06,2.57.11,3.81.16.52.22.47.45,0,.67-.28.16-.56.32-1.07.61.96.42,1.69.74,2.55,1.12.04-.94.08-1.62.11-2.37h6.01c0,.51.01.9-.01,1.3-.04,1.31-.15,1.4-1.47,1.5-1.03.07-2.06.18-3.07.33-1.32.19-2.03,1.83-1.46,3.03.86,1.77,2.75,2.07,4.34,1.5.39-.14.78-.26,1.25-.41v1.08c-2.01.22-3.92.45-5.84.66-.35.04-.7.06-1.05.05-1.5-.01-2.73-.58-3.51-1.89-.28-.48-.44-1.04-.62-1.58-.14-.45-.39-.63-.93-.5-.15,2,.51,3.61,2.2,4.73.75.49,1.56.89,2.33,1.35,2.03,1.2,3.94,2.53,4.95,4.79.06.15.25.24.49.45.04-.67.08-1.19.13-1.97.98.76,1.78,1.32,2.53,1.96,1.18,1.01,2.1,2.21,2.35,3.79.07.42.12.78.61.88.1-.09.2-.18.3-.27-.09-1.1-.18-2.19-.27-3.29-.01-.11-.03-.23-.04-.35-.01-.1,0-.19.03-.29.3-.04.6-.08.9-.13,0,.15,0,.29-.01.43.34.05.67.1,1.03.15.37,1.46-.21,2.99.46,4.39.11,0,.22.02.33.03.03-.21.06-.41.09-.61.07-.08.14-.17.22-.26,1.26.02,2.53.04,3.83.06.05,1.1.13,2.02-.41,2.86-.12.19-.19.5-.11.68.18.4.41.32.58-.05.09-.11.19-.22.28-.33.98.14,1.96.28,3.12.44-.82,1.19-1.76,1.81-3.08,1.97-1.66.19-3.3.51-4.95.76-.42.07-.85.09-1.33.14.04-1.34-.51-2.36-1.28-3.2-.93-1.02-1.9-2.04-3.02-2.84-3.35-2.38-6.82-4.61-10.15-7.01-1.84-1.33-3.58-2.82-5.24-4.38-1.96-1.83-2.4-4.1-1.41-6.62.09-.21-.01-.5-.02-.81-2.04,1.08-2.04,4.53-1.44,6.11.83,2.16,2.46,3.71,4.13,5.22,1.66,1.51,3.19,3.14,4.26,5.15.18-.02.37-.03.56-.04.05-.38.1-.76.16-1.21,1.16.28,1.85,1.1,2.64,1.74.77.63,1.49,1.33,2.14,2.08.67.77,1.23,1.64,1.96,2.62.13-.77.22-1.32.32-1.93,3.36,2.13,5.87,4.73,6.46,8.94,1.1-1.08.11-2.19.62-3.2,2.02,0,4.11-.07,6.19.02,1.54.07,2.91.59,3.51,2.23.02.05.17.04.33.07.2-.74.4-1.49.65-2.4-.58-.5-1.21-1.04-1.85-1.59.4-.46.88-.89,1.21-1.43.36-.57.53-1.25.85-1.86Zm-1.28-3.33c-.91.07-1.84.14-2.95.23-.04-.8-.08-1.51-.13-2.38.58,0,1.06-.02,1.53,0,1.65.1,1.79.29,1.55,2.15Zm-8.23.66c-.71-1.12.07-1.99.06-3.02h3.44c.21.88.39,1.62.6,2.45-1.48.21-2.82.39-4.1.57Zm4.42-7.91c-3.47-.48-6.62-.03-8.85,3.06-.76-.7-1.44-1.32-2.32-2.13,1.7-1.01,3.27-1.96,4.87-2.86.32-.18.74-.23,1.12-.23,1.55-.03,3.09-.01,4.64-.03,1.38-.02,2.39.81,3.51,1.37-.11,1.23-.22,1.36-1.33,1.69-.07-1.03-.09-2.17-1.64-2.06v1.19Zm2.43,10.71c-.35.02-.7.01-1.04.07-.33.05-.65.16-.95.24-.08-.1-.19-.18-.18-.24q.22-2.26,2.5-2.12c.43.03.85.11,1.39.18q-.28,1.77-1.72,1.87Zm-5.32-9.33c-.45.81-1.21,1.46-.86,2.68.9-.09,1.71-.17,2.63-.27-.44-1.02-.31-2.24-1.77-2.41Zm-12.38-3.11c2.23,1.81,3.11,1.75,4.72-.18-1.56-.63-3.04-.08-4.72.18Zm1.01-4.75c.6.55,1.11.64,1.66-.32-.73.14-1.19.23-1.66.32Z"/>
    <path class="cls-1" d="m11.86,98.92c.42-.17.74-.26,1.04-.41.99-.52,1.52-1.53,1.39-2.59-.15-1.17-.51-1.7-1.93-1.86-2.21-.25-4.45-.27-6.78-.39,1.14,3.36.24,6.66.72,9.98.79-.04,1.51-.08,2.28-.12v-3.87c.82-.34,1.16.21,1.52.67.66.87,1.28,1.78,1.98,2.62.26.31.67.61,1.05.67.66.11,1.35.03,2.41.03-1.36-1.75-2.47-3.18-3.68-4.73Zm-1.49-.65c-.52.11-1.08.06-1.76.1v-3.59c.5-.02.98-.08,1.45-.07,1.2.04,1.73.39,1.83,1.12.18,1.39-.27,2.17-1.52,2.44Z"/>
    <path class="cls-1" d="m24.78,98.59c-.28-.19-.57-.39-.91-.62.34-.3.66-.52.89-.81.86-1.06.36-2.7-.89-3.02-2.32-.6-4.67-.28-7.12-.37q.76,1.19.76,2.64v7.18c2.3-.13,4.36.17,6.44-.42,1.24-.36,1.72-1.12,1.95-2.16.22-1.03-.25-1.85-1.12-2.42Zm-4.82-3.72c.92-.4,1.71.02,2.51.27.45,2.16.04,2.59-2.51,2.52v-2.79Zm2.26,7.52c-.51.17-1.03.3-1.55.42-.18.04-.39,0-.7-.03v-4.1c.63,0,1.2-.04,1.78.01,1.06.09,1.74.7,1.84,1.59.13,1.16-.22,1.72-1.37,2.11Z"/>
    <path class="cls-1" d="m19.55,92.76c-.68-.82-1.22-1.59-1.88-2.24-.7-.7-1.48-1.33-2.29-1.9-.76-.52-1.47-1.17-2.53-1.37-.06.54-.11,1.02-.15,1.49-.17,0-.33,0-.49,0-1.32-2.41-3.19-4.29-5.41-5.89-1.17-.84-2.11-1.9-2.86-3.19-.78-1.33-.41-2.67-.37-4.01.01-.22.37-.42.72-.79.05.52.14.85.09,1.15-.19,1.41.37,2.58,1.32,3.5,1.02.99,2.16,1.88,3.33,2.7,1.91,1.34,3.95,2.5,5.82,3.91,1.26.94,2.34,2.13,3.42,3.29.82.86,1.22,1.96,1.28,3.34Z"/>
    <path class="cls-1" d="m36.14,103.24c-2.14,1.14-5.55.57-7.21-1.19-.53-.57-.86-1.2-.9-1.97-.03-.7-.02-1.4-.05-2.09-.07-1.7.93-3.02,2.22-3.62,1.94-.93,4.14-1.3,6.32-.11-.22.53-.42,1.04-.68,1.67-.92-1.01-1.98-1.34-3.19-1.1-1.22.24-2.07,1.21-2.16,2.47-.04.65-.01,1.3-.05,1.94-.12,2.25,2.33,3.77,4.46,3.16.51-.15,1.04-.27,1.61-.41.3.69.1,1-.37,1.25Z"/>
    <path class="cls-1" d="m25.65,83.08l-.3.27"/>
    <path class="cls-1" d="m26.27,79.02c0,.15,0,.29-.01.43-.2.02-.4.04-.59.06-.11-.02-.22-.04-.33-.07-.01-.1,0-.19.03-.29.3-.04.6-.08.9-.13Z"/>
    <path class="cls-1" d="m12.71,81.26v.63c-.07.02-.13.04-.19.06-.12-.22-.25-.44-.37-.65.18-.02.37-.03.56-.04Z"/>
    <path class="cls-1" d="m14.53,62.94v-.67c.52.22.47.45,0,.67Z"/>
    <path class="cls-1" d="m12.71,88.74c-.04.13-.07.25-.11.38-.13-.13-.25-.25-.38-.37.16,0,.32,0,.49,0Z"/>
    <path class="cls-1" d="m28.08,84.02c-.04.07-.08.14-.12.21-.07-.08-.14-.16-.21-.24.11,0,.22.02.33.03Z"/>
    <path class="cls-1" d="m25.67,79.51c-.1.1-.2.19-.29.28-.01-.11-.03-.23-.04-.35.11.03.22.05.33.07Z"/>
    <path class="cls-1" d="m26.27,79.02c-.3.05-.6.09-.9.13"/>
    <path class="cls-1" d="m18.55,68.28c.46-.09.93-.18,1.66-.32-.55.96-1.06.87-1.66.32Z"/>
  </g>
  <g>
    <path class="cls-1" d="m317.4,103.06c-.18-.81-.53-1.59-.69-2.4-.45-2.32-.82-4.65-1.26-6.96-.12-.62-.42-1.2-.54-1.82-.47-2.29-.86-4.59-1.34-6.88-.41-1.96-.96-3.89-1.35-5.86-.38-1.92-.53-3.88-.99-5.78-.66-2.67-1.15-5.37-1.7-8.06-.31-1.53-.73-3.03-1.13-4.64-3.48,0-6.97-.09-10.45.04-1.79.07-3.23,1.08-4.01,2.72-.9,1.9-1.68,3.85-2.49,5.78-.63,1.48-1.23,2.97-1.86,4.45-.85,2-1.73,3.99-2.57,6-1.46,3.51-2.9,7.04-4.36,10.55-.83,1.96-1.7,3.91-2.53,5.87-.73,1.72-1.46,3.44-2.16,5.17-.51,1.27-.98,2.56-1.5,3.92h12.08c.84-2.23,1.64-4.35,2.4-6.38,2.55-.31,13.74-.22,14.76.08.41,2.11.82,4.2,1.23,6.32h10.71c-.08-.76-.1-1.46-.25-2.12Zm-22.94-13.64c.66-2.82,1.8-5.36,2.73-7.98.95-2.64,1.94-5.27,3.17-7.93,1.12,5.26,2.23,10.52,3.38,15.91h-9.28Z"/>
    <path class="cls-1" d="m229.13,60.94c-.38,1-.71,2.02-1.13,3-1.26,2.93-2.6,5.83-3.83,8.77-1.01,2.41-1.89,4.89-2.89,7.3-.98,2.35-2.09,4.65-3.08,6.99-.81,1.92-1.5,3.9-2.29,5.82-.67,1.63-1.41,3.23-2.11,4.84-.58,1.35-1.15,2.7-1.7,4.06-.47,1.13-.91,2.27-1.39,3.46h-12.31c-.64-2.2-1.29-4.36-1.87-6.54-.57-2.18-1.03-4.4-1.58-6.58-.87-3.39-1.75-6.78-2.66-10.16-.55-2.08-1.18-4.15-1.75-6.23-.62-2.28-1.34-4.53-1.77-6.84-.28-1.53-1.15-2.45-2.39-3.01-1.81-.83-3.69-1.53-5.59-2.17-1.78-.61-3.62-1.06-5.51-1.6v-1.21c.21-.1.34-.21.48-.21,6.44,0,12.88-.03,19.32.03,2.21.02,4.01,1.01,4.83,3.12.56,1.45.79,3.04,1.11,4.57.29,1.43.52,2.86.72,4.3.47,3.39,1.52,6.67,1.91,10.06.27,2.33,1.01,4.55,1.31,6.86.03.29.19.56.33.92,3.94-10.01,7.83-19.92,11.73-29.82h11.85c.09.09.17.18.26.27Z"/>
    <path class="cls-1" d="m261.75,71.21c-1.12,1.24-1.15,2.51.05,3.67.85.82,1.86,1.51,2.87,2.13,2.21,1.34,4.46,2.6,6.69,3.91.47.27.93.59,1.35.93,3.99,3.22,5.13,7.42,3.99,12.25-1.16,4.93-4.48,8.02-9.05,9.97-2.7,1.14-5.52,1.63-8.42,1.71-2.39.06-4.8.22-7.17-.04-2.49-.27-4.96-.86-7.32-1.77-.25-.09-.54-.48-.54-.74-.01-.52.15-1.05.26-1.57.56-2.56,1.12-5.11,1.72-7.9,1.5.66,2.79,1.41,4.18,1.8,2.46.68,4.98,1.17,7.58,1.03,1.7-.1,3.34-.38,4.86-1.18,1.4-.74,2.26-1.95,1.8-4.15-.1-.49-.4-1.07-.79-1.36-1.22-.93-2.48-1.85-3.83-2.57-2.22-1.19-4.5-2.26-6.46-3.87-1.59-1.31-3.04-2.74-3.79-4.7-.37-.95-.71-1.95-.8-2.95-.52-5.51,1.98-9.64,6.37-12.61,2.01-1.36,4.31-2.27,6.83-2.64,2.1-.3,4.16-.91,6.31-.76,1.57.11,3.15.29,4.7.56,1.91.33,3.8.78,5.79,1.19.01,3.33-1.26,6.3-1.71,9.38-1.12.55-1.91-.29-2.72-.56-2.88-.98-5.81-1.25-8.79-1.02-1.53.11-2.91.71-3.96,1.86Z"/>
    <path class="cls-1" d="m245.73,60.71c-.27,1.44-.5,2.83-.79,4.22-.56,2.68-1.13,5.36-1.71,8.04-.49,2.23-1.03,4.46-1.51,6.69-.41,1.9-.75,3.81-1.15,5.71-.38,1.78-.8,3.54-1.19,5.32-.2.94-.37,1.88-.56,2.81-.26,1.3-.51,2.6-.79,3.89-.57,2.55-1.17,5.1-1.79,7.8h-11.49c-.25-.92.25-1.71.41-2.53.43-2.18.87-4.35,1.32-6.52.09-.43.26-.84.34-1.27.49-2.5.95-5,1.47-7.5.15-.76.49-1.49.65-2.25.41-2.03.75-4.06,1.15-6.08.1-.52.38-1.01.49-1.53.45-2.25.86-4.52,1.31-6.77.11-.57.39-1.11.5-1.68.45-2.31.84-4.64,1.29-6.95.09-.46.35-.89.56-1.4h11.49Z"/>
    <path class="cls-1" d="m73.93,99.97c-.17-1.74-1.19-2.89-2.66-3.7-.22-.13-.47-.21-.73-.32.1-.15.12-.2.16-.23.11-.09.22-.19.35-.27,1.8-1.02,2.36-2.63,2.1-4.56-.26-1.88-1.34-3.07-3.2-3.66-3.13-.99-6.29-.27-9.4-.54-.3,1.85-.19,18.34.16,19.5,2.92-.13,5.9-.24,8.87-.38,1.58-.08,2.76-.82,3.67-2.12.81-1.16.81-2.42.68-3.72Zm-9.62-10.03c1.17.1,2.25.1,3.3.3,1.05.22,1.57,1.01,1.36,2.06-.34,1.63-.22,1.77-1.67,2.02-.87.15-1.78.05-2.68.07-.1-.09-.2-.17-.3-.25h-.01v-4.2Zm3.37,12.9c-1.06.15-2.16.03-3.42.03v-5.16c1.08,0,2.06-.03,3.03.01,1.42.05,2.16.78,2.32,2.19.15,1.39-.66,2.75-1.93,2.93Z"/>
    <path class="cls-1" d="m41.42,55.25H.12v46.07c0,.4.02.79.03,1.19.04,1.49.8,2.5,2.12,3.11,1.94.9,3.92,1.65,6.05,1.97.34.05.71.09,1.01.24,1.57.8,3.31.8,4.97.92,3.43.25,6.88.22,10.32.3.3,0,.6.03.89-.01,1.37-.19,2.73-.39,4.09-.59.33-.05.67-.09.99-.18,2.05-.51,4.13-.96,6.15-1.59,1.48-.46,3.07-.83,4.14-2.13.14-.37.28-.74.42-1.12.06-.69.17-1.38.17-2.07.01-14.9.01-29.81.01-44.71,0-.43-.05-.87-.07-1.4Zm-.8,45.25c0,.59-.03,1.19-.06,1.79-.08,1.4-.83,2.32-2.13,2.78-1.56.54-3.11,1.19-4.71,1.53-4.44.94-8.91,1.8-13.49,1.65-1.77-.05-3.54-.05-5.31-.41-1.93-.4-3.91-.52-5.85-.88-.97-.17-1.89-.61-2.84-.93-.52-.17-1.04-.34-1.57-.48-2.04-.55-3.36-1.33-3.34-4.09.1-13.9.06-27.81.07-41.71v-3.32h39.14c.03.39.09.77.09,1.16.01,14.3.01,28.6,0,42.91Z"/>
    <path class="cls-1" d="m394.52,87.89c-.11-1.63-.94-2.8-2.48-3.43-.84-.34-1.68-.68-2.7-1.08.42-.26.69-.43.98-.59,1.44-.8,2.12-2.06,1.99-3.66-.15-1.9-1.14-3.11-2.88-3.52-1.54-.36-3.11-.77-4.68-.82-3.69-.09-7.38.01-11.08.04v.68c.37.2.74.4,1.16.63.05.41.14.85.15,1.3.01,4.48.01,8.97.03,13.45,0,1-.22,1.77-1.38,1.91-.08,0-.13.22-.24.4.25.07.43.17.6.17,5.04-.04,10.09,0,15.12-.18,1.16-.04,2.38-.62,3.43-1.22,1.52-.86,2.09-2.37,1.98-4.08Zm-16.07-11.21c.27-.05.55-.14.83-.15,1.89-.01,3.79-.05,5.69.03.82.04,1.68.25,2.45.56,2.01.8,2.33,2.97.77,4.46-.85.81-1.94,1.05-2.99,1.11-2.22.13-4.46.04-6.75.04v-6.05Zm10.95,13.83c-1,.39-2.05.83-3.1.88-2.58.12-5.17.04-7.84.04v-6.81c2.56,0,4.96-.07,7.34.04,1.01.05,2.02.43,2.98.78,1,.36,1.57,1.21,1.89,2.19.37,1.11-.2,2.46-1.27,2.88Z"/>
    <path class="cls-1" d="m69.29,69.39c.23-.1.51-.3.81-.36,1.14-.22,1.85-.98,2.36-1.9.83-1.53,1.01-3.2.58-4.89-.34-1.36-.94-2.67-2.34-3.22-1.03-.4-2.15-.71-3.24-.76-2.24-.1-4.49.01-6.73.03-.09.09-.18.17-.27.26-.01,6.17-.02,12.34-.03,18.5,0,.1.05.19.12.43h3.77v-8.14c2.68,2.53,3.6,5.74,5.51,8.29h4.07c.09-.08.19-.16.28-.24h0c-1.31-2.86-2.97-5.48-4.89-8Zm-1.81-3.09c-.98.23-2,.29-3.12.44v-5.37c1.02.05,1.91.04,2.79.16,1.17.17,1.87,1.04,1.95,2.27.07,1.16-.55,2.24-1.62,2.5Z"/>
    <path class="cls-1" d="m550.22,92.85c-1.47-.21-2.36-1.15-3.04-2.36-.56-1-1.04-2.05-1.69-2.98-.53-.76-1.26-1.38-1.9-2.06h-1.17c-.02-.09-.05-.18-.07-.27.31-.1.63-.19.94-.29.09-.05.17-.11.26-.14,2.12-.64,3.78-1.77,3.85-4.2.04-1.23.09-2.6-.98-3.53-.62-.54-1.36-1.03-2.14-1.3-1.07-.38-2.21-.71-3.34-.75-3.98-.13-7.97-.14-11.96-.18-.15,0-.3.17-.67.39.69.4,1.21.7,1.72,1,.03.22.08.42.08.61,0,4.78.02,9.56,0,14.34,0,1.19-.04,1.18-1.16,1.53-.18.06-.32.27-.59.5,1.29.56,2.49.28,3.65.32,2.91.1,2.92.06,3.53-.47-.99-.04-1.93-.26-1.99-1.36-.09-1.81-.02-3.64-.02-5.58,1.56,0,3.05.05,4.53-.02,1.75-.07,2.94.64,3.76,2.17.64,1.18,1.38,2.3,2.1,3.44.67,1.06,1.67,1.73,2.9,1.86,1.08.11,2.18.01,3.27-.03.26-.01.51-.13,1.07-.28-.52-.2-.73-.33-.95-.36Zm-10.05-9.01c-2.17.2-4.36.25-6.69.37v-7.58c.32-.06.65-.15.97-.15,1.4-.02,2.8.04,4.19-.02,1.28-.05,2.43.32,3.56.84,1.24.57,1.65,1.65,1.68,2.9.02,1.21-.31,2.29-1.51,2.85-.71.33-1.45.72-2.2.79Z"/>
    <path class="cls-1" d="m484.5,89.18c.03.71-.22,1.24-.7,1.73-1.06,1.11-2.36,1.8-3.78,2.34-2.88,1.1-5.9,1.11-8.84.8-3.2-.34-6.16-1.58-8.32-4.19-2.09-2.54-2.77-5.48-1.56-8.46,1.09-2.68,3.29-4.58,6.04-5.71,1.79-.73,3.61-1.25,5.58-1.08.69.06,1.4.05,2.1.01,2.75-.13,5.17.98,7.6,1.88.39,1.5.75,2.9,1.21,4.68-.62-.3-.91-.38-1.14-.56-.19-.14-.3-.39-.45-.59-2.66-3.38-6.22-4.43-10.32-3.73-3.01.51-5.15,2.37-6.67,4.96-.19.32-.23.74-.32,1.11-.85,3.24.18,5.86,2.73,7.9,3.3,2.64,8.73,2.77,12.23.39.78-.52,1.22-1.14,1.18-2.08-.03-.98-.05-1.96-.07-2.9-.74-.21-1.31-.37-2.11-.6,1.45-.61,6.24-.64,7.51-.12-.66.24-1.23.43-1.91.67,0,1.17-.03,2.36,0,3.55Z"/>
    <path class="cls-1" d="m516.23,91.2c-2.16-4.15-4.38-8.26-6.58-12.39-.72-1.34-1.46-2.68-2.19-4h-2.52c-.93,1.77-1.84,3.52-2.76,5.28-1.97,3.74-3.93,7.48-5.9,11.23-.34.65-.61,1.37-1.57,1.37-.19-.01-.37.38-.77.83,2.05,0,3.74.02,5.44-.02.24,0,.48-.26.97-.56-.8-.21-1.25-.33-1.65-.44-.32-1.36.78-2.13,1.07-3.2.2-.73.84-.95,1.64-.93,2.74.04,5.48.06,8.23,0,1.09-.03,1.79.25,2.1,1.37.13.46.52.85.7,1.3.18.43.24.9.29,1.12-.33.73-1.35.25-1.18,1.28h6.52c.02-.17.03-.34.05-.51-.91-.27-1.45-.87-1.89-1.72Zm-14.87-4.89c1.41-2.77,2.78-5.44,4.31-8.44,1.38,3.05,3.02,5.58,4.2,8.44h-8.51Z"/>
    <path class="cls-1" d="m120.34,106.03c-1.59.01-2.9.07-4.2,0-.29-.02-.63-.44-.82-.75-1.2-1.95-2.36-3.92-3.53-5.89-.15-.25-.31-.49-.68-.72v7.26h-3.65c-.03-.36-.1-.73-.1-1.11-.01-3.68.03-7.37-.01-11.05-.03-2.48-.16-4.95-.24-7.51,1.18-.12,2.32-1.05,3.89-.7v11.7c.1.03.2.06.3.09,1.09-1.79,2.18-3.58,3.26-5.37.54-.07,1.07-.14,1.61-.2h3.15c-1.63,2.13-3.08,4.04-4.58,6,1.76,2.59,3.58,5.28,5.6,8.25Z"/>
    <path class="cls-1" d="m97.25,72.27c.84-2.95,1.67-5.9,2.53-8.92h4.2c-.73,1.98-1.43,3.87-2.11,5.76-.54,1.49-1.04,2.99-1.57,4.48-.76,2.15-1.45,4.33-2.34,6.42-1.09,2.58-2.64,3.49-5.66,3.61-.34-.66-.7-1.35-1.1-2.15.87-.45,1.77-.74,2.44-1.31.66-.55,1.08-1.39,1.74-2.28-.7-.15-1.07-.4-1.25-.97-.61-2-1.29-3.97-1.98-5.93-.72-2.06-1.5-4.1-2.22-6.15-.14-.4-.12-.85-.19-1.37,1.31-.12,2.48-.24,3.76-.36.67,2.08,1.33,4.11,1.97,6.14.4,1.26.78,2.52,1.17,3.78"/>
    <path class="cls-1" d="m87.89,103.46c0-1.22-.01-2.46,0-3.7s.05-2.49.06-3.73c.04-2.95-1.88-4.34-4.48-4.54-2.27-.18-4.25.73-6.24,1.59-.16.07-.25.29-.45.52.55.88,1.09,1.75,1.65,2.66.52-.31.91-.53,1.28-.76.91-.57,1.9-.8,2.97-.76.97.04,1.26.26,1.41,1.16.07.38.02.77.02,1.19-.82.08-1.57.12-2.3.22-.79.12-1.58.23-2.35.45-1.74.51-2.82,1.92-2.9,3.73-.02.65.06,1.3.03,1.94-.03.77.37,1.34.86,1.79.86.78,1.87,1.29,3.08,1.39,1.72.13,3.27-.23,4.47-1.46.74.62,1.37,1.15,2.09,1.76.79-.84,1.48-1.58,2.2-2.36-.5-.39-.85-.66-1.4-1.09Zm-3.82-1.49c-.04,1.02-.55,1.61-1.47,1.75-.89.14-1.77-.33-2.05-1.08-.28-.76.12-1.93.94-2.28.75-.32,1.59-.43,2.59-.68,0,1.01.02,1.65-.01,2.29Z"/>
    <path class="cls-1" d="m116.71,72.43c.06-1.65.18-3.3.07-4.93-.11-1.61-.41-3.17-2.28-3.88-3.2-1.22-6.01-.38-8.7,1.39-.06.04-.05.18-.07.27.46.76.91,1.52,1.43,2.38.48-.2.87-.38,1.27-.54.74-.27,1.47-.68,2.24-.78,2-.26,2.23.01,2.18,2.05,0,.08-.07.17-.12.26-1.07.12-2.16.19-3.23.38-3.23.56-4.4,2.38-4.03,5.64.2,1.82,1.34,2.83,3.02,3.29,2.01.55,3.82.09,5.41-1.23.69.54,1.34,1.06,2.08,1.64.74-.78,1.41-1.49,2.14-2.27-1.28-.99-1.46-2.28-1.41-3.67Zm-3.82,1.11c-.03,1.11-.99,1.96-2.04,1.82-.93-.13-1.85-1.43-1.53-2.35.16-.45.63-.86,1.05-1.15.65-.45,1.21-.47,2.52-.36,0,.67.02,1.36,0,2.04Z"/>
    <path class="cls-1" d="m425.57,75.22c-2.06.44-2.3,2.31-3.01,3.65-2.32,4.34-4.47,8.77-6.69,13.16-.24.47-.54.91-.78,1.32-.16.04-.26.09-.35.09-2.98-.1-2.22.55-3.69-2.24-2.5-4.74-4.96-9.51-7.4-14.29-.38-.76-.84-1.2-1.81-1.01v-.98c.11-.09.14-.15.18-.15,2.05,0,4.09,0,6.13.03.2,0,.39.23.76.46-.66.3-1.12.52-1.74.8.11.38.15.8.34,1.16,1.98,3.85,3.99,7.68,5.98,11.52.21.42.36.88.62,1.52.27-.39.47-.63.61-.9,1.98-3.84,3.96-7.69,5.89-11.55.27-.54.32-1.2.48-1.79-.55-.32-.95-.54-1.4-.81.83-.51,2.14-.64,4.69-.45.39.03.77.19,1.19.46Z"/>
    <path class="cls-1" d="m87.61,65.93c-2.25-3.91-8.86-3.99-11.02.43-.61,1.26-1,2.55-.93,3.61,0,2.57.41,4.6,2.07,6.3,2.29,2.37,7.73,2.31,9.75-.99.4-.65.62-1.42.87-2.15.87-2.51.54-4.96-.74-7.2Zm-3.57,7.88c-.37,1.08-1.07,1.35-2.27,1.19-.92-.12-1.51-.71-1.59-1.8-.12-1.67-.2-3.35-.18-5.03.01-.52.33-1.11.67-1.52,1.14-1.35,2.76-1.14,3.41.51.4,1.03.45,2.2.68,3.4-.23,1.05-.36,2.19-.72,3.25Z"/>
    <path class="cls-1" d="m103.22,105.96h-3.5c-.03-.39-.08-.77-.08-1.15-.01-2.44.02-4.88-.01-7.32-.01-.78-.17-1.55-.26-2.39-.57-.02-1-.08-1.44-.06-1.51.04-2.18.71-2.18,2.18,0,2.39,0,4.78-.02,7.17,0,.49-.04.98-.07,1.57h-3.71c-.04-.34-.1-.72-.1-1.1-.01-2.14.03-4.28-.02-6.42-.03-1.78-.19-3.56-.23-5.34-.01-.33.18-.87.41-.96.86-.33,1.79-.51,2.76-.76.22.55.4,1,.62,1.55.54-.27,1.07-.66,1.67-.82.94-.26,1.96-.63,2.89-.49,2.17.31,3.12,1.12,3.24,3.86.14,3.42.03,6.86.03,10.48Z"/>
    <path class="cls-1" d="m452.41,93.36h-16.45c.14-.34.15-.41.17-.42,1.55-.39,1.62-1.53,1.61-2.85-.05-3.94-.02-7.87-.02-11.81,0-.4.03-.81-.05-1.19-.14-.69-.36-1.34-1.21-1.51-.2-.04-.36-.31-.6-.53,1.63-.5,5.73-.41,6.6.09-.04.09-.07.25-.12.26-1.4.25-1.57,1.2-1.56,2.42.04,4.48.02,8.96.02,13.55.43.04.81.11,1.18.11,2.4,0,4.8-.04,7.19.03,1.56.04,2.84-.42,3.92-1.5.17-.17.39-.27.6-.42.31.98-.12,2.15-1.28,3.77Z"/>
    <path class="cls-1" d="m126.3,77.86c-.91.02-1.8.13-2.67.04-1.63-.17-2.89-1.54-2.91-3.37-.06-5.41-.06-10.83-.08-16.25,0-.14.07-.28.13-.49,1.15-.28,2.31-.56,3.64-.88.05.87.12,1.5.12,2.13.02,4.58.03,9.15.04,13.73,0,.49-.05,1.01.08,1.48.12.45.35,1.11.69,1.23,1.22.43,1.08,1.28.96,2.38Z"/>
    <path class="cls-1" d="m570.32,93.05c-1.41.4-5.54.41-6.94.11.14-.18.23-.39.37-.44,1.25-.46,1.31-.47,1.32-1.72.02-4.53.02-9.06.02-13.59,0-.95-.16-1.8-1.37-1.91-.09-.01-.17-.22-.32-.45,1.65-.53,5.72-.41,6.53.14-.03.09-.05.23-.11.25-1.4.56-1.41.56-1.41,2,0,4.33.02,8.66-.01,12.99-.01,1.24-.06,2.41,1.92,2.62Z"/>
    <path class="cls-1" d="m9.91.65v9.35c-.32.03-.6.06-1.03.1-.03-1.82-.05-3.6-.08-5.37v-1.4h-.16c-.13.45-.26.91-.39,1.37-.56,1.75-1.12,3.51-1.71,5.34h-1.14c-.33-1.06-.66-2.2-1.05-3.33-.26-.78-.58-1.53-.88-2.3h-.22c-.04,1.8-.08,3.59-.11,5.38-.09.08-.18.17-.26.25-.7.19-.73-.25-.73-.75,0-2.24,0-4.48-.01-6.72V.58h1.51c.74,2.47,1.49,4.96,2.24,7.45.09-.01.18-.01.28-.02.77-2.59,1.55-5.17,2.36-7.85.58.21.97.34,1.38.49Z"/>
    <path class="cls-1" d="m40.27,2.77c-.24-1.33-1.18-2.24-2.67-2.39-1.02-.1-2.06-.02-3.2-.02v9.74c.41-.03.73-.06,1.17-.1v-3.73h1.67c.68,1.45,1.33,2.81,2.01,4.23.43-.23.75-.4,1.04-.56-.63-1.37-1.23-2.7-1.82-4.02,1.56-.86,2.05-1.76,1.8-3.15Zm-4.69,2.33V1.31c.78.04,1.43.02,2.06.13.98.16,1.49.8,1.49,1.74.01.96-.46,1.61-1.43,1.79-.67.13-1.36.09-2.12.13Z"/>
    <path class="cls-1" d="m98.8,4.08c.27-1.57.08-2.99-1.65-3.52-1.3-.4-2.63-.32-4-.17v9.7c.08.08.16.17.24.25h0c.29-.14.59-.28.92-.44v-3.63h1.67c.57,1.22,1.11,2.39,1.65,3.57.25.55.59.75,1.18.33.06-1.61-1.41-2.69-1.5-4.23,1.04-.64,1.31-.87,1.49-1.86Zm-4.51,1.01V1.4c.66,0,1.29-.07,1.91.01,1.09.13,1.59.65,1.63,1.56.06,1.2-.3,1.75-1.48,1.99-.62.13-1.27.09-2.06.13Z"/>
    <path class="cls-1" d="m32.41,3.51c-.27-1.56-.87-2.96-2.86-3.21-1.27-.16-2.32.05-3.15,1.09-.9,1.14-1.13,2.45-.97,3.86,0,.54-.06,1.1.01,1.63.28,2.18,1.82,3.49,3.3,3.54,2.02.08,3.39-1.1,3.67-3.06.17-1.26.22-2.6,0-3.85Zm-1.81,5.02c-.87,1.05-2.25,1.47-3.13-.01-.5-.86-.75-1.86-1.11-2.78.28-1.09.48-2.05.79-2.98.24-.72.66-1.26,1.56-1.36.99-.11,1.58.31,2.07,1.08.93,1.48.92,4.73-.18,6.05Z"/>
    <path class="cls-1" d="m91.28,4.22c-.34-1-.71-2.01-1.21-2.94-.37-.71-1.19-.71-1.93-.87-1.69-.34-2.93.29-3.53,2.01-.68,1.94-.67,3.9.06,5.83.42,1.12,1.22,1.96,2.45,2.15,1.31.2,2.45-.22,3.27-1.33.77-1.05,1.01-2.24.99-3.52-.03-.44.04-.92-.1-1.33Zm-1.6,3.42c-.46,1.39-.69,1.56-1.94,1.56-1.2-.01-1.78-.41-2.13-1.65-.2-.71-.24-1.46-.4-2.47.2-.73.39-1.7.74-2.61.38-1,1.27-1.12,2.22-1.06.93.06,1.3.74,1.53,1.42.54,1.59.51,3.22-.02,4.81Z"/>
    <path class="cls-1" d="m66.34,2.27c-.44-1.79-3.82-2.81-5.13-1.3-.7.81-1.52,1.5-1.42,2.75.08,1.13.07,2.28.02,3.41-.05,1.11.58,1.85,1.27,2.53,1.19,1.18,4.13,1.19,4.99-.8.46-1.06.67-2.24.96-3.26-.25-1.24-.44-2.3-.69-3.33Zm-1.44,6.1c-.63,1.32-2.36,1.41-3.21.18-.7-1.02-.92-2.19-.93-3.58.11-.95.09-2.09.96-2.99.96-1.01,2.53-.78,3.22.45,1.09,1.99.88,3.99-.04,5.94Z"/>
    <path class="cls-1" d="m50.58,7.33c.03,1.79-.42,2.6-1.8,2.99-1.51.44-3.27-.24-3.97-1.51-.31-.55-.25-.93.53-1.13.2.29.41.61.66.9.76.89,1.88,1.07,2.85.47.69-.43.72-1.9-.01-2.48-.43-.34-.94-.57-1.41-.85-.55-.33-1.12-.64-1.64-1.01-.89-.64-1.36-1.97-.93-3.01.36-.85,1.17-1.31,2.08-1.46,1.03-.17,1.98,0,2.78.75.42.41.69.83.42,1.72-.34-.15-.66-.22-.91-.41-.27-.2-.44-.54-.7-.76-.66-.56-1.41-.53-2.01.05-.58.57-.63,1.33-.03,2,.33.36.77.62,1.18.88.64.39,1.31.72,1.93,1.13.61.4.96.95.98,1.73Z"/>
    <path class="cls-1" d="m105.55,9.82c-1.49,1.15-4.27.62-5.17-1.02-.3-.54-.06-.95.83-1.17.36.42.77.99,1.27,1.46.59.56,1.83.41,2.38-.21.4-.46.37-1.74-.15-2.19-.45-.39-1-.65-1.49-.99-.65-.45-1.35-.86-1.92-1.41-.8-.78-.87-1.97-.34-2.89.44-.79,1.99-1.38,2.84-1.14,1.08.31,2.06.64,2.37,1.93-.34.51-.8.82-1.2.08-.48-.89-1.22-.93-2.03-.85-1.07.12-1.53,1.1-.82,1.89.52.58,1.21,1,1.87,1.42.79.5,1.67.84,2.17,1.75.6,1.1.38,2.57-.61,3.34Z"/>
    <path class="cls-1" d="m75,6.22v3.74c-.33.11-.64.22-1.09.38-1.32-2.52-2.65-5.06-3.98-7.6-.32,2.38-.23,4.77-.28,7.27-.32.02-.59.04-.97.07V.6h1.59c.93,2.01,1.88,4.08,2.85,6.13.08.16.29.27.44.39.07.1.14.2.21.3.03-.11.06-.22.09-.33.04-.29.07-.59.11-.88.34,0,.68,0,1.03.01Z"/>
    <path class="cls-1" d="m82.78,8.33c-.15,1.06-.87,1.64-1.85,1.94-1.62.51-3.49-.22-4.32-1.69-.06-.11-.01-.29-.01-.54.68-.11,1.19-.13,1.56.43.7,1.03,1.78.78,2.73.64.93-.14,1.22-1.41.48-2.15-.55-.55-1.31-.87-1.95-1.34-.71-.52-1.47-1-2.07-1.64-.75-.79-.53-1.69,0-2.57.55-.91,1.32-1.41,2.34-1.19,1.02.22,2.22.24,2.74,1.42.12.26.01.6,0,.91-.3-.07-.64-.06-.89-.21-.28-.18-.46-.52-.72-.75-.85-.75-1.73-.63-2.42.29-.38.5-.44,1,.01,1.44s.96.85,1.49,1.21c.57.39,1.22.67,1.81,1.05,1.01.65,1.23,1.65,1.07,2.75Z"/>
    <path class="cls-1" d="m15.38.22c-.77-.04-1.41-.06-1.41,1,0,.51-.22,1.03-.36,1.54-.7,2.38-1.4,4.76-2.09,7.14-.03.11.07.27.14.5,1.92-.19.94-2.15,1.83-2.93h2.73c.84.87-.07,2.71,1.99,2.91-.64-3.52-1.77-6.8-2.83-10.16Zm-1.61,6.16c-.41-1.38.73-2.27.92-3.43.11-.01.21-.01.31-.02.12.21.3.39.36.61.24.91.44,1.82.68,2.84h-2.27Z"/>
    <path class="cls-1" d="m56.57.59c-1.29-.39-2.61-.36-3.96-.19v9.69c.36-.02.63-.04.98-.06v-3.85c.62,0,1.06.03,1.5,0,.49-.05.99-.09,1.46-.25,1.22-.4,1.73-1.24,1.7-2.65-.02-1.48-.5-2.32-1.68-2.68Zm.63,3.1c-.06.69-.39,1.14-1.02,1.28-.75.16-1.53.2-2.51.32V1.37c.57,0,1.1-.03,1.62.01,1.62.13,2.05.71,1.91,2.31Z"/>
    <path class="cls-1" d="m545.92,96.68c-.26.53-.56,1.04-.85,1.56-.29.54-.57,1.07-.91,1.69-.73-1.29-1.34-2.36-1.97-3.43-.35-.59-.81-.82-1.48-.44v5.08c.33-.04.68-.1.87-.12-.05-1.21-.09-2.29-.13-3.36.11.02.21.05.32.08.46.88.93,1.75,1.38,2.63.29.57.67.84,1.31.56.54-1,1.08-1.99,1.62-2.98.09.03.17.07.26.1v2.98c.48-.02.93-.04,1.23-.05v-4.95c-.79-.26-1.31-.05-1.65.65Zm.5.97v.02l-.08-.06.09-.04v.08Z"/>
    <path class="cls-1" d="m536.15,96.29c-1.98-1.14-4.87-.22-5.67,1.83-.1.25.03.66.17.93.99,1.91,2.21,2.47,4.43,2.09,1.39-.24,2.22-1.24,2.22-2.79.26-.94-.3-1.57-1.15-2.06Zm-2.07,4.3c-1.35-.02-2.23-.84-2.23-2.07.01-1.3.89-2.03,2.39-1.99,1.38.03,2.16.79,2.14,2.09-.02,1.22-.92,1.99-2.3,1.97Z"/>
    <path class="cls-1" d="m23.62.59v7.93c0,.86-.47,1.36-1.23,1.68-1.16.5-2.42.18-3.2-1.03.55.07.95.07,1.34.17,1.04.24,1.68-.08,1.96-1.09.11-.43.13-.88.14-1.32.01-1.84.01-3.68,0-5.52,0-.55.02-1.04.99-.82Z"/>
    <path class="cls-1" d="m553.85,95.52c-1.1,1.93-2.08,3.66-3.11,5.46.4.02.7.04,1.09.06.39-1.28.41-1.32,1.63-1.32.6,0,1.24-.02,1.76.19.28.12.37.72.54,1.11h1.45c-1.26-1.75-1.81-3.74-3.36-5.5Zm-1.13,3.64c.33-.74.62-1.37.9-2,.12-.01.23-.02.34-.02.3.64.61,1.29.95,2.02h-2.19Z"/>
    <path class="cls-1" d="m528.03,100.69c-.01.14-.02.28-.02.41-.82.17-1.48-.06-1.81-.86-.48-1.19-1.4-1.34-2.58-1.2-.14.61-.2,1.15.25,1.65-.02.12-.04.24-.06.36h-1.22v-5.12c.35.01.63.03.91.04.03.14.07.28.11.41v2.3c.95-.16,1.75-.29,2.74-.46-.19-.72-.32-1.22-.45-1.71,0-.1,0-.2-.01-.31.72-.06,1.28.19,1.51.89.26.82-.37,1.24-1.02,1.78.57.62,1.11,1.22,1.65,1.82Z"/>
    <path class="cls-1" d="m75,6.22c-.35-.01-.69-.01-1.03-.01-.33-3.52-.19-5.2.5-5.92.71.8.85,2.29.53,5.93Z"/>
    <path class="cls-1" d="m116.17,91.78c-.54.06-1.07.13-1.61.2.48-.53,1.06-.24,1.61-.2Z"/>
    <path class="cls-1" d="m41.86,103.44c-.18.39-.36.78-.53,1.17-.15-.02-.3-.04-.45-.06.14-.37.28-.74.42-1.12.18.01.37.01.56.01Z"/>
    <path class="cls-1" d="m543.59,85.44h-1.17c-.02-.09-.05-.18-.07-.27.31-.1.63-.19.94-.29.1.19.2.38.3.56Z"/>
    <path class="cls-1" d="m97.25,72.27c-.2.25-.41.5-.61.75"/>
    <path class="cls-1" d="m525.81,96.07c-.1.08-.2.17-.3.26-.64.02-1.27.04-1.9.05-.04-.13-.08-.27-.11-.41.77.03,1.54.06,2.31.1Z"/>
    <path class="cls-1" d="m528.44,101c-.15.03-.29.07-.43.1,0-.13.01-.27.02-.41.13.1.27.21.41.31Z"/>
    <polyline class="cls-1" points="3.25 4.42 3.36 4.44 3.47 4.41"/>
    <path class="cls-1" d="m524.26,101.02c-.15.01-.3.02-.45.03.02-.12.04-.24.06-.36.13.11.26.22.39.33Z"/>
    <path class="cls-1" d="m373.67,74.82v.68q-.49-.38,0-.68Z"/>
    <path class="cls-1" d="m518.42,93.12c-.11.1-.23.2-.35.3.02-.17.03-.34.05-.51.1.07.2.14.3.21Z"/>
    <path class="cls-1" d="m73.89,77.62c.09-.08.19-.16.28-.24-.09.08-.19.16-.28.24Z"/>
    <path class="cls-1" d="m229.12,60.94c-.09-.09-.17-.18-.26-.27.09.09.17.18.26.27Z"/>
    <path class="cls-1" d="m60.72,58.29l-.27.26.27-.26Z"/>
    <path class="cls-1" d="m93.16,10.08c.08.09.16.17.24.26-.08-.09-.16-.17-.24-.26Z"/>
    <path class="cls-1" d="m2.87,10.05c.09-.08.17-.17.26-.25-.09.08-.17.17-.26.25Z"/>
    <path class="cls-1" d="m525.9,96.51l-.39-.18c.1-.09.2-.18.3-.26.07.01.1.06.08.13.01.11.01.21.01.31Z"/>
    <path class="cls-1" d="m541.46,97.65c.11.03.21.06.32.08-.11-.03-.21-.06-.32-.08Z"/>
    <path class="cls-1" d="m64.32,94.14c.1.08.21.16.31.25-.1-.08-.21-.16-.31-.25Z"/>
    <path class="cls-1" d="m37.9,85.34c1.29-2.51.68-4.89-.62-7.13-.57-.97-.7-1.69.02-2.54.16-.19.28-.41.38-.64.55-1.17.29-1.94-.85-2.56-.48-.26-.99-.48-1.45-.77-1.04-.67-2.16-.91-3.39-.87-1.55.06-3.1.04-4.65.01-.83-.02-1.57.15-2.26.61-.38.26-.81.44-1.35.72-.2-1.78.14-3.38-.35-4.97-2,.85-3.81-.29-5.69-.15.65-.28,1.31-.41,1.98-.45.69-.04,1.41.09,2.09-.01.87-.13,1.84-.31,2.02-1.41.26-1.56.33-3.13.03-4.83h-11.42c-.07-.75-.13-1.37-.21-2.2-1.5.14-2.91.12-4.24.45-1.62.4-2.4,2.11-2,3.82.31,1.31,1.68,2.17,3.18,1.99.45-1.31-.98-.91-1.36-1.51-.21-2.39.58-3.13,2.84-2.55.04.56.08,1.13.12,1.76,1.34.06,2.57.11,3.81.16v.67c-.28.16-.56.32-1.07.61.96.42,1.69.74,2.55,1.12.04-.94.08-1.62.11-2.37h6.01c0,.51.01.9-.01,1.3-.04,1.31-.15,1.4-1.47,1.5-1.03.07-2.06.18-3.07.33-1.32.19-2.03,1.83-1.46,3.03.86,1.77,2.75,2.07,4.34,1.5.39-.14.78-.26,1.25-.41v1.08c-2.01.22-3.92.45-5.84.66-.35.04-.7.06-1.05.05-1.5-.01-2.73-.58-3.51-1.89-.28-.48-.44-1.04-.62-1.58-.14-.45-.39-.63-.93-.5-.15,2,.51,3.61,2.2,4.73.75.49,1.56.89,2.33,1.35,2.03,1.2,3.94,2.53,4.95,4.79.06.15.25.24.49.45.04-.67.08-1.19.13-1.97.98.76,1.78,1.32,2.53,1.96,1.18,1.01,2.1,2.21,2.35,3.79.07.42.12.78.61.88.1-.09.2-.18.3-.27-.09-1.1-.18-2.19-.27-3.29.09-.09.19-.18.29-.28.19-.02.39-.04.59-.06.34.05.67.1,1.03.15.37,1.46-.21,2.99.46,4.39.07.08.14.16.21.24.04-.07.08-.14.12-.21.03-.21.06-.41.09-.61.07-.08.14-.17.22-.26,1.26.02,2.53.04,3.83.06.05,1.1.13,2.02-.41,2.86-.12.19-.19.5-.11.68.18.4.41.32.58-.05.09-.11.19-.22.28-.33.98.14,1.96.28,3.12.44-.82,1.19-1.76,1.81-3.08,1.97-1.66.19-3.3.51-4.95.76-.42.07-.85.09-1.33.14.04-1.34-.51-2.36-1.28-3.2-.93-1.02-1.9-2.04-3.02-2.84-3.35-2.38-6.82-4.61-10.15-7.01-1.84-1.33-3.58-2.82-5.24-4.38-1.96-1.83-2.4-4.1-1.41-6.62.09-.21-.01-.5-.02-.81-2.04,1.08-2.04,4.53-1.44,6.11.83,2.16,2.46,3.71,4.13,5.22,1.66,1.51,3.19,3.14,4.26,5.15.12.21.25.43.37.65.06-.02.12-.04.19-.06v-.63c.05-.38.1-.76.16-1.21,1.16.28,1.85,1.1,2.64,1.74.77.63,1.49,1.33,2.14,2.08.67.77,1.23,1.64,1.96,2.62.13-.77.22-1.32.32-1.93,3.36,2.13,5.87,4.73,6.46,8.94,1.1-1.08.11-2.19.62-3.2,2.02,0,4.11-.07,6.19.02,1.54.07,2.91.59,3.51,2.23.02.05.17.04.33.07.2-.74.4-1.49.65-2.4-.58-.5-1.21-1.04-1.85-1.59.4-.46.88-.89,1.21-1.43.36-.57.53-1.25.85-1.86Zm-5.09-10.58c-3.47-.48-6.62-.03-8.85,3.06-.76-.7-1.44-1.32-2.32-2.13,1.7-1.01,3.27-1.96,4.87-2.86.32-.18.74-.23,1.12-.23,1.55-.03,3.09-.01,4.64-.03,1.38-.02,2.39.81,3.51,1.37-.11,1.23-.22,1.36-1.33,1.69-.07-1.03-.09-2.17-1.64-2.06v1.19Zm5.09,10.58c1.29-2.51.68-4.89-.62-7.13-.57-.97-.7-1.69.02-2.54.16-.19.28-.41.38-.64.55-1.17.29-1.94-.85-2.56-.48-.26-.99-.48-1.45-.77-1.04-.67-2.16-.91-3.39-.87-1.55.06-3.1.04-4.65.01-.83-.02-1.57.15-2.26.61-.38.26-.81.44-1.35.72-.2-1.78.14-3.38-.35-4.97-2,.85-3.81-.29-5.69-.15.65-.28,1.31-.41,1.98-.45.69-.04,1.41.09,2.09-.01.87-.13,1.84-.31,2.02-1.41.26-1.56.33-3.13.03-4.83h-11.42c-.07-.75-.13-1.37-.21-2.2-1.5.14-2.91.12-4.24.45-1.62.4-2.4,2.11-2,3.82.31,1.31,1.68,2.17,3.18,1.99.45-1.31-.98-.91-1.36-1.51-.21-2.39.58-3.13,2.84-2.55.04.56.08,1.13.12,1.76,1.34.06,2.57.11,3.81.16v.67c-.28.16-.56.32-1.07.61.96.42,1.69.74,2.55,1.12.04-.94.08-1.62.11-2.37h6.01c0,.51.01.9-.01,1.3-.04,1.31-.15,1.4-1.47,1.5-1.03.07-2.06.18-3.07.33-1.32.19-2.03,1.83-1.46,3.03.86,1.77,2.75,2.07,4.34,1.5.39-.14.78-.26,1.25-.41v1.08c-2.01.22-3.92.45-5.84.66-.35.04-.7.06-1.05.05-1.5-.01-2.73-.58-3.51-1.89-.28-.48-.44-1.04-.62-1.58-.14-.45-.39-.63-.93-.5-.15,2,.51,3.61,2.2,4.73.75.49,1.56.89,2.33,1.35,2.03,1.2,3.94,2.53,4.95,4.79.06.15.25.24.49.45.04-.67.08-1.19.13-1.97.98.76,1.78,1.32,2.53,1.96,1.18,1.01,2.1,2.21,2.35,3.79.07.42.12.78.61.88.1-.09.2-.18.3-.27-.09-1.1-.18-2.19-.27-3.29.09-.09.19-.18.29-.28.19-.02.39-.04.59-.06.34.05.67.1,1.03.15.37,1.46-.21,2.99.46,4.39.07.08.14.16.21.24.04-.07.08-.14.12-.21.03-.21.06-.41.09-.61.07-.08.14-.17.22-.26,1.26.02,2.53.04,3.83.06.05,1.1.13,2.02-.41,2.86-.12.19-.19.5-.11.68.18.4.41.32.58-.05.09-.11.19-.22.28-.33.98.14,1.96.28,3.12.44-.82,1.19-1.76,1.81-3.08,1.97-1.66.19-3.3.51-4.95.76-.42.07-.85.09-1.33.14.04-1.34-.51-2.36-1.28-3.2-.93-1.02-1.9-2.04-3.02-2.84-3.35-2.38-6.82-4.61-10.15-7.01-1.84-1.33-3.58-2.82-5.24-4.38-1.96-1.83-2.4-4.1-1.41-6.62.09-.21-.01-.5-.02-.81-2.04,1.08-2.04,4.53-1.44,6.11.83,2.16,2.46,3.71,4.13,5.22,1.66,1.51,3.19,3.14,4.26,5.15.12.21.25.43.37.65.06-.02.12-.04.19-.06v-.63c.05-.38.1-.76.16-1.21,1.16.28,1.85,1.1,2.64,1.74.77.63,1.49,1.33,2.14,2.08.67.77,1.23,1.64,1.96,2.62.13-.77.22-1.32.32-1.93,3.36,2.13,5.87,4.73,6.46,8.94,1.1-1.08.11-2.19.62-3.2,2.02,0,4.11-.07,6.19.02,1.54.07,2.91.59,3.51,2.23.02.05.17.04.33.07.2-.74.4-1.49.65-2.4-.58-.5-1.21-1.04-1.85-1.59.4-.46.88-.89,1.21-1.43.36-.57.53-1.25.85-1.86Zm-5.09-10.58c-3.47-.48-6.62-.03-8.85,3.06-.76-.7-1.44-1.32-2.32-2.13,1.7-1.01,3.27-1.96,4.87-2.86.32-.18.74-.23,1.12-.23,1.55-.03,3.09-.01,4.64-.03,1.38-.02,2.39.81,3.51,1.37-.11,1.23-.22,1.36-1.33,1.69-.07-1.03-.09-2.17-1.64-2.06v1.19Z"/>
    <polygon class="cls-1" points="546.35 97.61 546.43 97.56 546.43 97.66 546.35 97.61"/>
    <path class="cls-1" d="m37.9,85.34c1.29-2.51.68-4.89-.62-7.13-.57-.97-.7-1.69.02-2.54.16-.19.28-.41.38-.64.55-1.17.29-1.94-.85-2.56-.48-.26-.99-.48-1.45-.77-1.04-.67-2.16-.91-3.39-.87-1.55.06-3.1.04-4.65.01-.83-.02-1.57.15-2.26.61-.38.26-.81.44-1.35.72-.2-1.78.14-3.38-.35-4.97-2,.85-3.81-.29-5.69-.15.65-.28,1.31-.41,1.98-.45.69-.04,1.41.09,2.09-.01.87-.13,1.84-.31,2.02-1.41.26-1.56.33-3.13.03-4.83h-11.42c-.07-.75-.13-1.37-.21-2.2-1.5.14-2.91.12-4.24.45-1.62.4-2.4,2.11-2,3.82.31,1.31,1.68,2.17,3.18,1.99.45-1.31-.98-.91-1.36-1.51-.21-2.39.58-3.13,2.84-2.55.04.56.08,1.13.12,1.76,1.34.06,2.57.11,3.81.16.52.22.47.45,0,.67-.28.16-.56.32-1.07.61.96.42,1.69.74,2.55,1.12.04-.94.08-1.62.11-2.37h6.01c0,.51.01.9-.01,1.3-.04,1.31-.15,1.4-1.47,1.5-1.03.07-2.06.18-3.07.33-1.32.19-2.03,1.83-1.46,3.03.86,1.77,2.75,2.07,4.34,1.5.39-.14.78-.26,1.25-.41v1.08c-2.01.22-3.92.45-5.84.66-.35.04-.7.06-1.05.05-1.5-.01-2.73-.58-3.51-1.89-.28-.48-.44-1.04-.62-1.58-.14-.45-.39-.63-.93-.5-.15,2,.51,3.61,2.2,4.73.75.49,1.56.89,2.33,1.35,2.03,1.2,3.94,2.53,4.95,4.79.06.15.25.24.49.45.04-.67.08-1.19.13-1.97.98.76,1.78,1.32,2.53,1.96,1.18,1.01,2.1,2.21,2.35,3.79.07.42.12.78.61.88.1-.09.2-.18.3-.27-.09-1.1-.18-2.19-.27-3.29-.01-.11-.03-.23-.04-.35-.01-.1,0-.19.03-.29.3-.04.6-.08.9-.13,0,.15,0,.29-.01.43.34.05.67.1,1.03.15.37,1.46-.21,2.99.46,4.39.11,0,.22.02.33.03.03-.21.06-.41.09-.61.07-.08.14-.17.22-.26,1.26.02,2.53.04,3.83.06.05,1.1.13,2.02-.41,2.86-.12.19-.19.5-.11.68.18.4.41.32.58-.05.09-.11.19-.22.28-.33.98.14,1.96.28,3.12.44-.82,1.19-1.76,1.81-3.08,1.97-1.66.19-3.3.51-4.95.76-.42.07-.85.09-1.33.14.04-1.34-.51-2.36-1.28-3.2-.93-1.02-1.9-2.04-3.02-2.84-3.35-2.38-6.82-4.61-10.15-7.01-1.84-1.33-3.58-2.82-5.24-4.38-1.96-1.83-2.4-4.1-1.41-6.62.09-.21-.01-.5-.02-.81-2.04,1.08-2.04,4.53-1.44,6.11.83,2.16,2.46,3.71,4.13,5.22,1.66,1.51,3.19,3.14,4.26,5.15.18-.02.37-.03.56-.04.05-.38.1-.76.16-1.21,1.16.28,1.85,1.1,2.64,1.74.77.63,1.49,1.33,2.14,2.08.67.77,1.23,1.64,1.96,2.62.13-.77.22-1.32.32-1.93,3.36,2.13,5.87,4.73,6.46,8.94,1.1-1.08.11-2.19.62-3.2,2.02,0,4.11-.07,6.19.02,1.54.07,2.91.59,3.51,2.23.02.05.17.04.33.07.2-.74.4-1.49.65-2.4-.58-.5-1.21-1.04-1.85-1.59.4-.46.88-.89,1.21-1.43.36-.57.53-1.25.85-1.86Zm-1.28-3.33c-.91.07-1.84.14-2.95.23-.04-.8-.08-1.51-.13-2.38.58,0,1.06-.02,1.53,0,1.65.1,1.79.29,1.55,2.15Zm-8.23.66c-.71-1.12.07-1.99.06-3.02h3.44c.21.88.39,1.62.6,2.45-1.48.21-2.82.39-4.1.57Zm4.42-7.91c-3.47-.48-6.62-.03-8.85,3.06-.76-.7-1.44-1.32-2.32-2.13,1.7-1.01,3.27-1.96,4.87-2.86.32-.18.74-.23,1.12-.23,1.55-.03,3.09-.01,4.64-.03,1.38-.02,2.39.81,3.51,1.37-.11,1.23-.22,1.36-1.33,1.69-.07-1.03-.09-2.17-1.64-2.06v1.19Zm2.43,10.71c-.35.02-.7.01-1.04.07-.33.05-.65.16-.95.24-.08-.1-.19-.18-.18-.24q.22-2.26,2.5-2.12c.43.03.85.11,1.39.18q-.28,1.77-1.72,1.87Zm-5.32-9.33c-.45.81-1.21,1.46-.86,2.68.9-.09,1.71-.17,2.63-.27-.44-1.02-.31-2.24-1.77-2.41Zm-12.38-3.11c2.23,1.81,3.11,1.75,4.72-.18-1.56-.63-3.04-.08-4.72.18Zm1.01-4.75c.6.55,1.11.64,1.66-.32-.73.14-1.19.23-1.66.32Z"/>
    <path class="cls-1" d="m11.86,98.92c.42-.17.74-.26,1.04-.41.99-.52,1.52-1.53,1.39-2.59-.15-1.17-.51-1.7-1.93-1.86-2.21-.25-4.45-.27-6.78-.39,1.14,3.36.24,6.66.72,9.98.79-.04,1.51-.08,2.28-.12v-3.87c.82-.34,1.16.21,1.52.67.66.87,1.28,1.78,1.98,2.62.26.31.67.61,1.05.67.66.11,1.35.03,2.41.03-1.36-1.75-2.47-3.18-3.68-4.73Zm-1.49-.65c-.52.11-1.08.06-1.76.1v-3.59c.5-.02.98-.08,1.45-.07,1.2.04,1.73.39,1.83,1.12.18,1.39-.27,2.17-1.52,2.44Z"/>
    <path class="cls-1" d="m24.78,98.59c-.28-.19-.57-.39-.91-.62.34-.3.66-.52.89-.81.86-1.06.36-2.7-.89-3.02-2.32-.6-4.67-.28-7.12-.37q.76,1.19.76,2.64v7.18c2.3-.13,4.36.17,6.44-.42,1.24-.36,1.72-1.12,1.95-2.16.22-1.03-.25-1.85-1.12-2.42Zm-4.82-3.72c.92-.4,1.71.02,2.51.27.45,2.16.04,2.59-2.51,2.52v-2.79Zm2.26,7.52c-.51.17-1.03.3-1.55.42-.18.04-.39,0-.7-.03v-4.1c.63,0,1.2-.04,1.78.01,1.06.09,1.74.7,1.84,1.59.13,1.16-.22,1.72-1.37,2.11Z"/>
    <path class="cls-1" d="m19.56,92.75c-.68-.82-1.22-1.59-1.88-2.24-.7-.7-1.48-1.33-2.29-1.9-.76-.52-1.47-1.17-2.53-1.37-.06.54-.11,1.02-.15,1.49-.17,0-.33,0-.49,0-1.32-2.41-3.19-4.29-5.41-5.89-1.17-.84-2.11-1.9-2.86-3.19-.78-1.33-.41-2.67-.37-4.01.01-.22.37-.42.72-.79.05.52.14.85.09,1.15-.19,1.41.37,2.58,1.32,3.5,1.02.99,2.16,1.88,3.33,2.7,1.91,1.34,3.95,2.5,5.82,3.91,1.26.94,2.34,2.13,3.42,3.29.82.86,1.22,1.96,1.28,3.34Z"/>
    <path class="cls-1" d="m36.14,103.23c-2.14,1.14-5.55.57-7.21-1.19-.53-.57-.86-1.2-.9-1.97-.03-.7-.02-1.4-.05-2.09-.07-1.7.93-3.02,2.22-3.62,1.94-.93,4.14-1.3,6.32-.11-.22.53-.42,1.04-.68,1.67-.92-1.01-1.98-1.34-3.19-1.1-1.22.24-2.07,1.21-2.16,2.47-.04.65-.01,1.3-.05,1.94-.12,2.25,2.33,3.77,4.46,3.16.51-.15,1.04-.27,1.61-.41.3.69.1,1-.37,1.25Z"/>
    <path class="cls-1" d="m25.65,83.07l-.3.27"/>
    <path class="cls-1" d="m26.27,79.01c0,.15,0,.29-.01.43-.2.02-.4.04-.59.06-.11-.02-.22-.04-.33-.07-.01-.1,0-.19.03-.29.3-.04.6-.08.9-.13Z"/>
    <path class="cls-1" d="m12.71,81.25v.63c-.07.02-.13.04-.19.06-.12-.22-.25-.44-.37-.65.18-.02.37-.03.56-.04Z"/>
    <path class="cls-1" d="m14.53,62.93v-.67c.52.22.47.45,0,.67Z"/>
    <path class="cls-1" d="m12.71,88.73c-.04.13-.07.25-.11.38-.13-.13-.25-.25-.38-.37.16,0,.32,0,.49,0Z"/>
    <path class="cls-1" d="m28.08,84.01c-.04.07-.08.14-.12.21-.07-.08-.14-.16-.21-.24.11,0,.22.02.33.03Z"/>
    <path class="cls-1" d="m25.67,79.5c-.1.1-.2.19-.29.28-.01-.11-.03-.23-.04-.35.11.03.22.05.33.07Z"/>
    <path class="cls-1" d="m26.27,79.01c-.3.05-.6.09-.9.13"/>
    <path class="cls-1" d="m18.55,68.28c.46-.09.93-.18,1.66-.32-.55.96-1.06.87-1.66.32Z"/>
  </g>
</svg>